old_template.ufo
<glyph name="arComma" format="1">
  <advance width="355"/>
  <unicode hex="060C"/>
  <note>
    uni060C
  </note>
  <outline>
    <contour>
      <point x="111" y="25"/>
      <point x="127" y="10"/>
      <point x="158" y="-15" type="curve" smooth="yes"/>
      <point x="203" y="-52" type="line"/>
      <point x="268" y="57" type="line"/>
      <point x="247" y="75" type="line"/>
      <point x="225" y="98" type="line"/>
      <point x="217" y="109"/>
      <point x="213" y="126"/>
      <point x="213" y="145" type="curve"/>
      <point x="215" y="163" type="line"/>
      <point x="218" y="182" type="line"/>
      <point x="227" y="206" type="line"/>
      <point x="234" y="223" type="line"/>
      <point x="222" y="231" type="line"/>
      <point x="215" y="235" type="line"/>
      <point x="209" y="227" type="line"/>
      <point x="193" y="201" type="line" smooth="yes"/>
      <point x="141" y="116"/>
      <point x="116" y="54"/>
      <point x="108" y="29" type="curve"/>
    </contour>
  </outline>
</glyph>
<glyph name="arSemicolon" format="1">
  <advance width="342"/>
  <unicode hex="061B"/>
  <note>
    uni061B
  </note>
  <outline>
    <contour>
      <point x="165" y="338" type="line"/>
      <point x="156" y="365" type="line"/>
      <point x="153" y="385" type="line"/>
      <point x="154" y="403" type="line"/>
      <point x="158" y="422" type="line"/>
      <point x="166" y="446" type="line"/>
      <point x="173" y="464" type="line"/>
      <point x="161" y="472" type="line"/>
      <point x="155" y="476" type="line"/>
      <point x="148" y="467" type="line"/>
      <point x="132" y="442" type="line"/>
      <point x="81" y="355"/>
      <point x="56" y="295"/>
      <point x="47" y="270" type="curve"/>
      <point x="50" y="266"/>
      <point x="67" y="251"/>
      <point x="98" y="226" type="curve" smooth="yes"/>
      <point x="143" y="189" type="line"/>
      <point x="207" y="297" type="line"/>
      <point x="187" y="315" type="line"/>
    </contour>
    <contour>
      <point x="56" y="64" type="line"/>
      <point x="151" y="-16" type="line"/>
      <point x="216" y="92" type="line"/>
      <point x="119" y="176" type="line"/>
    </contour>
  </outline>
</glyph>
<glyph name="arQuestion" format="1">
  <advance width="321"/>
  <unicode hex="061F"/>
  <note>
    uni061F
  </note>
  <outline>
    <contour>
      <point x="243" y="512"/>
      <point x="155" y="582"/>
      <point x="118" y="582" type="curve" smooth="yes"/>
      <point x="95" y="582"/>
      <point x="42" y="411"/>
      <point x="42" y="348" type="curve"/>
      <point x="44" y="328" type="line"/>
      <point x="56" y="305"/>
      <point x="68" y="292"/>
      <point x="80" y="287" type="curve" smooth="yes"/>
      <point x="138" y="262" type="line"/>
      <point x="164" y="248" type="line"/>
      <point x="173" y="240"/>
      <point x="181" y="232"/>
      <point x="187" y="223" type="curve" smooth="yes"/>
      <point x="189" y="220"/>
      <point x="190" y="216"/>
      <point x="190" y="211" type="curve"/>
      <point x="187" y="200" type="line"/>
      <point x="181" y="187" type="line"/>
      <point x="187" y="181" type="line"/>
      <point x="189" y="180"/>
      <point x="191" y="180"/>
      <point x="193" y="181" type="curve"/>
      <point x="202" y="190"/>
      <point x="209" y="206"/>
      <point x="215" y="229" type="curve"/>
      <point x="221" y="245" type="line"/>
      <point x="222" y="248"/>
      <point x="223" y="252"/>
      <point x="223" y="257" type="curve"/>
      <point x="225" y="260"/>
      <point x="226" y="265"/>
      <point x="226" y="274" type="curve" smooth="yes"/>
      <point x="226" y="289" type="line" smooth="yes"/>
      <point x="226" y="304"/>
      <point x="217" y="320"/>
      <point x="200" y="336" type="curve" smooth="yes"/>
      <point x="183" y="353"/>
      <point x="163" y="367"/>
      <point x="138" y="376" type="curve"/>
      <point x="122" y="384" type="line"/>
      <point x="112" y="391" type="line"/>
      <point x="107" y="396"/>
      <point x="102" y="403"/>
      <point x="98" y="412" type="curve"/>
      <point x="95" y="427" type="line"/>
      <point x="95" y="434"/>
      <point x="97" y="442"/>
      <point x="101" y="452" type="curve" smooth="yes"/>
      <point x="105" y="463" type="line"/>
      <point x="111" y="474" type="line"/>
      <point x="158" y="453"/>
      <point x="195" y="432"/>
      <point x="207" y="413" type="curve" smooth="yes"/>
      <point x="215" y="400" type="line"/>
      <point x="218" y="393" type="line"/>
      <point x="221" y="389"/>
      <point x="223" y="382"/>
      <point x="225" y="372" type="curve"/>
      <point x="226" y="368"/>
      <point x="232" y="365"/>
      <point x="239" y="365" type="curve"/>
      <point x="247" y="403" type="line"/>
      <point x="251" y="428" type="line"/>
      <point x="252" y="434" type="line"/>
      <point x="252" y="441" type="line"/>
      <point x="252" y="452" type="line"/>
      <point x="251" y="472" type="line"/>
    </contour>
    <contour>
      <point x="83" y="64" type="line"/>
      <point x="179" y="-16" type="line"/>
      <point x="243" y="92" type="line"/>
      <point x="146" y="176" type="line"/>
    </contour>
  </outline>
</glyph>
<glyph name="arHamza" format="1">
  <advance width="328"/>
  <unicode hex="0621"/>
  <note>
    uni0621
  </note>
  <outline>
    <contour>
      <point x="234" y="154"/>
      <point x="220" y="155"/>
      <point x="208" y="157" type="curve" smooth="yes"/>
      <point x="167" y="165" type="line"/>
      <point x="134" y="174"/>
      <point x="113" y="185"/>
      <point x="104" y="199" type="curve"/>
      <point x="111" y="210"/>
      <point x="118" y="216"/>
      <point x="125" y="219" type="curve"/>
      <point x="130" y="223"/>
      <point x="137" y="225"/>
      <point x="146" y="225" type="curve" smooth="yes"/>
      <point x="158" y="225"/>
      <point x="170" y="220"/>
      <point x="183" y="209" type="curve"/>
      <point x="209" y="184" type="line"/>
      <point x="229" y="222" type="line"/>
      <point x="242" y="249"/>
      <point x="249" y="263"/>
      <point x="249" y="265" type="curve"/>
      <point x="240" y="305" type="line"/>
      <point x="233" y="320"/>
      <point x="222" y="330"/>
      <point x="208" y="335" type="curve"/>
      <point x="188" y="338" type="line"/>
      <point x="170" y="338"/>
      <point x="152" y="331"/>
      <point x="134" y="316" type="curve"/>
      <point x="112" y="295" type="line"/>
      <point x="93" y="271" type="line"/>
      <point x="79" y="250"/>
      <point x="71" y="237"/>
      <point x="68" y="230" type="curve" smooth="yes"/>
      <point x="61" y="215" type="line"/>
      <point x="58" y="207" type="line"/>
      <point x="49" y="178" type="line" smooth="yes"/>
      <point x="43" y="160"/>
      <point x="39" y="145"/>
      <point x="37" y="132" type="curve" smooth="yes"/>
      <point x="33" y="106" type="line"/>
      <point x="33" y="83" type="line" smooth="yes"/>
      <point x="33" y="69"/>
      <point x="35" y="59"/>
      <point x="38" y="54" type="curve"/>
      <point x="53" y="33"/>
      <point x="70" y="23"/>
      <point x="102" y="14" type="curve"/>
      <point x="67" y="-2"/>
      <point x="36" y="-56"/>
      <point x="36" y="-105" type="curve"/>
      <point x="40" y="-111" type="line"/>
      <point x="102" y="-56" type="line"/>
      <point x="121" y="-41"/>
      <point x="132" y="-32"/>
      <point x="135" y="-31" type="curve"/>
      <point x="164" y="-14"/>
      <point x="201" y="-2"/>
      <point x="246" y="3" type="curve"/>
      <point x="257" y="29"/>
      <point x="266" y="57"/>
      <point x="275" y="87" type="curve" smooth="yes"/>
      <point x="294" y="152" type="line"/>
      <point x="251" y="154" type="line"/>
    </contour>
    <contour>
      <point x="130.29573170731715" y="-158.2347560975611" type="move" name="markBelow"/>
    </contour>
    <contour>
      <point x="135.88567073170748" y="477.592987804878" type="move" name="markAbove"/>
    </contour>
    <contour>
      <point x="141" y="407" type="move" name="dotAbove"/>
    </contour>
    <contour>
      <point x="129" y="-179" type="move" name="dotBelow"/>
    </contour>
  </outline>
</glyph>
<glyph name="diFathatan" format="1">
  <unicode hex="064B"/>
  <outline>
    <contour>
      <point x="-92.28048780487802" y="75.06097560975627" type="curve"/>
      <point x="55.71951219512198" y="159.06097560975627" type="line" smooth="yes"/>
      <point x="66.71951219512198" y="165.06097560975627"/>
      <point x="72.71951219512198" y="179.06097560975627"/>
      <point x="72.71951219512198" y="201.06097560975627" type="curve"/>
      <point x="-60.28048780487802" y="124.06097560975627" type="line" smooth="yes"/>
      <point x="-88.28048780487802" y="108.06097560975627"/>
      <point x="-92.28048780487802" y="99.06097560975627"/>
    </contour>
    <contour>
      <point x="-92" y="7" type="curve"/>
      <point x="56" y="91" type="line" smooth="yes"/>
      <point x="67" y="97"/>
      <point x="73" y="111"/>
      <point x="73" y="133" type="curve"/>
      <point x="-60" y="56" type="line" smooth="yes"/>
      <point x="-88" y="40"/>
      <point x="-92" y="31"/>
    </contour>
    <contour>
      <point x="-1" y="0" type="move" name="_markAbove"/>
    </contour>
    <contour>
      <point x="-1.9055807555026831" y="-0.9055807555025694" type="move" name="_markAboveDot"/>
    </contour>
  </outline>
</glyph>
<glyph name="diShadda" format="1">
  <unicode hex="0651"/>
  <note>
    uni0651
  </note>
  <outline>
    <contour>
      <point x="74" y="130" type="line"/>
      <point x="63" y="125" type="line"/>
      <point x="63" y="78"/>
      <point x="52" y="54"/>
      <point x="30" y="54" type="curve" smooth="yes"/>
      <point x="24" y="54"/>
      <point x="19" y="57"/>
      <point x="14" y="64" type="curve"/>
      <point x="10" y="71"/>
      <point x="6" y="84"/>
      <point x="2" y="102" type="curve"/>
      <point x="-7" y="99" type="line"/>
      <point x="-13" y="69"/>
      <point x="-19" y="48"/>
      <point x="-26" y="37" type="curve" smooth="yes"/>
      <point x="-33" y="26"/>
      <point x="-41" y="20"/>
      <point x="-51" y="20" type="curve" smooth="yes"/>
      <point x="-58" y="20"/>
      <point x="-62" y="25"/>
      <point x="-65" y="35" type="curve" smooth="yes"/>
      <point x="-68" y="45"/>
      <point x="-70" y="58"/>
      <point x="-70" y="74" type="curve"/>
      <point x="-81" y="72" type="line"/>
      <point x="-86" y="55" type="line"/>
      <point x="-91" y="41" type="line"/>
      <point x="-92" y="40"/>
      <point x="-92" y="33"/>
      <point x="-92" y="22" type="curve" smooth="yes"/>
      <point x="-92" y="7"/>
      <point x="-88" y="-5"/>
      <point x="-81" y="-16" type="curve"/>
      <point x="-70" y="-25"/>
      <point x="-61" y="-30"/>
      <point x="-52" y="-30" type="curve" smooth="yes"/>
      <point x="-29" y="-30"/>
      <point x="-5" y="-11"/>
      <point x="-1" y="12" type="curve"/>
      <point x="7" y="6" type="line"/>
      <point x="15" y="3" type="line"/>
      <point x="30" y="1" type="line"/>
      <point x="62" y="1"/>
      <point x="81" y="32"/>
      <point x="81" y="83" type="curve"/>
      <point x="80" y="104" type="line"/>
    </contour>
    <contour>
      <point x="0" y="1" type="move" name="_markAbove"/>
    </contour>
    <contour>
      <point x="1" y="0" type="move" name="_markAboveDot"/>
    </contour>
    <contour>
      <point x="-2.5853658536585726" y="98.36585365853603" type="move" name="markAbove"/>
    </contour>
  </outline>
</glyph>
<glyph name="diSukun" format="1">
  <unicode hex="0652"/>
  <note>
    uni0652
  </note>
  <outline>
    <contour>
      <point x="73.08536585365869" y="119.17073170731692"/>
      <point x="42.085365853658686" y="155.17073170731692"/>
      <point x="14.085365853658686" y="155.17073170731692" type="curve" smooth="yes"/>
      <point x="-25.914634146341314" y="155.17073170731692"/>
      <point x="-52.914634146341314" y="117.17073170731692"/>
      <point x="-52.914634146341314" y="62.17073170731692" type="curve" smooth="yes"/>
      <point x="-52.914634146341314" y="42.17073170731692"/>
      <point x="-48.914634146341314" y="27.170731707316918"/>
      <point x="-39.914634146341314" y="17.170731707316918" type="curve"/>
      <point x="-26.914634146341314" y="8.170731707316918"/>
      <point x="-13.914634146341314" y="3.170731707316918"/>
      <point x="-0.9146341463413137" y="3.170731707316918" type="curve" smooth="yes"/>
      <point x="39.085365853658686" y="3.170731707316918"/>
      <point x="73.08536585365869" y="42.17073170731692"/>
      <point x="73.08536585365869" y="83.17073170731692" type="curve" smooth="yes"/>
    </contour>
    <contour>
      <point x="46.085365853658686" y="59.17073170731692"/>
      <point x="35.085365853658686" y="51.17073170731692"/>
      <point x="8.085365853658686" y="51.17073170731692" type="curve" smooth="yes"/>
      <point x="-21.914634146341314" y="51.17073170731692"/>
      <point x="-36.914634146341314" y="61.17073170731692"/>
      <point x="-36.914634146341314" y="80.17073170731692" type="curve" smooth="yes"/>
      <point x="-36.914634146341314" y="99.17073170731692"/>
      <point x="-24.914634146341314" y="113.17073170731692"/>
      <point x="-7.914634146341314" y="113.17073170731692" type="curve" smooth="yes"/>
      <point x="8.085365853658686" y="113.17073170731692"/>
      <point x="46.085365853658686" y="87.17073170731692"/>
      <point x="46.085365853658686" y="71.17073170731692" type="curve" smooth="yes"/>
    </contour>
    <contour>
      <point x="2.1341463414634063" y="-0.8414634146340632" type="move" name="_markAbove"/>
    </contour>
    <contour>
      <point x="3.81707317073176" y="0.0" type="move" name="_markAboveDot"/>
    </contour>
  </outline>
</glyph>
<glyph name="diHamza.above" format="1">
  <unicode hex="0654"/>
  <note>
    uni0654
  </note>
  <outline>
    <contour>
      <point x="36" y="98" type="line"/>
      <point x="11" y="99" type="line"/>
      <point x="-12" y="102" type="line"/>
      <point x="-21" y="105"/>
      <point x="-28" y="109"/>
      <point x="-31" y="112" type="curve"/>
      <point x="-37" y="115"/>
      <point x="-39" y="119"/>
      <point x="-38" y="123" type="curve"/>
      <point x="-30" y="133" type="line"/>
      <point x="-27" y="136" type="line"/>
      <point x="-25" y="137" type="line"/>
      <point x="-22" y="138" type="line"/>
      <point x="-14" y="139" type="line"/>
      <point x="-9" y="139"/>
      <point x="-3" y="137"/>
      <point x="2" y="133" type="curve"/>
      <point x="16" y="119" type="line"/>
      <point x="21" y="126"/>
      <point x="24" y="133"/>
      <point x="27" y="138" type="curve"/>
      <point x="32" y="152" type="line"/>
      <point x="33" y="163" type="line"/>
      <point x="33" y="179"/>
      <point x="17" y="188"/>
      <point x="2" y="188" type="curve" smooth="yes"/>
      <point x="-30" y="188"/>
      <point x="-70" y="128"/>
      <point x="-70" y="89" type="curve" smooth="yes"/>
      <point x="-70" y="72"/>
      <point x="-67" y="66"/>
      <point x="-51" y="59" type="curve"/>
      <point x="-27" y="52" type="line"/>
      <point x="-63" y="12" type="line"/>
      <point x="-63" y="9" type="line"/>
      <point x="-61" y="1" type="line"/>
      <point x="-59" y="-1"/>
      <point x="-57" y="-2"/>
      <point x="-56" y="-1" type="curve"/>
      <point x="-40" y="13" type="line"/>
      <point x="-27" y="23" type="line"/>
      <point x="-22" y="28"/>
      <point x="-17" y="31"/>
      <point x="-12" y="33" type="curve"/>
      <point x="-3" y="38" type="line"/>
      <point x="4" y="41"/>
      <point x="10" y="44"/>
      <point x="17" y="47" type="curve"/>
      <point x="45" y="54" type="line"/>
      <point x="58" y="70" type="line" smooth="yes"/>
      <point x="64" y="77"/>
      <point x="68" y="86"/>
      <point x="70" y="97" type="curve"/>
      <point x="57" y="98" type="line"/>
    </contour>
    <contour>
      <point x="0" y="1" type="move" name="_hamzaAbove"/>
    </contour>
    <contour>
      <point x="-12.578494310725318" y="210.0307224132498" type="move" name="markAbove"/>
    </contour>
    <contour>
      <point x="-13" y="201" type="move" name="markAbove_2"/>
    </contour>
  </outline>
</glyph>
<glyph name="diHamza.below" format="1">
  <unicode hex="0655"/>
  <note>
    uni0655
  </note>
  <outline>
    <contour>
      <point x="50" y="-103" type="line"/>
      <point x="25" y="-102" type="line"/>
      <point x="2" y="-99" type="line"/>
      <point x="-17" y="-92"/>
      <point x="-27" y="-85"/>
      <point x="-24" y="-78" type="curve"/>
      <point x="-17" y="-68" type="line"/>
      <point x="-13" y="-65" type="line"/>
      <point x="-11" y="-64" type="line"/>
      <point x="-8" y="-62" type="line"/>
      <point x="0" y="-61" type="line"/>
      <point x="5" y="-61"/>
      <point x="11" y="-63"/>
      <point x="16" y="-68" type="curve" smooth="yes"/>
      <point x="30" y="-82" type="line"/>
      <point x="35" y="-75"/>
      <point x="38" y="-68"/>
      <point x="41" y="-62" type="curve"/>
      <point x="46" y="-49" type="line"/>
      <point x="46" y="-38" type="line" smooth="yes"/>
      <point x="46" y="-22"/>
      <point x="31" y="-13"/>
      <point x="16" y="-13" type="curve" smooth="yes"/>
      <point x="-16" y="-13"/>
      <point x="-56" y="-72"/>
      <point x="-56" y="-112" type="curve" smooth="yes"/>
      <point x="-56" y="-128"/>
      <point x="-53" y="-135"/>
      <point x="-37" y="-142" type="curve"/>
      <point x="-13" y="-149" type="line"/>
      <point x="-49" y="-188" type="line"/>
      <point x="-49" y="-192" type="line"/>
      <point x="-47" y="-200" type="line"/>
      <point x="-45" y="-202"/>
      <point x="-43" y="-203"/>
      <point x="-42" y="-202" type="curve" smooth="yes"/>
      <point x="-26" y="-187" type="line"/>
      <point x="-13" y="-178" type="line"/>
      <point x="-8" y="-173"/>
      <point x="-3" y="-170"/>
      <point x="2" y="-168" type="curve"/>
      <point x="11" y="-163" type="line"/>
      <point x="18" y="-160"/>
      <point x="24" y="-157"/>
      <point x="31" y="-154" type="curve"/>
      <point x="59" y="-147" type="line"/>
      <point x="72" y="-131" type="line" smooth="yes"/>
      <point x="78" y="-124"/>
      <point x="82" y="-114"/>
      <point x="84" y="-103" type="curve"/>
      <point x="71" y="-103" type="line"/>
    </contour>
    <contour>
      <point x="0" y="1" type="move" name="_hamzaBelow"/>
    </contour>
    <contour>
      <point x="2.0" y="-188.63993913722447" type="move" name="markBelow"/>
    </contour>
  </outline>
</glyph>
<glyph name="dig1" format="1">
  <advance width="304"/>
  <unicode hex="0661"/>
  <note>
    uni0661
  </note>
  <outline>
    <contour>
      <point x="226" y="220" type="line"/>
      <point x="223" y="244"/>
      <point x="218" y="270"/>
      <point x="211" y="298" type="curve" smooth="yes"/>
      <point x="193" y="361" type="line"/>
      <point x="178" y="411" type="line"/>
      <point x="166" y="448" type="line"/>
      <point x="139" y="503"/>
      <point x="123" y="533"/>
      <point x="120" y="538" type="curve"/>
      <point x="111" y="531"/>
      <point x="97" y="509"/>
      <point x="78" y="472" type="curve" smooth="yes"/>
      <point x="63" y="443" type="line"/>
      <point x="52" y="418" type="line"/>
      <point x="58" y="409"/>
      <point x="63" y="400"/>
      <point x="68" y="389" type="curve"/>
      <point x="78" y="369" type="line"/>
      <point x="102" y="317" type="line"/>
      <point x="105" y="312"/>
      <point x="107" y="308"/>
      <point x="108" y="305" type="curve" smooth="yes"/>
      <point x="109" y="302"/>
      <point x="111" y="297"/>
      <point x="114" y="291" type="curve"/>
      <point x="118" y="282"/>
      <point x="121" y="274"/>
      <point x="123" y="267" type="curve"/>
      <point x="126" y="262"/>
      <point x="128" y="255"/>
      <point x="128" y="252" type="curve"/>
      <point x="130" y="249"/>
      <point x="131" y="245"/>
      <point x="132" y="238" type="curve"/>
      <point x="140" y="210" type="line"/>
      <point x="147" y="186" type="line"/>
      <point x="155" y="148" type="line"/>
      <point x="170" y="81" type="line"/>
      <point x="188" y="-3" type="line"/>
      <point x="192" y="-7" type="line"/>
      <point x="193" y="-8" type="line"/>
      <point x="196" y="-8"/>
      <point x="198" y="-7"/>
      <point x="201" y="-4" type="curve"/>
      <point x="207" y="3" type="line"/>
      <point x="211" y="13" type="line"/>
      <point x="214" y="22" type="line"/>
      <point x="219" y="41" type="line"/>
      <point x="222" y="56" type="line"/>
      <point x="225" y="76" type="line" smooth="yes"/>
      <point x="229" y="106"/>
      <point x="231" y="131"/>
      <point x="231" y="150" type="curve"/>
      <point x="229" y="185" type="line"/>
    </contour>
  </outline>
</glyph>
<glyph name="dig2" format="1">
  <advance width="381"/>
  <unicode hex="0662"/>
  <note>
    uni0662
  </note>
  <outline>
    <contour>
      <point x="333" y="533"/>
      <point x="330" y="534"/>
      <point x="327" y="534" type="curve"/>
      <point x="322" y="532"/>
      <point x="318" y="530"/>
      <point x="317" y="527" type="curve"/>
      <point x="291" y="490"/>
      <point x="273" y="468"/>
      <point x="263" y="460" type="curve"/>
      <point x="254" y="455"/>
      <point x="236" y="453"/>
      <point x="210" y="453" type="curve" smooth="yes"/>
      <point x="195" y="453"/>
      <point x="177" y="462"/>
      <point x="158" y="481" type="curve"/>
      <point x="109" y="536" type="line"/>
      <point x="105" y="533"/>
      <point x="100" y="527"/>
      <point x="94" y="517" type="curve" smooth="yes"/>
      <point x="87" y="506"/>
      <point x="80" y="491"/>
      <point x="71" y="470" type="curve" smooth="yes"/>
      <point x="46" y="414" type="line"/>
      <point x="71" y="378" type="line"/>
      <point x="83" y="359" type="line"/>
      <point x="90" y="348" type="line"/>
      <point x="106" y="319" type="line"/>
      <point x="115" y="302" type="line"/>
      <point x="123" y="286" type="line"/>
      <point x="127" y="278" type="line"/>
      <point x="128" y="277"/>
      <point x="129" y="275"/>
      <point x="129" y="272" type="curve"/>
      <point x="135" y="261" type="line"/>
      <point x="146" y="236" type="line"/>
      <point x="151" y="223" type="line"/>
      <point x="155" y="209" type="line"/>
      <point x="164" y="177" type="line"/>
      <point x="180" y="123" type="line"/>
      <point x="193" y="70" type="line"/>
      <point x="211" y="0" type="line"/>
      <point x="214" y="-1"/>
      <point x="217" y="0"/>
      <point x="218" y="1" type="curve"/>
      <point x="223" y="8" type="line"/>
      <point x="239" y="51"/>
      <point x="247" y="107"/>
      <point x="247" y="174" type="curve"/>
      <point x="246" y="215" type="line"/>
      <point x="241" y="249" type="line"/>
      <point x="237" y="267" type="line" smooth="yes"/>
      <point x="236" y="272"/>
      <point x="234" y="278"/>
      <point x="232" y="283" type="curve"/>
      <point x="225" y="306" type="line"/>
      <point x="220" y="319" type="line"/>
      <point x="229" y="318" type="line"/>
      <point x="239" y="318"/>
      <point x="250" y="320"/>
      <point x="262" y="325" type="curve"/>
      <point x="281" y="338" type="line"/>
      <point x="287" y="344" type="line" smooth="yes"/>
      <point x="307" y="365"/>
      <point x="320" y="387"/>
      <point x="327" y="411" type="curve"/>
      <point x="331" y="422" type="line"/>
      <point x="333" y="432" type="line"/>
      <point x="334" y="444" type="line"/>
      <point x="335" y="456" type="line"/>
      <point x="336" y="459"/>
      <point x="337" y="464"/>
      <point x="337" y="472" type="curve"/>
      <point x="338" y="490" type="line"/>
      <point x="338" y="496" type="line"/>
      <point x="338" y="502" type="line"/>
      <point x="338" y="510" type="line"/>
      <point x="338" y="519" type="line"/>
      <point x="334" y="530" type="line" smooth="yes"/>
    </contour>
  </outline>
</glyph>
<glyph name="dig4" format="1">
  <advance width="311"/>
  <unicode hex="0664"/>
  <note>
    uni0664
  </note>
  <outline>
    <contour>
      <point x="286" y="79"/>
      <point x="269" y="95"/>
      <point x="240" y="117" type="curve" smooth="yes"/>
      <point x="161" y="181" type="line"/>
      <point x="158" y="184"/>
      <point x="156" y="188"/>
      <point x="156" y="193" type="curve"/>
      <point x="160" y="206" type="line"/>
      <point x="212" y="267" type="line"/>
      <point x="226" y="284" type="line"/>
      <point x="245" y="308" type="line"/>
      <point x="251" y="317"/>
      <point x="254" y="325"/>
      <point x="254" y="332" type="curve" smooth="yes"/>
      <point x="254" y="342"/>
      <point x="250" y="350"/>
      <point x="242" y="355" type="curve" smooth="yes"/>
      <point x="183" y="394" type="line" smooth="yes"/>
      <point x="157" y="411"/>
      <point x="144" y="424"/>
      <point x="144" y="432" type="curve"/>
      <point x="173" y="448" type="line"/>
      <point x="193" y="460"/>
      <point x="205" y="470"/>
      <point x="209" y="478" type="curve"/>
      <point x="211" y="481"/>
      <point x="212" y="484"/>
      <point x="213" y="489" type="curve" smooth="yes"/>
      <point x="216" y="503" type="line"/>
      <point x="219" y="520" type="line"/>
      <point x="220" y="521"/>
      <point x="220" y="522"/>
      <point x="220" y="524" type="curve" smooth="yes"/>
      <point x="220" y="530" type="line"/>
      <point x="220" y="538" type="line"/>
      <point x="219" y="549" type="line"/>
      <point x="218" y="550"/>
      <point x="216" y="550"/>
      <point x="214" y="550" type="curve"/>
      <point x="192" y="535" type="line"/>
      <point x="172" y="519" type="line"/>
      <point x="148" y="500" type="line"/>
      <point x="126" y="480" type="line"/>
      <point x="104" y="459" type="line"/>
      <point x="85" y="440" type="line"/>
      <point x="55" y="407" type="line"/>
      <point x="49" y="398" type="line"/>
      <point x="44" y="390" type="line"/>
      <point x="41" y="381" type="line"/>
      <point x="40" y="372" type="line"/>
      <point x="45" y="354" type="line"/>
      <point x="65" y="327"/>
      <point x="79" y="312"/>
      <point x="88" y="308" type="curve"/>
      <point x="136" y="274" type="line"/>
      <point x="117" y="252" type="line"/>
      <point x="93" y="227" type="line" smooth="yes"/>
      <point x="66" y="198"/>
      <point x="49" y="177"/>
      <point x="42" y="165" type="curve" smooth="yes"/>
      <point x="39" y="160"/>
      <point x="36" y="156"/>
      <point x="35" y="151" type="curve"/>
      <point x="34" y="137" type="line"/>
      <point x="34" y="126"/>
      <point x="36" y="116"/>
      <point x="41" y="106" type="curve" smooth="yes"/>
      <point x="48" y="91" type="line"/>
      <point x="60" y="76" type="line" smooth="yes"/>
      <point x="73" y="59"/>
      <point x="96" y="41"/>
      <point x="127" y="22" type="curve"/>
      <point x="196" y="-16" type="line"/>
      <point x="220" y="4" type="line"/>
      <point x="248" y="29" type="line"/>
      <point x="291" y="70" type="line"/>
    </contour>
  </outline>
</glyph>
<glyph name="dig8" format="1">
  <advance width="428"/>
  <unicode hex="0668"/>
  <note>
    uni0668
  </note>
  <outline>
    <contour>
      <point x="361" y="168" type="line"/>
      <point x="356" y="174" type="line"/>
      <point x="339" y="189"/>
      <point x="320" y="224"/>
      <point x="297" y="279" type="curve"/>
      <point x="289" y="292"/>
      <point x="280" y="310"/>
      <point x="271" y="335" type="curve"/>
      <point x="263" y="355" type="line"/>
      <point x="257" y="374" type="line"/>
      <point x="245" y="417" type="line"/>
      <point x="240" y="428"/>
      <point x="237" y="439"/>
      <point x="234" y="449" type="curve" smooth="yes"/>
      <point x="228" y="468"/>
      <point x="219" y="494"/>
      <point x="215" y="518" type="curve"/>
      <point x="208" y="528" type="line"/>
      <point x="205" y="531" type="line"/>
      <point x="199" y="531"/>
      <point x="195" y="526"/>
      <point x="193" y="516" type="curve" smooth="yes"/>
      <point x="185" y="476" type="line"/>
      <point x="172" y="425" type="line"/>
      <point x="149" y="348" type="line"/>
      <point x="136" y="304" type="line"/>
      <point x="94" y="203" type="line"/>
      <point x="64" y="164" type="line"/>
      <point x="52" y="151" type="line"/>
      <point x="43" y="144" type="line"/>
      <point x="62" y="37" type="line"/>
      <point x="68" y="10"/>
      <point x="72" y="-5"/>
      <point x="75" y="-9" type="curve"/>
      <point x="101" y="5" type="line"/>
      <point x="111" y="12"/>
      <point x="119" y="19"/>
      <point x="124" y="27" type="curve" smooth="yes"/>
      <point x="144" y="61"/>
      <point x="159" y="89"/>
      <point x="170" y="110" type="curve"/>
      <point x="178" y="130" type="line"/>
      <point x="182" y="141" type="line"/>
      <point x="183" y="142"/>
      <point x="184" y="145"/>
      <point x="184" y="149" type="curve"/>
      <point x="196" y="193" type="line"/>
      <point x="212" y="264" type="line"/>
      <point x="236" y="177" type="line"/>
      <point x="266" y="99" type="line"/>
      <point x="286" y="62" type="line"/>
      <point x="309" y="27" type="line"/>
      <point x="321" y="17" type="line"/>
      <point x="336" y="5" type="line"/>
      <point x="356" y="-7" type="line"/>
      <point x="362" y="6"/>
      <point x="368" y="30"/>
      <point x="374" y="65" type="curve" smooth="yes"/>
      <point x="379" y="92" type="line"/>
      <point x="382" y="113" type="line"/>
      <point x="384" y="121" type="line"/>
      <point x="384" y="131" type="line"/>
      <point x="385" y="147" type="line"/>
      <point x="371" y="159" type="line"/>
    </contour>
  </outline>
</glyph>
<glyph name="arDecimal" format="1">
  <advance width="355"/>
  <unicode hex="066B"/>
  <note>
    uni066B
  </note>
  <outline>
    <contour>
      <point x="255" y="67"/>
      <point x="239" y="81"/>
      <point x="208" y="106" type="curve" smooth="yes"/>
      <point x="163" y="144" type="line"/>
      <point x="99" y="35" type="line"/>
      <point x="119" y="17" type="line"/>
      <point x="141" y="-6" type="line" smooth="yes"/>
      <point x="148" y="-13"/>
      <point x="153" y="-29"/>
      <point x="153" y="-53" type="curve"/>
      <point x="151" y="-71" type="line"/>
      <point x="148" y="-90" type="line"/>
      <point x="140" y="-114" type="line"/>
      <point x="132" y="-131" type="line"/>
      <point x="145" y="-139" type="line"/>
      <point x="151" y="-143" type="line"/>
      <point x="157" y="-135" type="line"/>
      <point x="173" y="-109" type="line" smooth="yes"/>
      <point x="217" y="-37"/>
      <point x="247" y="24"/>
      <point x="258" y="63" type="curve"/>
    </contour>
  </outline>
</glyph>
<glyph name="arThousandsep" format="1">
  <advance width="278"/>
  <unicode hex="066C"/>
  <note>
    uni066C
  </note>
  <outline>
    <contour>
      <point x="183" y="93"/>
      <point x="165" y="113"/>
      <point x="138" y="113" type="curve" smooth="yes"/>
      <point x="117" y="113"/>
      <point x="98" y="92"/>
      <point x="98" y="69" type="curve" smooth="yes"/>
      <point x="98" y="58"/>
      <point x="102" y="47"/>
      <point x="110" y="38" type="curve"/>
      <point x="119" y="30"/>
      <point x="129" y="26"/>
      <point x="141" y="26" type="curve" smooth="yes"/>
      <point x="165" y="26"/>
      <point x="183" y="45"/>
      <point x="183" y="69" type="curve" smooth="yes"/>
    </contour>
  </outline>
</glyph>
<glyph name="arAsterisk" format="1">
  <advance width="284"/>
  <unicode hex="066D"/>
  <note>
    uni066D
  </note>
  <outline>
    <contour>
      <point x="275" y="296" type="line"/>
      <point x="241" y="355" type="line"/>
      <point x="151" y="272" type="line"/>
      <point x="178" y="393" type="line"/>
      <point x="110" y="393" type="line"/>
      <point x="137" y="272" type="line"/>
      <point x="46" y="355" type="line"/>
      <point x="12" y="296" type="line"/>
      <point x="131" y="260" type="line"/>
      <point x="12" y="222" type="line"/>
      <point x="46" y="164" type="line"/>
      <point x="136" y="247" type="line"/>
      <point x="109" y="126" type="line"/>
      <point x="177" y="126" type="line"/>
      <point x="151" y="247" type="line"/>
      <point x="241" y="164" type="line"/>
      <point x="275" y="222" type="line"/>
      <point x="157" y="260" type="line"/>
    </contour>
  </outline>
</glyph>
<glyph name="arFullStop" format="1">
  <advance width="145"/>
  <unicode hex="06D4"/>
  <note>
    uni06D4
  </note>
  <outline>
    <contour>
      <point x="149" y="179" type="line"/>
      <point x="132" y="179" type="line"/>
      <point x="117" y="174"/>
      <point x="103" y="172"/>
      <point x="89" y="173" type="curve"/>
      <point x="78" y="172" type="line"/>
      <point x="60" y="174" type="line"/>
      <point x="44" y="179" type="line"/>
      <point x="32" y="187"/>
      <point x="25" y="193"/>
      <point x="24" y="197" type="curve"/>
      <point x="19" y="199" type="line"/>
      <point x="13" y="199" type="line"/>
      <point x="9" y="182"/>
      <point x="7" y="165"/>
      <point x="7" y="147" type="curve" smooth="yes"/>
      <point x="7" y="112"/>
      <point x="14" y="81"/>
      <point x="29" y="54" type="curve" smooth="yes"/>
      <point x="46" y="25"/>
      <point x="68" y="7"/>
      <point x="93" y="0" type="curve"/>
      <point x="149" y="0" type="line"/>
    </contour>
  </outline>
</glyph>
<glyph name="dig4Farsi" format="1">
  <advance width="519"/>
  <unicode hex="06F4"/>
  <note>
    uni06F4
  </note>
  <outline>
    <contour>
      <point x="151" y="344"/>
      <point x="199" y="205"/>
      <point x="212" y="8" type="curve"/>
      <point x="229" y="8" type="line"/>
      <point x="241" y="65"/>
      <point x="260" y="155"/>
      <point x="260" y="211" type="curve" smooth="yes"/>
      <point x="260" y="237"/>
      <point x="257" y="262"/>
      <point x="252" y="287" type="curve"/>
      <point x="263" y="284"/>
      <point x="277" y="283"/>
      <point x="293" y="283" type="curve" smooth="yes"/>
      <point x="386" y="283"/>
      <point x="440" y="346"/>
      <point x="453" y="473" type="curve"/>
      <point x="438" y="479" type="line"/>
      <point x="407" y="444"/>
      <point x="368" y="427"/>
      <point x="320" y="427" type="curve" smooth="yes"/>
      <point x="301" y="427"/>
      <point x="279" y="432"/>
      <point x="254" y="442" type="curve"/>
      <point x="274" y="495"/>
      <point x="308" y="521"/>
      <point x="357" y="521" type="curve" smooth="yes"/>
      <point x="374" y="521"/>
      <point x="395" y="516"/>
      <point x="422" y="506" type="curve"/>
      <point x="429" y="519" type="line"/>
      <point x="393" y="562"/>
      <point x="358" y="583"/>
      <point x="323" y="583" type="curve" smooth="yes"/>
      <point x="274" y="583"/>
      <point x="243" y="540"/>
      <point x="228" y="453" type="curve"/>
      <point x="187" y="480"/>
      <point x="153" y="524"/>
      <point x="116" y="569" type="curve"/>
      <point x="68" y="426" type="line"/>
    </contour>
  </outline>
</glyph>
<glyph name="dig5Farsi" format="1">
  <advance width="519"/>
  <unicode hex="06F5"/>
  <note>
    uni06F5
  </note>
  <outline>
    <contour>
      <point x="127" y="298"/>
      <point x="75" y="203"/>
      <point x="75" y="130" type="curve" smooth="yes"/>
      <point x="75" y="69"/>
      <point x="125" y="20"/>
      <point x="188" y="20" type="curve" smooth="yes"/>
      <point x="217" y="20"/>
      <point x="247" y="32"/>
      <point x="279" y="56" type="curve"/>
      <point x="294" y="43"/>
      <point x="310" y="36"/>
      <point x="327" y="36" type="curve" smooth="yes"/>
      <point x="392" y="36"/>
      <point x="443" y="124"/>
      <point x="443" y="209" type="curve" smooth="yes"/>
      <point x="443" y="330"/>
      <point x="343" y="493"/>
      <point x="248" y="569" type="curve"/>
      <point x="204" y="442" type="line"/>
      <point x="230" y="417" type="line"/>
    </contour>
    <contour>
      <point x="345" y="301"/>
      <point x="392" y="235"/>
      <point x="392" y="196" type="curve" smooth="yes"/>
      <point x="392" y="177"/>
      <point x="380" y="167"/>
      <point x="356" y="167" type="curve" smooth="yes"/>
      <point x="336" y="167"/>
      <point x="318" y="177"/>
      <point x="302" y="197" type="curve"/>
      <point x="276" y="169"/>
      <point x="250" y="155"/>
      <point x="224" y="155" type="curve" smooth="yes"/>
      <point x="189" y="155"/>
      <point x="165" y="181"/>
      <point x="165" y="217" type="curve" smooth="yes"/>
      <point x="165" y="264"/>
      <point x="194" y="324"/>
      <point x="252" y="395" type="curve"/>
    </contour>
  </outline>
</glyph>
<glyph name="dig6Farsi" format="1">
  <advance width="518"/>
  <unicode hex="06F6"/>
  <note>
    uni06F6
  </note>
  <outline>
    <contour>
      <point x="244" y="184"/>
      <point x="296" y="241"/>
      <point x="416" y="305" type="curve"/>
      <point x="443" y="432" type="line"/>
      <point x="378" y="397"/>
      <point x="319" y="380"/>
      <point x="266" y="380" type="curve" smooth="yes"/>
      <point x="209" y="380"/>
      <point x="180" y="395"/>
      <point x="180" y="426" type="curve" smooth="yes"/>
      <point x="180" y="440"/>
      <point x="190" y="452"/>
      <point x="210" y="462" type="curve" smooth="yes"/>
      <point x="234" y="474"/>
      <point x="267" y="480"/>
      <point x="310" y="480" type="curve" smooth="yes"/>
      <point x="339" y="480"/>
      <point x="369" y="473"/>
      <point x="399" y="459" type="curve"/>
      <point x="410" y="471" type="line"/>
      <point x="369" y="530"/>
      <point x="328" y="560"/>
      <point x="287" y="560" type="curve" smooth="yes"/>
      <point x="216" y="560"/>
      <point x="102" y="428"/>
      <point x="102" y="341" type="curve" smooth="yes"/>
      <point x="102" y="300"/>
      <point x="137" y="275"/>
      <point x="206" y="267" type="curve" smooth="yes"/>
      <point x="218" y="266"/>
      <point x="228" y="266"/>
      <point x="236" y="266" type="curve"/>
      <point x="189" y="185"/>
      <point x="182" y="123"/>
      <point x="182" y="8" type="curve"/>
      <point x="201" y="8" type="line"/>
    </contour>
  </outline>
</glyph>
<glyph name="arAin.init" format="1">
  <advance width="425"/>
  <note>
    arAin.init
  </note>
  <outline>
    <contour>
      <point x="336" y="187" type="line"/>
      <point x="277" y="185" type="line"/>
      <point x="227" y="184" type="line"/>
      <point x="209" y="185" type="line"/>
      <point x="193" y="200"/>
      <point x="177" y="217"/>
      <point x="160" y="234" type="curve"/>
      <point x="130" y="272" type="line"/>
      <point x="146" y="282"/>
      <point x="158" y="288"/>
      <point x="165" y="290" type="curve"/>
      <point x="180" y="295"/>
      <point x="189" y="295"/>
      <point x="206" y="295" type="curve" smooth="yes"/>
      <point x="224" y="295" type="line" smooth="yes"/>
      <point x="283" y="295"/>
      <point x="303" y="284"/>
      <point x="324" y="265" type="curve" smooth="yes"/>
      <point x="352" y="240" type="line"/>
      <point x="357" y="247" type="line"/>
      <point x="355" y="263" type="line"/>
      <point x="352" y="280" type="line"/>
      <point x="344" y="300" type="line"/>
      <point x="336" y="319" type="line"/>
      <point x="322" y="348"/>
      <point x="305" y="373"/>
      <point x="284" y="392" type="curve"/>
      <point x="259" y="408"/>
      <point x="240" y="416"/>
      <point x="229" y="416" type="curve"/>
      <point x="209" y="413" type="line"/>
      <point x="194" y="405"/>
      <point x="180" y="397"/>
      <point x="165" y="388" type="curve"/>
      <point x="138" y="369"/>
      <point x="122" y="353"/>
      <point x="102" y="326" type="curve" smooth="yes"/>
      <point x="84" y="303" type="line"/>
      <point x="74" y="286" type="line"/>
      <point x="62" y="263" type="line"/>
      <point x="52" y="240" type="line"/>
      <point x="49" y="232" type="line"/>
      <point x="49" y="218" type="line"/>
      <point x="49" y="197" type="line"/>
      <point x="51" y="180" type="line"/>
      <point x="-3" y="180" type="line"/>
      <point x="-3" y="0" type="line"/>
      <point x="64" y="0" type="line"/>
      <point x="347" y="9" type="line"/>
      <point x="354" y="11" type="line"/>
      <point x="359" y="18" type="line" smooth="yes"/>
      <point x="374" y="38"/>
      <point x="409" y="157"/>
      <point x="409" y="189" type="curve"/>
      <point x="372" y="187" type="line"/>
    </contour>
    <contour>
      <point x="207.2682926829268" y="505.3414634146343" type="move" name="dotAbove"/>
    </contour>
    <contour>
      <point x="152.53658536585363" y="569.5365853658536" type="move" name="markAbove"/>
    </contour>
    <contour>
      <point x="179.2408536585367" y="-108.75914634146352" type="move" name="markBelow"/>
    </contour>
    <contour>
      <point x="175" y="-73" type="move" name="dotBelow"/>
    </contour>
  </outline>
</glyph>
<glyph name="arAin.isol" format="1">
  <advance width="362"/>
  <note>
    arAin.isol
  </note>
  <outline>
    <contour>
      <point x="366" y="-105"/>
      <point x="359" y="-104"/>
      <point x="348" y="-104" type="curve" smooth="yes"/>
      <point x="313" y="-104" type="line"/>
      <point x="267" y="-102" type="line"/>
      <point x="232" y="-99" type="line"/>
      <point x="135" y="-78"/>
      <point x="83" y="-34"/>
      <point x="83" y="26" type="curve" smooth="yes"/>
      <point x="83" y="34" type="line"/>
      <point x="84" y="43" type="line"/>
      <point x="99" y="100"/>
      <point x="179" y="185"/>
      <point x="278" y="226" type="curve"/>
      <point x="282" y="239"/>
      <point x="287" y="260"/>
      <point x="293" y="289" type="curve"/>
      <point x="302" y="345" type="line"/>
      <point x="293" y="346" type="line"/>
      <point x="282" y="346"/>
      <point x="269" y="343"/>
      <point x="254" y="337" type="curve"/>
      <point x="200" y="309" type="line" smooth="yes"/>
      <point x="180" y="299"/>
      <point x="155" y="294"/>
      <point x="124" y="294" type="curve" smooth="yes"/>
      <point x="111" y="294"/>
      <point x="102" y="298"/>
      <point x="95" y="307" type="curve"/>
      <point x="84" y="336" type="line"/>
      <point x="84" y="343"/>
      <point x="86" y="349"/>
      <point x="90" y="354" type="curve" smooth="yes"/>
      <point x="111" y="381"/>
      <point x="142" y="384"/>
      <point x="198" y="384" type="curve" smooth="yes"/>
      <point x="219" y="384" type="line"/>
      <point x="240" y="384" type="line"/>
      <point x="240" y="393" type="line"/>
      <point x="218" y="428" type="line"/>
      <point x="201" y="452" type="line"/>
      <point x="180" y="476"/>
      <point x="160" y="489"/>
      <point x="139" y="492" type="curve"/>
      <point x="135" y="493" type="line"/>
      <point x="116" y="493"/>
      <point x="94" y="471"/>
      <point x="68" y="428" type="curve"/>
      <point x="58" y="410" type="line"/>
      <point x="50" y="393" type="line"/>
      <point x="40" y="371" type="line"/>
      <point x="36" y="359" type="line"/>
      <point x="25" y="332"/>
      <point x="21" y="315"/>
      <point x="20" y="290" type="curve"/>
      <point x="18" y="274" type="line"/>
      <point x="17" y="258" type="line"/>
      <point x="19" y="239" type="line"/>
      <point x="25" y="221" type="line"/>
      <point x="46" y="193" type="line"/>
      <point x="80" y="168" type="line"/>
      <point x="65" y="147"/>
      <point x="51" y="118"/>
      <point x="38" y="81" type="curve" smooth="yes"/>
      <point x="26" y="48" type="line"/>
      <point x="23" y="40" type="line"/>
      <point x="22" y="39"/>
      <point x="22" y="37"/>
      <point x="22" y="34" type="curve"/>
      <point x="20" y="20" type="line"/>
      <point x="17" y="12" type="line"/>
      <point x="16" y="11"/>
      <point x="16" y="8"/>
      <point x="16" y="4" type="curve" smooth="yes"/>
      <point x="16" y="-7" type="line"/>
      <point x="15" y="-8"/>
      <point x="15" y="-13"/>
      <point x="15" y="-22" type="curve" smooth="yes"/>
      <point x="15" y="-38" type="line"/>
      <point x="16" y="-67" type="line"/>
      <point x="18" y="-92" type="line"/>
      <point x="24" y="-132" type="line"/>
      <point x="35" y="-167"/>
      <point x="55" y="-191"/>
      <point x="83" y="-206" type="curve"/>
      <point x="92" y="-213"/>
      <point x="104" y="-218"/>
      <point x="121" y="-220" type="curve" smooth="yes"/>
      <point x="137" y="-222" type="line"/>
      <point x="155" y="-224" type="line"/>
      <point x="181" y="-224" type="line"/>
      <point x="214" y="-223" type="line"/>
      <point x="243" y="-219" type="line"/>
      <point x="263" y="-215"/>
      <point x="283" y="-209"/>
      <point x="292" y="-205" type="curve"/>
      <point x="329" y="-192"/>
      <point x="372" y="-127"/>
      <point x="369" y="-106" type="curve"/>
    </contour>
    <contour>
      <point x="120.40548780487825" y="635.001524390244" type="move" name="dotAbove"/>
    </contour>
    <contour>
      <point x="117.81097560975604" y="617.8643292682927" type="move" name="markAbove"/>
    </contour>
    <contour>
      <point x="102.72256097560967" y="-284.3689024390244" type="move" name="markBelow"/>
    </contour>
    <contour>
      <point x="180" y="-1" type="move" name="dotBelow"/>
    </contour>
  </outline>
</glyph>
<glyph name="arAin.medi" format="1">
  <advance width="306"/>
  <note>
    arAin.medi
  </note>
  <outline>
    <contour>
      <point x="251" y="180" type="line"/>
      <point x="264" y="213" type="line"/>
      <point x="275" y="238"/>
      <point x="281" y="256"/>
      <point x="282" y="267" type="curve"/>
      <point x="265" y="350"/>
      <point x="219" y="391"/>
      <point x="160" y="391" type="curve" smooth="yes"/>
      <point x="126" y="391"/>
      <point x="92" y="378"/>
      <point x="59" y="351" type="curve"/>
      <point x="36" y="288" type="line" smooth="yes"/>
      <point x="25" y="259"/>
      <point x="18" y="238"/>
      <point x="15" y="225" type="curve"/>
      <point x="29" y="226" type="line"/>
      <point x="50" y="227" type="line"/>
      <point x="67" y="225" type="line"/>
      <point x="84" y="218" type="line"/>
      <point x="92" y="214" type="line"/>
      <point x="98" y="208" type="line"/>
      <point x="105" y="200" type="line"/>
      <point x="110" y="193"/>
      <point x="114" y="187"/>
      <point x="117" y="180" type="curve"/>
      <point x="-3" y="180" type="line"/>
      <point x="-3" y="0" type="line"/>
      <point x="137" y="0" type="line"/>
      <point x="160" y="68" type="line"/>
      <point x="164" y="61"/>
      <point x="168" y="51"/>
      <point x="172" y="37" type="curve"/>
      <point x="183" y="9" type="line"/>
      <point x="187" y="0" type="line"/>
      <point x="310" y="0" type="line"/>
      <point x="310" y="180" type="line"/>
    </contour>
    <contour>
      <point x="144.2057926829268" y="530.907012195122" type="move" name="dotAbove"/>
    </contour>
    <contour>
      <point x="44.94817073170748" y="578.9420731707316" type="move" name="markAbove"/>
    </contour>
    <contour>
      <point x="139.32621951219494" y="-112.43292682926835" type="move" name="markBelow"/>
    </contour>
    <contour>
      <point x="139" y="-130" type="move" name="dotBelow"/>
    </contour>
  </outline>
</glyph>
<glyph name="arAlef.fina" format="1">
  <advance width="322"/>
  <note>
    arAlef.fina
  </note>
  <outline>
    <contour>
      <point x="164" y="180" type="line"/>
      <point x="160" y="252" type="line"/>
      <point x="160" y="273" type="line"/>
      <point x="159" y="297" type="line"/>
      <point x="151" y="414" type="line"/>
      <point x="148" y="489" type="line"/>
      <point x="148" y="513" type="line"/>
      <point x="147" y="537" type="line"/>
      <point x="146" y="554" type="line"/>
      <point x="144" y="568" type="line"/>
      <point x="137" y="582" type="line"/>
      <point x="134" y="586" type="line"/>
      <point x="125" y="577"/>
      <point x="112" y="560"/>
      <point x="94" y="535" type="curve" smooth="yes"/>
      <point x="77" y="510"/>
      <point x="64" y="490"/>
      <point x="56" y="475" type="curve"/>
      <point x="59" y="414" type="line"/>
      <point x="60" y="377" type="line"/>
      <point x="61" y="338" type="line"/>
      <point x="65" y="286" type="line"/>
      <point x="66" y="283"/>
      <point x="67" y="277"/>
      <point x="67" y="266" type="curve"/>
      <point x="68" y="245" type="line"/>
      <point x="68" y="239" type="line"/>
      <point x="68" y="232" type="line"/>
      <point x="69" y="199" type="line"/>
      <point x="71" y="170" type="line"/>
      <point x="74" y="69" type="line"/>
      <point x="76" y="12" type="line"/>
      <point x="77" y="0"/>
      <point x="82" y="0"/>
      <point x="98" y="0" type="curve" smooth="yes"/>
      <point x="322" y="0" type="line"/>
      <point x="322" y="180" type="line"/>
    </contour>
    <contour>
      <point x="117" y="628" type="move" name="hamzaAbove"/>
    </contour>
    <contour>
      <point x="117" y="688" type="move" name="markAbove"/>
    </contour>
    <contour>
      <point x="97" y="-51" type="move" name="hamzaBelow"/>
    </contour>
    <contour>
      <point x="108.39024390243912" y="-93.41158536585363" type="move" name="markBelow"/>
    </contour>
    <contour>
      <point x="118.55182926829275" y="663.9939024390244" type="move" name="dotAbove"/>
    </contour>
    <contour>
      <point x="74" y="-76" type="move" name="dotBelow"/>
    </contour>
  </outline>
</glyph>
<glyph name="arAlef.isol" format="1">
  <advance width="207"/>
  <note>
    arAlef.isol
  </note>
  <outline>
    <contour>
      <point x="179" y="145" type="line"/>
      <point x="179" y="152" type="line"/>
      <point x="180" y="204" type="line"/>
      <point x="177" y="282" type="line"/>
      <point x="176" y="306" type="line"/>
      <point x="176" y="333" type="line"/>
      <point x="173" y="369" type="line"/>
      <point x="172" y="386" type="line"/>
      <point x="172" y="403" type="line"/>
      <point x="165" y="485" type="line"/>
      <point x="161" y="522" type="line"/>
      <point x="159" y="547" type="line"/>
      <point x="159" y="566" type="line"/>
      <point x="151" y="577" type="line"/>
      <point x="104" y="487" type="line"/>
      <point x="73" y="426" type="line"/>
      <point x="76" y="374" type="line"/>
      <point x="83" y="294" type="line"/>
      <point x="100" y="127" type="line"/>
      <point x="106" y="89"/>
      <point x="109" y="44"/>
      <point x="109" y="-8" type="curve"/>
      <point x="118" y="-14" type="line"/>
      <point x="160" y="66" type="line" smooth="yes"/>
      <point x="168" y="81"/>
      <point x="172" y="95"/>
      <point x="175" y="119" type="curve"/>
      <point x="178" y="135" type="line"/>
    </contour>
    <contour>
      <point x="110.21189024390242" y="587.6158536585365" type="move" name="hamzaAbove"/>
    </contour>
    <contour>
      <point x="106.67987804878044" y="643.126524390244" type="move" name="markAbove"/>
    </contour>
    <contour>
      <point x="119" y="-54" type="move" name="hamzaBelow"/>
    </contour>
    <contour>
      <point x="120" y="-93" type="move" name="markBelow"/>
    </contour>
    <contour>
      <point x="144" y="630" type="move" name="dotAbove"/>
    </contour>
    <contour>
      <point x="102" y="-65" type="move" name="dotBelow"/>
    </contour>
  </outline>
</glyph>
<glyph name="arAlefShort.isol" format="1">
  <advance width="207"/>
  <note>
    arAlefShort.isol
  </note>
  <outline>
    <contour>
      <point x="175" y="144"/>
      <point x="177" y="174"/>
      <point x="177" y="210" type="curve"/>
      <point x="174" y="276" type="line"/>
      <point x="173" y="299" type="line"/>
      <point x="173" y="323" type="line"/>
      <point x="170" y="373" type="line"/>
      <point x="163" y="453" type="line"/>
      <point x="156" y="534" type="line"/>
      <point x="148" y="544" type="line"/>
      <point x="101" y="455" type="line"/>
      <point x="70" y="394" type="line"/>
      <point x="70" y="377"/>
      <point x="73" y="340"/>
      <point x="79" y="283" type="curve" smooth="yes"/>
      <point x="88" y="198" type="line"/>
      <point x="96" y="120" type="line" smooth="yes"/>
      <point x="102" y="65"/>
      <point x="105" y="22"/>
      <point x="105" y="-8" type="curve"/>
      <point x="113" y="-14" type="line"/>
      <point x="156" y="66" type="line"/>
      <point x="163" y="81"/>
      <point x="168" y="98"/>
      <point x="171" y="119" type="curve" smooth="yes"/>
    </contour>
    <contour>
      <point x="146" y="650" type="move" name="markAbove"/>
    </contour>
    <contour>
      <point x="147" y="581" type="move" name="hamzaAbove"/>
    </contour>
    <contour>
      <point x="106" y="-54" type="move" name="hamzaBelow"/>
    </contour>
    <contour>
      <point x="104.32621951219517" y="-108.45426829268308" type="move" name="markBelow"/>
    </contour>
    <contour>
      <point x="105.36585365853648" y="-78.14329268292681" type="move" name="dotBelow"/>
    </contour>
    <contour>
      <point x="146.31707317073165" y="617.0792682926829" type="move" name="dotAbove"/>
    </contour>
  </outline>
</glyph>
<glyph name="arBeh.init" format="1">
  <advance width="262"/>
  <note>
    arBeh.init
  </note>
  <outline>
    <contour>
      <point x="210" y="41"/>
      <point x="225" y="83"/>
      <point x="234" y="125" type="curve" smooth="yes"/>
      <point x="243" y="167"/>
      <point x="248" y="209"/>
      <point x="248" y="256" type="curve" smooth="yes"/>
      <point x="248" y="269"/>
      <point x="244" y="292"/>
      <point x="237" y="318" type="curve"/>
      <point x="229" y="344"/>
      <point x="219" y="371"/>
      <point x="208" y="395" type="curve" smooth="yes"/>
      <point x="196" y="419"/>
      <point x="184" y="435"/>
      <point x="172" y="442" type="curve"/>
      <point x="161" y="426"/>
      <point x="149" y="400"/>
      <point x="137" y="373" type="curve" smooth="yes"/>
      <point x="125" y="346"/>
      <point x="114" y="320"/>
      <point x="109" y="304" type="curve"/>
      <point x="112" y="300"/>
      <point x="116" y="293"/>
      <point x="123" y="284" type="curve" smooth="yes"/>
      <point x="130" y="275"/>
      <point x="137" y="264"/>
      <point x="144" y="253" type="curve" smooth="yes"/>
      <point x="158" y="230"/>
      <point x="170" y="207"/>
      <point x="170" y="194" type="curve" smooth="yes"/>
      <point x="170" y="191"/>
      <point x="170" y="189"/>
      <point x="170" y="186" type="curve" smooth="yes"/>
      <point x="170" y="183"/>
      <point x="169" y="181"/>
      <point x="166" y="180" type="curve"/>
      <point x="-2.0" y="180.0" type="line"/>
      <point x="-2.0" y="0.0" type="line"/>
      <point x="190" y="0" type="line"/>
    </contour>
    <contour>
      <point x="75.71646341463384" y="563.0121951219512" type="move" name="dotAbove"/>
    </contour>
    <contour>
      <point x="99.56707317073165" y="503.1189024390244" type="move" name="smallVAbove"/>
    </contour>
    <contour>
      <point x="156.16158536585363" y="549.7317073170732" type="move" name="markAbove"/>
    </contour>
    <contour>
      <point x="40.44817073170748" y="430.8384146341464" type="move" name="hamzaAbove"/>
    </contour>
    <contour>
      <point x="105.68597560975604" y="-130.44512195121933" type="move" name="dotBelow"/>
    </contour>
    <contour>
      <point x="142.2835365853657" y="-130.39024390243912" type="move" name="markBelow"/>
    </contour>
    <contour>
      <point x="111.79268292682923" y="-32.40243902439033" type="move" name="ringBelow"/>
    </contour>
  </outline>
</glyph>
<glyph name="arBeh.isol" format="1">
  <advance width="514"/>
  <note>
    arBeh.isol
  </note>
  <outline>
    <contour>
      <point x="490" y="280"/>
      <point x="482" y="313"/>
      <point x="471" y="346" type="curve"/>
      <point x="459" y="378"/>
      <point x="445" y="407"/>
      <point x="434" y="415" type="curve"/>
      <point x="421" y="396"/>
      <point x="411" y="375"/>
      <point x="403" y="352" type="curve" smooth="yes"/>
      <point x="394" y="328"/>
      <point x="387" y="305"/>
      <point x="380" y="284" type="curve"/>
      <point x="387" y="275"/>
      <point x="396" y="255"/>
      <point x="404" y="236" type="curve" smooth="yes"/>
      <point x="412" y="217"/>
      <point x="418" y="197"/>
      <point x="418" y="185" type="curve"/>
      <point x="416" y="180" type="line"/>
      <point x="168" y="180" type="line" smooth="yes"/>
      <point x="149" y="180"/>
      <point x="129" y="187"/>
      <point x="114" y="199" type="curve" smooth="yes"/>
      <point x="99" y="211"/>
      <point x="87" y="228"/>
      <point x="86" y="248" type="curve" smooth="yes"/>
      <point x="85" y="261"/>
      <point x="84" y="275"/>
      <point x="84" y="288" type="curve" smooth="yes"/>
      <point x="84" y="319"/>
      <point x="89" y="347"/>
      <point x="94" y="376" type="curve"/>
      <point x="80" y="375" type="line"/>
      <point x="71" y="366"/>
      <point x="61" y="347"/>
      <point x="53" y="324" type="curve" smooth="yes"/>
      <point x="45" y="301"/>
      <point x="38" y="275"/>
      <point x="34" y="251" type="curve" smooth="yes"/>
      <point x="29" y="226"/>
      <point x="26" y="204"/>
      <point x="26" y="189" type="curve" smooth="yes"/>
      <point x="26" y="146" type="line" smooth="yes"/>
      <point x="26" y="107"/>
      <point x="34" y="70"/>
      <point x="54" y="43" type="curve" smooth="yes"/>
      <point x="73" y="16"/>
      <point x="102" y="0"/>
      <point x="145" y="0" type="curve" smooth="yes"/>
      <point x="438" y="0" type="line"/>
      <point x="451" y="35"/>
      <point x="465" y="70"/>
      <point x="475" y="105" type="curve" smooth="yes"/>
      <point x="485" y="140"/>
      <point x="490" y="176"/>
      <point x="490" y="215" type="curve" smooth="yes"/>
      <point x="490" y="264" type="line" smooth="yes"/>
    </contour>
    <contour>
      <point x="150.85213414634154" y="498.30182926829275" type="move" name="markAbove"/>
    </contour>
    <contour>
      <point x="241.51524390243912" y="474.17987804878067" type="move" name="dotAbove"/>
    </contour>
    <contour>
      <point x="271.7271341463413" y="-127.81554878048769" type="move" name="dotBelow"/>
    </contour>
    <contour>
      <point x="161.15548780487802" y="-89.72713414634154" type="move" name="markBelow"/>
    </contour>
  </outline>
</glyph>
<glyph name="arBeh.medi" format="1">
  <advance width="295"/>
  <note>
    arBeh.medi
  </note>
  <outline>
    <contour>
      <point x="210" y="180"/>
      <point x="207" y="189"/>
      <point x="205" y="198" type="curve" smooth="yes"/>
      <point x="203" y="207"/>
      <point x="202" y="218"/>
      <point x="202" y="222" type="curve" smooth="yes"/>
      <point x="202" y="232"/>
      <point x="203" y="245"/>
      <point x="204" y="260" type="curve" smooth="yes"/>
      <point x="205" y="275"/>
      <point x="205" y="290"/>
      <point x="205" y="306" type="curve" smooth="yes"/>
      <point x="205" y="338"/>
      <point x="202" y="368"/>
      <point x="191" y="383" type="curve"/>
      <point x="162" y="350"/>
      <point x="134" y="319"/>
      <point x="107" y="284" type="curve"/>
      <point x="107" y="276"/>
      <point x="107" y="268"/>
      <point x="107" y="259" type="curve" smooth="yes"/>
      <point x="107" y="250"/>
      <point x="107" y="241"/>
      <point x="107" y="232" type="curve" smooth="yes"/>
      <point x="107" y="213"/>
      <point x="108" y="196"/>
      <point x="113" y="180" type="curve"/>
      <point x="-2" y="180" type="line"/>
      <point x="-2" y="0" type="line"/>
      <point x="92" y="0" type="line"/>
      <point x="104" y="21"/>
      <point x="116" y="42"/>
      <point x="125" y="65" type="curve"/>
      <point x="128" y="56"/>
      <point x="135" y="40"/>
      <point x="144" y="26" type="curve" smooth="yes"/>
      <point x="153" y="12"/>
      <point x="165" y="0"/>
      <point x="178" y="0" type="curve" smooth="yes"/>
      <point x="298" y="0" type="line"/>
      <point x="298" y="180" type="line"/>
      <point x="218" y="180" type="line" smooth="yes"/>
    </contour>
    <contour>
      <point x="85.64481707317077" y="510.97103658536594" type="move" name="dotAbove"/>
    </contour>
    <contour>
      <point x="65.80487804878044" y="475.2271341463413" type="move" name="smallVAbove"/>
    </contour>
    <contour>
      <point x="100.16158536585363" y="553.1280487804879" type="move" name="markAbove"/>
    </contour>
    <contour>
      <point x="157.90548780487802" y="-142.38871951219494" type="move" name="dotBelow"/>
    </contour>
    <contour>
      <point x="94.48018292682923" y="-146.39176829268285" type="move" name="markBelow"/>
    </contour>
    <contour>
      <point x="71" y="493" type="move" name="hamzaAbove"/>
    </contour>
    <contour>
      <point x="213.94054878048792" y="-28.548780487804834" type="move" name="ringBelow"/>
    </contour>
    <contour>
      <point x="40.352134146341314" y="343.8033536585367" type="move" name="hamzaAbove"/>
    </contour>
  </outline>
</glyph>
<glyph name="arFeh.init" format="1">
  <advance width="291"/>
  <note>
    arFeh.init
  </note>
  <outline>
    <contour>
      <point x="275" y="255"/>
      <point x="271" y="288"/>
      <point x="263" y="325" type="curve" smooth="yes"/>
      <point x="255" y="362"/>
      <point x="244" y="404"/>
      <point x="226" y="436" type="curve" smooth="yes"/>
      <point x="208" y="468"/>
      <point x="186" y="491"/>
      <point x="158" y="491" type="curve" smooth="yes"/>
      <point x="147" y="491"/>
      <point x="132" y="484"/>
      <point x="123" y="480" type="curve"/>
      <point x="76" y="436" type="line" smooth="yes"/>
      <point x="69" y="429"/>
      <point x="60" y="415"/>
      <point x="51" y="396" type="curve" smooth="yes"/>
      <point x="42" y="377"/>
      <point x="32" y="356"/>
      <point x="25" y="336" type="curve" smooth="yes"/>
      <point x="18" y="315"/>
      <point x="13" y="296"/>
      <point x="13" y="285" type="curve" smooth="yes"/>
      <point x="13" y="261"/>
      <point x="23" y="240"/>
      <point x="39" y="225" type="curve" smooth="yes"/>
      <point x="55" y="209"/>
      <point x="77" y="200"/>
      <point x="100" y="200" type="curve" smooth="yes"/>
      <point x="120" y="200"/>
      <point x="137" y="205"/>
      <point x="151" y="216" type="curve" smooth="yes"/>
      <point x="165" y="227"/>
      <point x="175" y="240"/>
      <point x="187" y="257" type="curve"/>
      <point x="190" y="252"/>
      <point x="195" y="240"/>
      <point x="199" y="228" type="curve" smooth="yes"/>
      <point x="203" y="216"/>
      <point x="206" y="203"/>
      <point x="206" y="198" type="curve"/>
      <point x="205" y="182" type="line"/>
      <point x="201" y="180" type="line"/>
      <point x="-2" y="180" type="line"/>
      <point x="-2" y="0" type="line"/>
      <point x="252" y="0" type="line"/>
      <point x="263" y="49"/>
      <point x="268" y="85"/>
      <point x="271" y="121" type="curve" smooth="yes"/>
      <point x="274" y="156"/>
      <point x="275" y="193"/>
      <point x="275" y="242" type="curve" smooth="yes"/>
    </contour>
    <contour>
      <point x="153" y="328"/>
      <point x="146" y="325"/>
      <point x="138" y="325" type="curve" smooth="yes"/>
      <point x="130" y="325" type="line" smooth="yes"/>
      <point x="110" y="325"/>
      <point x="89" y="334"/>
      <point x="80" y="353" type="curve"/>
      <point x="80" y="360"/>
      <point x="87" y="366"/>
      <point x="92" y="370" type="curve"/>
      <point x="116" y="378" type="line"/>
      <point x="123" y="377" type="line"/>
      <point x="138" y="364"/>
      <point x="152" y="349"/>
      <point x="160" y="332" type="curve"/>
    </contour>
    <contour>
      <point x="93.08841463414637" y="605.1051829268292" type="move" name="dotAbove"/>
    </contour>
    <contour>
      <point x="76.71493902439033" y="711.3292682926829" type="move" name="markAbove"/>
    </contour>
    <contour>
      <point x="135.8932926829268" y="-106.75914634146329" type="move" name="markBelow"/>
    </contour>
    <contour>
      <point x="131" y="-130" type="move" name="dotBelow"/>
    </contour>
  </outline>
</glyph>
<glyph name="arFeh.isol" format="1">
  <advance width="536"/>
  <note>
    arFeh.isol
  </note>
  <outline>
    <contour>
      <point x="520" y="261"/>
      <point x="515" y="296"/>
      <point x="507" y="333" type="curve" smooth="yes"/>
      <point x="498" y="369"/>
      <point x="483" y="410"/>
      <point x="466" y="440" type="curve" smooth="yes"/>
      <point x="449" y="470"/>
      <point x="427" y="491"/>
      <point x="402" y="491" type="curve" smooth="yes"/>
      <point x="379" y="491"/>
      <point x="356" y="475"/>
      <point x="334" y="451" type="curve" smooth="yes"/>
      <point x="312" y="427"/>
      <point x="294" y="395"/>
      <point x="280" y="364" type="curve" smooth="yes"/>
      <point x="266" y="333"/>
      <point x="257" y="305"/>
      <point x="257" y="285" type="curve" smooth="yes"/>
      <point x="257" y="261"/>
      <point x="267" y="240"/>
      <point x="283" y="225" type="curve" smooth="yes"/>
      <point x="299" y="209"/>
      <point x="321" y="200"/>
      <point x="344" y="200" type="curve" smooth="yes"/>
      <point x="368" y="200"/>
      <point x="383" y="206"/>
      <point x="395" y="216" type="curve" smooth="yes"/>
      <point x="407" y="226"/>
      <point x="418" y="240"/>
      <point x="431" y="257" type="curve"/>
      <point x="436" y="249"/>
      <point x="440" y="238"/>
      <point x="444" y="226" type="curve" smooth="yes"/>
      <point x="448" y="214"/>
      <point x="450" y="202"/>
      <point x="450" y="193" type="curve"/>
      <point x="449" y="182" type="line"/>
      <point x="445" y="180" type="line"/>
      <point x="158" y="180" type="line" smooth="yes"/>
      <point x="133" y="180"/>
      <point x="112" y="190"/>
      <point x="98" y="206" type="curve" smooth="yes"/>
      <point x="84" y="222"/>
      <point x="75" y="244"/>
      <point x="75" y="269" type="curve" smooth="yes"/>
      <point x="75" y="309"/>
      <point x="80" y="348"/>
      <point x="87" y="388" type="curve"/>
      <point x="73" y="387" type="line"/>
      <point x="53" y="359"/>
      <point x="39" y="319"/>
      <point x="30" y="278" type="curve" smooth="yes"/>
      <point x="21" y="237"/>
      <point x="17" y="194"/>
      <point x="17" y="159" type="curve" smooth="yes"/>
      <point x="17" y="118"/>
      <point x="22" y="78"/>
      <point x="39" y="49" type="curve" smooth="yes"/>
      <point x="56" y="20"/>
      <point x="86" y="0"/>
      <point x="135" y="0" type="curve" smooth="yes"/>
      <point x="496" y="0" type="line"/>
      <point x="505" y="44"/>
      <point x="511" y="83"/>
      <point x="515" y="121" type="curve" smooth="yes"/>
      <point x="519" y="159"/>
      <point x="520" y="197"/>
      <point x="520" y="242" type="curve" smooth="yes"/>
    </contour>
    <contour>
      <point x="397" y="328"/>
      <point x="389" y="325"/>
      <point x="382" y="325" type="curve" smooth="yes"/>
      <point x="357" y="325"/>
      <point x="337" y="330"/>
      <point x="324" y="353" type="curve"/>
      <point x="324" y="360"/>
      <point x="330" y="366"/>
      <point x="338" y="371" type="curve"/>
      <point x="345" y="375"/>
      <point x="353" y="378"/>
      <point x="360" y="378" type="curve" smooth="yes"/>
      <point x="372" y="378"/>
      <point x="381" y="371"/>
      <point x="389" y="362" type="curve"/>
      <point x="396" y="353"/>
      <point x="401" y="341"/>
      <point x="404" y="332" type="curve"/>
    </contour>
    <contour>
      <point x="155.87652439024396" y="587.4329268292684" type="move" name="markAbove"/>
    </contour>
    <contour>
      <point x="378.1189024390244" y="603.8216463414635" type="move" name="dotAbove"/>
    </contour>
    <contour>
      <point x="158.6996951219512" y="-94.97103658536571" type="move" name="markBelow"/>
    </contour>
    <contour>
      <point x="265" y="-92" type="move" name="dotBelow"/>
    </contour>
  </outline>
</glyph>
<glyph name="arFeh.medi" format="1">
  <advance width="367"/>
  <note>
    arFeh.medi
  </note>
  <outline>
    <contour>
      <point x="260" y="189"/>
      <point x="263" y="198"/>
      <point x="267" y="206" type="curve"/>
      <point x="270" y="214"/>
      <point x="274" y="222"/>
      <point x="278" y="230" type="curve"/>
      <point x="285" y="246"/>
      <point x="290" y="261"/>
      <point x="290" y="281" type="curve" smooth="yes"/>
      <point x="290" y="301"/>
      <point x="288" y="333"/>
      <point x="279" y="358" type="curve" smooth="yes"/>
      <point x="270" y="383"/>
      <point x="254" y="405"/>
      <point x="226" y="405" type="curve" smooth="yes"/>
      <point x="207" y="405"/>
      <point x="181" y="387"/>
      <point x="154" y="362" type="curve" smooth="yes"/>
      <point x="126" y="337"/>
      <point x="98" y="305"/>
      <point x="76" y="274" type="curve" smooth="yes"/>
      <point x="54" y="243"/>
      <point x="39" y="214"/>
      <point x="39" y="198" type="curve" smooth="yes"/>
      <point x="39" y="193"/>
      <point x="40" y="187"/>
      <point x="41" y="180" type="curve"/>
      <point x="-2" y="180" type="line"/>
      <point x="-2" y="0" type="line"/>
      <point x="374" y="0" type="line"/>
      <point x="374" y="180" type="line"/>
      <point x="258" y="180" type="line"/>
    </contour>
    <contour>
      <point x="200" y="185"/>
      <point x="187" y="180"/>
      <point x="175" y="180" type="curve" smooth="yes"/>
      <point x="166" y="180"/>
      <point x="149" y="186"/>
      <point x="134" y="195" type="curve"/>
      <point x="118" y="203"/>
      <point x="105" y="214"/>
      <point x="105" y="225" type="curve" smooth="yes"/>
      <point x="105" y="230"/>
      <point x="118" y="243"/>
      <point x="134" y="252" type="curve" smooth="yes"/>
      <point x="149" y="261"/>
      <point x="164" y="270"/>
      <point x="171" y="270" type="curve" smooth="yes"/>
      <point x="183" y="270"/>
      <point x="193" y="259"/>
      <point x="201" y="247" type="curve"/>
      <point x="208" y="234"/>
      <point x="211" y="219"/>
      <point x="211" y="208" type="curve" smooth="yes"/>
      <point x="211" y="205"/>
      <point x="211" y="203"/>
      <point x="210" y="201" type="curve"/>
      <point x="209" y="198"/>
      <point x="209" y="196"/>
      <point x="209" y="193" type="curve"/>
    </contour>
    <contour>
      <point x="158.9588414634145" y="526.5457317073169" type="move" name="dotAbove"/>
    </contour>
    <contour>
      <point x="160.45731707317054" y="573.0533536585367" type="move" name="markAbove"/>
    </contour>
    <contour>
      <point x="140.4939024390244" y="-111.20426829268285" type="move" name="markBelow"/>
    </contour>
    <contour>
      <point x="142" y="-130" type="move" name="dotBelow"/>
    </contour>
  </outline>
</glyph>
<glyph name="arHah.fina" format="1">
  <advance width="463"/>
  <note>
    arHah.fina
  </note>
  <outline>
    <contour>
      <point x="343" y="180" type="line" smooth="yes"/>
      <point x="332" y="180"/>
      <point x="323" y="183"/>
      <point x="314" y="188" type="curve"/>
      <point x="305" y="197" type="line"/>
      <point x="301" y="202" type="line"/>
      <point x="299" y="213" type="line"/>
      <point x="299" y="222" type="line" smooth="yes"/>
      <point x="299" y="229"/>
      <point x="300" y="236"/>
      <point x="302" y="244" type="curve"/>
      <point x="307" y="260" type="line"/>
      <point x="356" y="271" type="line"/>
      <point x="361" y="276"/>
      <point x="368" y="296"/>
      <point x="379" y="329" type="curve" smooth="yes"/>
      <point x="393" y="373" type="line"/>
      <point x="396" y="377" type="line"/>
      <point x="397" y="386" type="line"/>
      <point x="399" y="398" type="line"/>
      <point x="355" y="397" type="line"/>
      <point x="304" y="396" type="line"/>
      <point x="274" y="397" type="line"/>
      <point x="245" y="400" type="line"/>
      <point x="179" y="415" type="line"/>
      <point x="152" y="424"/>
      <point x="132" y="428"/>
      <point x="119" y="428" type="curve"/>
      <point x="101" y="426" type="line"/>
      <point x="84" y="420" type="line"/>
      <point x="48" y="384"/>
      <point x="19" y="311"/>
      <point x="19" y="247" type="curve"/>
      <point x="20" y="242" type="line"/>
      <point x="24" y="241" type="line"/>
      <point x="36" y="256" type="line"/>
      <point x="47" y="268" type="line"/>
      <point x="60" y="278" type="line"/>
      <point x="71" y="286" type="line"/>
      <point x="81" y="290" type="line"/>
      <point x="83" y="291"/>
      <point x="86" y="292"/>
      <point x="89" y="292" type="curve" smooth="yes"/>
      <point x="90" y="292"/>
      <point x="96" y="292"/>
      <point x="106" y="292" type="curve"/>
      <point x="127" y="291" type="line"/>
      <point x="157" y="288" type="line"/>
      <point x="120" y="254"/>
      <point x="87" y="210"/>
      <point x="60" y="155" type="curve"/>
      <point x="53" y="142"/>
      <point x="47" y="130"/>
      <point x="43" y="121" type="curve" smooth="yes"/>
      <point x="35" y="102"/>
      <point x="24" y="50"/>
      <point x="24" y="39" type="curve" smooth="yes"/>
      <point x="24" y="-63"/>
      <point x="36" y="-136"/>
      <point x="60" y="-179" type="curve"/>
      <point x="97" y="-228"/>
      <point x="147" y="-252"/>
      <point x="209" y="-252" type="curve"/>
      <point x="252" y="-250" type="line"/>
      <point x="294" y="-245" type="line"/>
      <point x="321" y="-240"/>
      <point x="348" y="-232"/>
      <point x="373" y="-223" type="curve"/>
      <point x="388" y="-209"/>
      <point x="403" y="-194"/>
      <point x="417" y="-178" type="curve" smooth="yes"/>
      <point x="445" y="-147" type="line"/>
      <point x="458" y="-132" type="line"/>
      <point x="459" y="-131"/>
      <point x="460" y="-128"/>
      <point x="460" y="-125" type="curve" smooth="yes"/>
      <point x="460" y="-120" type="line"/>
      <point x="453" y="-123"/>
      <point x="424" y="-124"/>
      <point x="372" y="-124" type="curve" smooth="yes"/>
      <point x="356" y="-124" type="line"/>
      <point x="285" y="-124" type="line"/>
      <point x="260" y="-121" type="line"/>
      <point x="230" y="-117" type="line" smooth="yes"/>
      <point x="181" y="-109"/>
      <point x="117" y="-88"/>
      <point x="89" y="-32" type="curve"/>
      <point x="76" y="1" type="line"/>
      <point x="72" y="20" type="line"/>
      <point x="72" y="40" type="line" smooth="yes"/>
      <point x="72" y="60"/>
      <point x="76" y="79"/>
      <point x="84" y="97" type="curve"/>
      <point x="106" y="133"/>
      <point x="122" y="158"/>
      <point x="133" y="171" type="curve"/>
      <point x="174" y="206"/>
      <point x="198" y="224"/>
      <point x="203" y="227" type="curve"/>
      <point x="228" y="237" type="line"/>
      <point x="262" y="249" type="line"/>
      <point x="259" y="242"/>
      <point x="256" y="232"/>
      <point x="254" y="218" type="curve"/>
      <point x="250" y="202" type="line"/>
      <point x="248" y="182" type="line"/>
      <point x="243" y="146" type="line"/>
      <point x="242" y="113" type="line" smooth="yes"/>
      <point x="242" y="60"/>
      <point x="267" y="0"/>
      <point x="314" y="0" type="curve" smooth="yes"/>
      <point x="465" y="0" type="line"/>
      <point x="465" y="180" type="line"/>
    </contour>
    <contour>
      <point x="109.06097560975627" y="524.0487804878048" type="move" name="dotAbove"/>
    </contour>
    <contour>
      <point x="45.914634146341314" y="575.9878048780488" type="move" name="markAbove"/>
    </contour>
    <contour>
      <point x="169.0" y="66.21951219512198" type="move" name="dotBelow"/>
    </contour>
    <contour>
      <point x="134.2621951219512" y="-317.9725609756098" type="move" name="markBelow"/>
    </contour>
    <contour>
      <point x="191" y="560" type="move" name="hamzaAbove"/>
    </contour>
  </outline>
</glyph>
<glyph name="arHah.init" format="1">
  <advance width="444"/>
  <note>
    arHah.init
  </note>
  <outline>
    <contour>
      <point x="373" y="326" type="line"/>
      <point x="323" y="335" type="line"/>
      <point x="303" y="340"/>
      <point x="282" y="349"/>
      <point x="259" y="360" type="curve" smooth="yes"/>
      <point x="173" y="404" type="line"/>
      <point x="168" y="407"/>
      <point x="163" y="408"/>
      <point x="160" y="408" type="curve" smooth="yes"/>
      <point x="147" y="408" type="line" smooth="yes"/>
      <point x="112" y="408"/>
      <point x="75" y="386"/>
      <point x="60" y="358" type="curve"/>
      <point x="29" y="310"/>
      <point x="28" y="257"/>
      <point x="28" y="221" type="curve"/>
      <point x="36" y="218" type="line"/>
      <point x="55" y="230" type="line"/>
      <point x="62" y="235"/>
      <point x="69" y="238"/>
      <point x="75" y="239" type="curve"/>
      <point x="88" y="242"/>
      <point x="101" y="244"/>
      <point x="116" y="244" type="curve"/>
      <point x="141" y="241" type="line"/>
      <point x="171" y="237" type="line"/>
      <point x="216" y="227" type="line"/>
      <point x="186" y="194" type="line"/>
      <point x="162" y="183" type="line"/>
      <point x="153" y="180" type="line"/>
      <point x="-3" y="180" type="line"/>
      <point x="-3" y="0" type="line"/>
      <point x="124" y="0" type="line"/>
      <point x="134" y="2" type="line"/>
      <point x="138" y="4" type="line"/>
      <point x="149" y="14" type="line"/>
      <point x="158" y="24"/>
      <point x="172" y="46"/>
      <point x="191" y="79" type="curve"/>
      <point x="216" y="114"/>
      <point x="235" y="138"/>
      <point x="248" y="150" type="curve" smooth="yes"/>
      <point x="293" y="191"/>
      <point x="326" y="208"/>
      <point x="383" y="208" type="curve"/>
      <point x="419" y="323" type="line"/>
      <point x="402" y="323" type="line"/>
    </contour>
    <contour>
      <point x="114.98780487804879" y="532.719512195122" type="move" name="dotAbove"/>
    </contour>
    <contour>
      <point x="138.69512195121956" y="569.1219512195123" type="move" name="markAbove"/>
    </contour>
    <contour>
      <point x="195.29268292682923" y="-88.42682926829275" type="move" name="dotBelow"/>
    </contour>
    <contour>
      <point x="155.4664634146343" y="-115.41463414634109" type="move" name="markBelow"/>
    </contour>
    <contour>
      <point x="195" y="565" type="move" name="hamzaAbove"/>
    </contour>
  </outline>
</glyph>
<glyph name="arHah.isol" format="1">
  <advance width="476"/>
  <note>
    arHah.isol
  </note>
  <outline>
    <contour>
      <point x="396" y="-85" type="line"/>
      <point x="390" y="-85" type="line"/>
      <point x="343" y="-86" type="line"/>
      <point x="294" y="-87" type="line" smooth="yes"/>
      <point x="258" y="-87"/>
      <point x="218" y="-81"/>
      <point x="175" y="-70" type="curve"/>
      <point x="135" y="-56"/>
      <point x="109" y="-36"/>
      <point x="96" y="-10" type="curve"/>
      <point x="91" y="-3"/>
      <point x="88" y="3"/>
      <point x="88" y="7" type="curve"/>
      <point x="85" y="19" type="line"/>
      <point x="85" y="32" type="line"/>
      <point x="86" y="48" type="line"/>
      <point x="89" y="62" type="line"/>
      <point x="103" y="96" type="line"/>
      <point x="114" y="120"/>
      <point x="131" y="144"/>
      <point x="152" y="168" type="curve"/>
      <point x="162" y="181"/>
      <point x="172" y="191"/>
      <point x="183" y="200" type="curve"/>
      <point x="213" y="221" type="line"/>
      <point x="226" y="228"/>
      <point x="247" y="235"/>
      <point x="274" y="243" type="curve" smooth="yes"/>
      <point x="297" y="250" type="line"/>
      <point x="300" y="252"/>
      <point x="304" y="253"/>
      <point x="308" y="253" type="curve"/>
      <point x="320" y="256" type="line"/>
      <point x="366" y="265" type="line"/>
      <point x="371" y="270"/>
      <point x="379" y="290"/>
      <point x="390" y="323" type="curve" smooth="yes"/>
      <point x="403" y="367" type="line"/>
      <point x="406" y="372" type="line"/>
      <point x="407" y="380" type="line"/>
      <point x="409" y="393" type="line"/>
      <point x="365" y="392" type="line"/>
      <point x="314" y="391" type="line"/>
      <point x="284" y="392" type="line"/>
      <point x="255" y="394" type="line"/>
      <point x="189" y="409" type="line"/>
      <point x="162" y="418"/>
      <point x="142" y="422"/>
      <point x="129" y="422" type="curve"/>
      <point x="111" y="420" type="line"/>
      <point x="94" y="414" type="line"/>
      <point x="58" y="378"/>
      <point x="29" y="306"/>
      <point x="29" y="241" type="curve"/>
      <point x="30" y="236" type="line"/>
      <point x="34" y="235" type="line"/>
      <point x="46" y="250" type="line"/>
      <point x="57" y="262" type="line"/>
      <point x="70" y="272" type="line"/>
      <point x="82" y="280" type="line"/>
      <point x="91" y="284" type="line"/>
      <point x="94" y="285"/>
      <point x="97" y="286"/>
      <point x="100" y="286" type="curve"/>
      <point x="101" y="287"/>
      <point x="106" y="287"/>
      <point x="116" y="287" type="curve"/>
      <point x="137" y="285" type="line"/>
      <point x="167" y="282" type="line"/>
      <point x="79" y="201"/>
      <point x="40" y="103"/>
      <point x="40" y="42" type="curve" smooth="yes"/>
      <point x="40" y="-142"/>
      <point x="100" y="-211"/>
      <point x="215" y="-211" type="curve"/>
      <point x="258" y="-209" type="line"/>
      <point x="300" y="-204" type="line"/>
      <point x="327" y="-199"/>
      <point x="353" y="-191"/>
      <point x="378" y="-182" type="curve"/>
      <point x="393" y="-168"/>
      <point x="408" y="-153"/>
      <point x="423" y="-137" type="curve" smooth="yes"/>
      <point x="451" y="-106" type="line"/>
      <point x="464" y="-91" type="line"/>
      <point x="465" y="-90"/>
      <point x="466" y="-87"/>
      <point x="466" y="-84" type="curve" smooth="yes"/>
      <point x="466" y="-79" type="line"/>
      <point x="427" y="-83" type="line"/>
    </contour>
    <contour>
      <point x="154" y="554" type="move" name="markAbove"/>
    </contour>
    <contour>
      <point x="154" y="522" type="move" name="dotAbove"/>
    </contour>
    <contour>
      <point x="262.19512195121933" y="78.76981707317054" type="move" name="dotBelow"/>
    </contour>
    <contour>
      <point x="131.9847560975611" y="-281.91768292682923" type="move" name="markBelow"/>
    </contour>
    <contour>
      <point x="248" y="537" type="move" name="hamzaAbove"/>
    </contour>
  </outline>
</glyph>
<glyph name="arHeh.fina" format="1">
  <advance width="419"/>
  <note>
    arHeh.fina
  </note>
  <outline>
    <contour>
      <point x="363" y="180" type="line"/>
      <point x="354" y="181"/>
      <point x="347" y="195"/>
      <point x="344" y="215" type="curve" smooth="yes"/>
      <point x="319" y="378" type="line" smooth="yes"/>
      <point x="306" y="450"/>
      <point x="297" y="495"/>
      <point x="292" y="514" type="curve"/>
      <point x="290" y="518" type="line"/>
      <point x="286" y="520" type="line"/>
      <point x="284" y="521" type="line"/>
      <point x="275" y="508"/>
      <point x="232" y="425"/>
      <point x="227" y="409" type="curve"/>
      <point x="233" y="385" type="line"/>
      <point x="238" y="368" type="line"/>
      <point x="179" y="323" type="line"/>
      <point x="132" y="286" type="line"/>
      <point x="115" y="270"/>
      <point x="105" y="260"/>
      <point x="103" y="255" type="curve"/>
      <point x="78" y="219"/>
      <point x="62" y="142"/>
      <point x="50" y="57" type="curve"/>
      <point x="71" y="55" type="line"/>
      <point x="100" y="51" type="line"/>
      <point x="138" y="44"/>
      <point x="177" y="34"/>
      <point x="216" y="23" type="curve"/>
      <point x="222" y="22" type="line"/>
      <point x="230" y="24" type="line"/>
      <point x="237" y="28" type="line" smooth="yes"/>
      <point x="242" y="31"/>
      <point x="246" y="35"/>
      <point x="248" y="40" type="curve" smooth="yes"/>
      <point x="263" y="76" type="line"/>
      <point x="281" y="125" type="line"/>
      <point x="290" y="89" type="line"/>
      <point x="298" y="59" type="line"/>
      <point x="316" y="12" type="line" smooth="yes"/>
      <point x="321" y="0"/>
      <point x="323" y="0"/>
      <point x="334" y="0" type="curve" smooth="yes"/>
      <point x="419" y="0" type="line"/>
      <point x="419" y="180" type="line"/>
    </contour>
    <contour>
      <point x="203" y="199" type="line"/>
      <point x="184" y="206"/>
      <point x="175" y="211"/>
      <point x="175" y="212" type="curve"/>
      <point x="195" y="227" type="line"/>
      <point x="218" y="245" type="line"/>
      <point x="227" y="254"/>
      <point x="233" y="261"/>
      <point x="234" y="264" type="curve"/>
      <point x="245" y="280" type="line"/>
      <point x="252" y="289" type="line"/>
      <point x="263" y="239" type="line" smooth="yes"/>
      <point x="267" y="218"/>
      <point x="269" y="203"/>
      <point x="269" y="194" type="curve"/>
      <point x="231" y="196" type="line"/>
    </contour>
    <contour>
      <point x="149.53658536585363" y="594.6951219512198" type="move" name="dotAbove"/>
    </contour>
    <contour>
      <point x="115.64939024390264" y="474.782012195122" type="move" name="hamzaAbove"/>
    </contour>
    <contour>
      <point x="101.6097560975611" y="553.185975609756" type="move" name="markAbove"/>
    </contour>
    <contour>
      <point x="149.04878048780483" y="-71.62804878048792" type="move" name="markBelow"/>
    </contour>
    <contour>
      <point x="145" y="-39" type="move" name="dotBelow"/>
    </contour>
  </outline>
</glyph>
<glyph name="arHeh.init" format="1">
  <advance width="374"/>
  <note>
    arHeh.init
  </note>
  <outline>
    <contour>
      <point x="362" y="253"/>
      <point x="320" y="324"/>
      <point x="247" y="397" type="curve" smooth="yes"/>
      <point x="233" y="412"/>
      <point x="214" y="429"/>
      <point x="191" y="450" type="curve" smooth="yes"/>
      <point x="135" y="498" type="line"/>
      <point x="127" y="483" type="line"/>
      <point x="119" y="463" type="line"/>
      <point x="111" y="438" type="line"/>
      <point x="106" y="423" type="line"/>
      <point x="104" y="415" type="line"/>
      <point x="102" y="403" type="line"/>
      <point x="102" y="393" type="line"/>
      <point x="101" y="372" type="line"/>
      <point x="84" y="359"/>
      <point x="31" y="248"/>
      <point x="31" y="179" type="curve"/>
      <point x="-7" y="179" type="line"/>
      <point x="-7" y="0" type="line"/>
      <point x="282" y="0" type="line" smooth="yes"/>
      <point x="334" y="0"/>
      <point x="362" y="109"/>
      <point x="362" y="180" type="curve" smooth="yes"/>
    </contour>
    <contour>
      <point x="278" y="171" type="line"/>
      <point x="263" y="172" type="line"/>
      <point x="250" y="175" type="line"/>
      <point x="239" y="183" type="line"/>
      <point x="235" y="186" type="line"/>
      <point x="231" y="196" type="line"/>
      <point x="231" y="207" type="line" smooth="yes"/>
      <point x="231" y="220"/>
      <point x="236" y="230"/>
      <point x="246" y="237" type="curve"/>
      <point x="247" y="238"/>
      <point x="249" y="239"/>
      <point x="252" y="239" type="curve" smooth="yes"/>
      <point x="269" y="239"/>
      <point x="295" y="193"/>
      <point x="298" y="172" type="curve"/>
      <point x="291" y="171" type="line"/>
    </contour>
    <contour>
      <point x="176" y="231"/>
      <point x="169" y="221"/>
      <point x="156" y="208" type="curve" smooth="yes"/>
      <point x="139" y="192" type="line"/>
      <point x="133" y="187" type="line"/>
      <point x="121" y="187"/>
      <point x="84" y="205"/>
      <point x="84" y="221" type="curve" smooth="yes"/>
      <point x="84" y="226"/>
      <point x="90" y="237"/>
      <point x="102" y="254" type="curve"/>
      <point x="126" y="275" type="line"/>
      <point x="135" y="282" type="line"/>
      <point x="160" y="282"/>
      <point x="176" y="255"/>
      <point x="176" y="236" type="curve" smooth="yes"/>
    </contour>
    <contour>
      <point x="133" y="601" type="move" name="markAbove"/>
    </contour>
    <contour>
      <point x="153.31707317073187" y="-118.04878048780483" type="move" name="markBelow"/>
    </contour>
    <contour>
      <point x="133" y="582" type="move" name="dotAbove"/>
    </contour>
    <contour>
      <point x="156" y="-94" type="move" name="dotBelow"/>
    </contour>
  </outline>
</glyph>
<glyph name="arHeh.isol" format="1">
  <advance width="283"/>
  <note>
    arHeh.isol
  </note>
  <outline>
    <contour>
      <point x="272" y="302"/>
      <point x="237" y="348"/>
      <point x="189" y="388" type="curve"/>
      <point x="163" y="421" type="line"/>
      <point x="140" y="404"/>
      <point x="95" y="339"/>
      <point x="95" y="304" type="curve"/>
      <point x="80" y="279" type="line"/>
      <point x="73" y="267" type="line"/>
      <point x="68" y="257" type="line"/>
      <point x="55" y="229" type="line"/>
      <point x="44" y="200" type="line"/>
      <point x="25" y="139"/>
      <point x="15" y="98"/>
      <point x="15" y="75" type="curve"/>
      <point x="16" y="57" type="line"/>
      <point x="19" y="45" type="line"/>
      <point x="29" y="30" type="line"/>
      <point x="37" y="20" type="line" smooth="yes"/>
      <point x="42" y="14"/>
      <point x="46" y="11"/>
      <point x="49" y="10" type="curve"/>
      <point x="60" y="4" type="line"/>
      <point x="68" y="2" type="line"/>
      <point x="83" y="0" type="line"/>
      <point x="102" y="0" type="line" smooth="yes"/>
      <point x="127" y="0"/>
      <point x="152" y="8"/>
      <point x="179" y="25" type="curve" smooth="yes"/>
      <point x="223" y="53"/>
      <point x="247" y="105"/>
      <point x="260" y="149" type="curve"/>
      <point x="268" y="169"/>
      <point x="272" y="196"/>
      <point x="272" y="235" type="curve" smooth="yes"/>
    </contour>
    <contour>
      <point x="185" y="176"/>
      <point x="149" y="169"/>
      <point x="132" y="169" type="curve" smooth="yes"/>
      <point x="121" y="169" type="line"/>
      <point x="110" y="171" type="line"/>
      <point x="101" y="176" type="line"/>
      <point x="93" y="183" type="line"/>
      <point x="88" y="190"/>
      <point x="86" y="197"/>
      <point x="86" y="204" type="curve" smooth="yes"/>
      <point x="86" y="212"/>
      <point x="90" y="223"/>
      <point x="99" y="236" type="curve" smooth="yes"/>
      <point x="109" y="250" type="line"/>
      <point x="119" y="262" type="line"/>
      <point x="163" y="235"/>
      <point x="184" y="215"/>
      <point x="193" y="183" type="curve"/>
    </contour>
    <contour>
      <point x="127.46036585365846" y="442.46036585365823" type="move" name="hamzaAbove"/>
    </contour>
    <contour>
      <point x="145.98170731707296" y="521.2454268292684" type="move" name="dotAbove"/>
    </contour>
    <contour>
      <point x="127.71189024390242" y="520.4359756097563" type="move" name="markAbove"/>
    </contour>
    <contour>
      <point x="80.63414634146329" y="-101.33841463414637" type="move" name="markBelow"/>
    </contour>
    <contour>
      <point x="87" y="-86" type="move" name="dotBelow"/>
    </contour>
  </outline>
</glyph>
<glyph name="arHeh.medi" format="1">
  <advance width="312"/>
  <note>
    arHeh.medi
  </note>
  <outline>
    <contour>
      <point x="228" y="180" type="line"/>
      <point x="228" y="188" type="line"/>
      <point x="231" y="202" type="line"/>
      <point x="251" y="256" type="line" smooth="yes"/>
      <point x="265" y="296"/>
      <point x="272" y="332"/>
      <point x="272" y="364" type="curve" smooth="yes"/>
      <point x="272" y="406" type="line"/>
      <point x="271" y="446" type="line"/>
      <point x="267" y="446" type="line" smooth="yes"/>
      <point x="250" y="446"/>
      <point x="231" y="438"/>
      <point x="211" y="421" type="curve" smooth="yes"/>
      <point x="179" y="393"/>
      <point x="148" y="345"/>
      <point x="113" y="284" type="curve"/>
      <point x="102" y="259"/>
      <point x="95" y="243"/>
      <point x="93" y="235" type="curve" smooth="yes"/>
      <point x="80" y="189" type="line"/>
      <point x="75" y="184" type="line"/>
      <point x="70" y="180" type="line"/>
      <point x="-5" y="180" type="line"/>
      <point x="-5" y="0" type="line"/>
      <point x="47" y="0" type="line"/>
      <point x="47" y="-16" type="line"/>
      <point x="49" y="-31" type="line"/>
      <point x="57" y="-64" type="line"/>
      <point x="76" y="-108" type="line"/>
      <point x="85" y="-125" type="line"/>
      <point x="94" y="-139" type="line"/>
      <point x="114" y="-164"/>
      <point x="139" y="-176"/>
      <point x="168" y="-176" type="curve"/>
      <point x="174" y="-175" type="line"/>
      <point x="182" y="-175" type="line"/>
      <point x="201" y="-172"/>
      <point x="218" y="-160"/>
      <point x="235" y="-137" type="curve" smooth="yes"/>
      <point x="238" y="-133"/>
      <point x="240" y="-129"/>
      <point x="243" y="-125" type="curve"/>
      <point x="249" y="-113" type="line"/>
      <point x="261" y="-86" type="line"/>
      <point x="269" y="-63" type="line"/>
      <point x="271" y="-58"/>
      <point x="272" y="-55"/>
      <point x="272" y="-52" type="curve"/>
      <point x="274" y="-43" type="line"/>
      <point x="284" y="0" type="line"/>
      <point x="316" y="0" type="line"/>
      <point x="316" y="180" type="line"/>
    </contour>
    <contour>
      <point x="215" y="319"/>
      <point x="217" y="309"/>
      <point x="217" y="304" type="curve"/>
      <point x="215" y="278" type="line"/>
      <point x="210" y="261" type="line"/>
      <point x="205" y="253"/>
      <point x="192" y="243"/>
      <point x="172" y="230" type="curve"/>
      <point x="146" y="215" type="line"/>
      <point x="139" y="212"/>
      <point x="134" y="209"/>
      <point x="129" y="208" type="curve"/>
      <point x="129" y="215" type="line"/>
      <point x="132" y="222" type="line"/>
      <point x="165" y="272" type="line"/>
      <point x="190" y="310" type="line"/>
      <point x="212" y="334" type="line"/>
    </contour>
    <contour>
      <point x="205" y="-41" type="line"/>
      <point x="194" y="-40" type="line"/>
      <point x="183" y="-37" type="line"/>
      <point x="166" y="-29" type="line"/>
      <point x="139" y="-13"/>
      <point x="128" y="10"/>
      <point x="125" y="27" type="curve"/>
      <point x="134" y="27"/>
      <point x="145" y="25"/>
      <point x="158" y="21" type="curve"/>
      <point x="173" y="15" type="line"/>
      <point x="188" y="7" type="line"/>
      <point x="207" y="-6"/>
      <point x="221" y="-24"/>
      <point x="221" y="-40" type="curve"/>
      <point x="211" y="-41" type="line"/>
    </contour>
    <contour>
      <point x="114.24085365853648" y="615.9481707317073" type="move" name="markAbove"/>
    </contour>
    <contour>
      <point x="159" y="-263" type="move" name="markBelow"/>
    </contour>
    <contour>
      <point x="124" y="585" type="move" name="dotAbove"/>
    </contour>
    <contour>
      <point x="131" y="-249" type="move" name="dotBelow"/>
    </contour>
  </outline>
</glyph>
<glyph name="arHehDo.fina" format="1">
  <advance width="421"/>
  <note>
    arHehDo.fina
  </note>
  <outline>
    <contour>
      <point x="56" y="181" type="line"/>
      <point x="40" y="186" type="line"/>
      <point x="28" y="194"/>
      <point x="21" y="200"/>
      <point x="20" y="204" type="curve"/>
      <point x="15" y="206" type="line"/>
      <point x="9" y="206" type="line"/>
      <point x="5" y="189"/>
      <point x="3" y="170"/>
      <point x="3" y="147" type="curve" smooth="yes"/>
      <point x="3" y="112"/>
      <point x="10" y="81"/>
      <point x="25" y="54" type="curve" smooth="yes"/>
      <point x="42" y="25"/>
      <point x="64" y="7"/>
      <point x="89" y="0" type="curve"/>
      <point x="102" y="0" type="line"/>
      <point x="153" y="0" type="line"/>
      <point x="153" y="-16" type="line"/>
      <point x="155" y="-31" type="line"/>
      <point x="164" y="-64" type="line"/>
      <point x="183" y="-108" type="line"/>
      <point x="191" y="-125" type="line"/>
      <point x="201" y="-139" type="line" smooth="yes"/>
      <point x="220" y="-164"/>
      <point x="245" y="-176"/>
      <point x="274" y="-176" type="curve"/>
      <point x="280" y="-175" type="line"/>
      <point x="289" y="-175" type="line"/>
      <point x="307" y="-172"/>
      <point x="324" y="-160"/>
      <point x="341" y="-137" type="curve" smooth="yes"/>
      <point x="344" y="-133"/>
      <point x="347" y="-129"/>
      <point x="350" y="-125" type="curve"/>
      <point x="355" y="-113" type="line"/>
      <point x="368" y="-86" type="line"/>
      <point x="375" y="-63" type="line"/>
      <point x="377" y="-58"/>
      <point x="378" y="-55"/>
      <point x="378" y="-52" type="curve"/>
      <point x="380" y="-43" type="line"/>
      <point x="391" y="0" type="line"/>
      <point x="422" y="0" type="line"/>
      <point x="422" y="180" type="line"/>
      <point x="334" y="180" type="line"/>
      <point x="334" y="188" type="line"/>
      <point x="337" y="202" type="line"/>
      <point x="357" y="256" type="line" smooth="yes"/>
      <point x="371" y="296"/>
      <point x="378" y="332"/>
      <point x="378" y="364" type="curve" smooth="yes"/>
      <point x="378" y="406" type="line"/>
      <point x="377" y="446" type="line"/>
      <point x="374" y="446" type="line" smooth="yes"/>
      <point x="357" y="446"/>
      <point x="338" y="438"/>
      <point x="317" y="421" type="curve"/>
      <point x="285" y="393"/>
      <point x="255" y="345"/>
      <point x="219" y="284" type="curve"/>
      <point x="208" y="260"/>
      <point x="202" y="244"/>
      <point x="199" y="235" type="curve"/>
      <point x="187" y="189" type="line"/>
      <point x="182" y="184" type="line"/>
      <point x="176" y="180" type="line"/>
      <point x="103" y="179" type="line"/>
      <point x="74" y="179" type="line"/>
    </contour>
    <contour>
      <point x="321" y="320"/>
      <point x="323" y="310"/>
      <point x="323" y="304" type="curve"/>
      <point x="321" y="278" type="line"/>
      <point x="316" y="261" type="line"/>
      <point x="311" y="253"/>
      <point x="299" y="243"/>
      <point x="278" y="230" type="curve" smooth="yes"/>
      <point x="252" y="215" type="line"/>
      <point x="246" y="212"/>
      <point x="240" y="209"/>
      <point x="235" y="208" type="curve"/>
      <point x="235" y="215" type="line"/>
      <point x="238" y="222" type="line"/>
      <point x="271" y="272" type="line"/>
      <point x="296" y="310" type="line"/>
      <point x="318" y="334" type="line"/>
    </contour>
    <contour>
      <point x="312" y="-41" type="line"/>
      <point x="300" y="-40" type="line"/>
      <point x="290" y="-37" type="line"/>
      <point x="272" y="-29" type="line"/>
      <point x="245" y="-13"/>
      <point x="234" y="10"/>
      <point x="231" y="27" type="curve"/>
      <point x="241" y="27"/>
      <point x="252" y="25"/>
      <point x="265" y="21" type="curve"/>
      <point x="279" y="15" type="line"/>
      <point x="294" y="7" type="line"/>
      <point x="314" y="-6"/>
      <point x="328" y="-24"/>
      <point x="328" y="-40" type="curve"/>
      <point x="317" y="-41" type="line"/>
    </contour>
    <contour>
      <point x="235" y="565" type="move" name="markAbove"/>
    </contour>
    <contour>
      <point x="160" y="-232" type="move" name="markBelow"/>
    </contour>
  </outline>
</glyph>
<glyph name="arKaf.init" format="1">
  <advance width="314"/>
  <note>
    arKaf.init
  </note>
  <outline>
    <contour>
      <point x="44" y="518"/>
      <point x="38" y="500"/>
      <point x="32" y="477" type="curve" smooth="yes"/>
      <point x="19" y="427" type="line" smooth="yes"/>
      <point x="10" y="387"/>
      <point x="6" y="365"/>
      <point x="7" y="361" type="curve"/>
      <point x="19" y="341" type="line"/>
      <point x="80" y="258" type="line"/>
      <point x="82" y="259"/>
      <point x="85" y="262"/>
      <point x="88" y="267" type="curve"/>
      <point x="93" y="274" type="line"/>
      <point x="141" y="234" type="line"/>
      <point x="198" y="180" type="line"/>
      <point x="0" y="180" type="line"/>
      <point x="0" y="0" type="line"/>
      <point x="258" y="0" type="line"/>
      <point x="268" y="4" type="line"/>
      <point x="271" y="8" type="line"/>
      <point x="272" y="11" type="line"/>
      <point x="274" y="15"/>
      <point x="281" y="49"/>
      <point x="292" y="114" type="curve" smooth="yes"/>
      <point x="304" y="187" type="line"/>
      <point x="295" y="209"/>
      <point x="275" y="238"/>
      <point x="244" y="275" type="curve"/>
      <point x="209" y="321" type="line"/>
      <point x="107" y="422" type="line"/>
      <point x="233" y="470" type="line" smooth="yes"/>
      <point x="263" y="481"/>
      <point x="282" y="488"/>
      <point x="290" y="492" type="curve"/>
      <point x="308" y="595" type="line"/>
      <point x="310" y="613" type="line"/>
      <point x="50" y="531" type="line"/>
    </contour>
    <contour>
      <point x="167" y="585" type="move" name="gafAbove"/>
    </contour>
    <contour>
      <point x="161" y="685" type="move" name="markAbove"/>
    </contour>
    <contour>
      <point x="131.31707317073165" y="-117.46951219512198" type="move" name="markBelow"/>
    </contour>
    <contour>
      <point x="48" y="606" type="move" name="dotAbove"/>
    </contour>
    <contour>
      <point x="131" y="-90" type="move" name="dotBelow"/>
    </contour>
  </outline>
</glyph>
<glyph name="arKaf.isol" format="1">
  <advance width="557"/>
  <note>
    arKaf.isol
  </note>
  <outline>
    <contour>
      <point x="366" y="553" type="line"/>
      <point x="351" y="549" type="line"/>
      <point x="342" y="548"/>
      <point x="336" y="545"/>
      <point x="333" y="542" type="curve"/>
      <point x="318" y="532"/>
      <point x="303" y="521"/>
      <point x="289" y="508" type="curve" smooth="yes"/>
      <point x="257" y="480"/>
      <point x="200" y="422"/>
      <point x="192" y="381" type="curve" smooth="yes"/>
      <point x="191" y="375" type="line"/>
      <point x="191" y="366"/>
      <point x="195" y="358"/>
      <point x="202" y="352" type="curve" smooth="yes"/>
      <point x="215" y="341" type="line"/>
      <point x="228" y="335" type="line" smooth="yes"/>
      <point x="236" y="331"/>
      <point x="245" y="329"/>
      <point x="255" y="329" type="curve"/>
      <point x="267" y="330" type="line"/>
      <point x="264" y="323" type="line"/>
      <point x="259" y="319" type="line" smooth="yes"/>
      <point x="253" y="314"/>
      <point x="241" y="309"/>
      <point x="222" y="302" type="curve" smooth="yes"/>
      <point x="196" y="292" type="line"/>
      <point x="167" y="282" type="line"/>
      <point x="165" y="277" type="line"/>
      <point x="168" y="273" type="line"/>
      <point x="175" y="269" type="line"/>
      <point x="191" y="263" type="line"/>
      <point x="205" y="259"/>
      <point x="219" y="257"/>
      <point x="234" y="257" type="curve" smooth="yes"/>
      <point x="243" y="257"/>
      <point x="252" y="258"/>
      <point x="261" y="260" type="curve"/>
      <point x="313" y="275"/>
      <point x="337" y="302"/>
      <point x="352" y="354" type="curve" smooth="yes"/>
      <point x="355" y="365"/>
      <point x="356" y="375"/>
      <point x="356" y="384" type="curve" smooth="yes"/>
      <point x="356" y="400"/>
      <point x="346" y="417"/>
      <point x="337" y="417" type="curve"/>
      <point x="334" y="418"/>
      <point x="332" y="419"/>
      <point x="329" y="419" type="curve"/>
      <point x="322" y="420" type="line"/>
      <point x="313" y="419" type="line"/>
      <point x="304" y="419" type="line"/>
      <point x="293" y="420" type="line"/>
      <point x="278" y="425" type="line"/>
      <point x="272" y="429" type="line"/>
      <point x="271" y="432" type="line"/>
      <point x="271" y="439"/>
      <point x="285" y="447"/>
      <point x="314" y="457" type="curve" smooth="yes"/>
      <point x="355" y="472" type="line"/>
      <point x="366" y="494" type="line"/>
      <point x="375" y="517" type="line"/>
      <point x="379" y="527" type="line"/>
      <point x="381" y="538" type="line"/>
      <point x="383" y="553" type="line"/>
      <point x="377" y="554" type="line"/>
    </contour>
    <contour>
      <point x="530" y="344" type="line"/>
      <point x="528" y="399" type="line"/>
      <point x="527" y="423" type="line"/>
      <point x="527" y="450"/>
      <point x="524" y="484"/>
      <point x="519" y="524" type="curve" smooth="yes"/>
      <point x="510" y="587" type="line"/>
      <point x="501" y="590" type="line"/>
      <point x="470" y="529" type="line"/>
      <point x="439" y="466" type="line"/>
      <point x="447" y="375" type="line"/>
      <point x="461" y="245" type="line"/>
      <point x="469" y="180" type="line"/>
      <point x="97" y="180" type="line" smooth="yes"/>
      <point x="89" y="180"/>
      <point x="81" y="185"/>
      <point x="74" y="196" type="curve"/>
      <point x="67" y="205" type="line"/>
      <point x="64" y="214" type="line"/>
      <point x="58" y="234" type="line"/>
      <point x="55" y="253"/>
      <point x="54" y="267"/>
      <point x="54" y="276" type="curve"/>
      <point x="55" y="295" type="line"/>
      <point x="57" y="316" type="line"/>
      <point x="62" y="358" type="line"/>
      <point x="57" y="365" type="line"/>
      <point x="52" y="358"/>
      <point x="49" y="350"/>
      <point x="46" y="341" type="curve" smooth="yes"/>
      <point x="41" y="325" type="line"/>
      <point x="36" y="311"/>
      <point x="31" y="294"/>
      <point x="27" y="275" type="curve" smooth="yes"/>
      <point x="19" y="242" type="line"/>
      <point x="15" y="210" type="line" smooth="yes"/>
      <point x="12" y="191"/>
      <point x="11" y="169"/>
      <point x="11" y="145" type="curve" smooth="yes"/>
      <point x="11" y="73"/>
      <point x="66" y="0"/>
      <point x="110" y="0" type="curve" smooth="yes"/>
      <point x="507" y="0" type="line" smooth="yes"/>
      <point x="515" y="0"/>
      <point x="523" y="26"/>
      <point x="530" y="78" type="curve" smooth="yes"/>
      <point x="536" y="116" type="line"/>
      <point x="537" y="118"/>
      <point x="537" y="121"/>
      <point x="537" y="125" type="curve" smooth="yes"/>
      <point x="537" y="132" type="line"/>
      <point x="539" y="163" type="line"/>
      <point x="540" y="182" type="line"/>
      <point x="536" y="243" type="line"/>
    </contour>
    <contour>
      <point x="252" y="575" type="move" name="markAbove"/>
    </contour>
    <contour>
      <point x="166.27439024390242" y="-91.62804878048792" type="move" name="markBelow"/>
    </contour>
    <contour>
      <point x="202" y="-102" type="move" name="dotBelow"/>
    </contour>
    <contour>
      <point x="247" y="620" type="move" name="dotAbove"/>
    </contour>
  </outline>
</glyph>
<glyph name="arKeheh.fina" format="1">
  <advance width="630"/>
  <note>
    arKeheh.fina
  </note>
  <outline>
    <contour>
      <point x="592" y="180" type="line" smooth="yes"/>
      <point x="572" y="180"/>
      <point x="547" y="202"/>
      <point x="518" y="245" type="curve"/>
      <point x="493" y="278" type="line"/>
      <point x="484" y="291"/>
      <point x="473" y="303"/>
      <point x="462" y="314" type="curve"/>
      <point x="455" y="324"/>
      <point x="436" y="344"/>
      <point x="405" y="374" type="curve" smooth="yes"/>
      <point x="377" y="403" type="line"/>
      <point x="360" y="423" type="line"/>
      <point x="535" y="490" type="line"/>
      <point x="539" y="495"/>
      <point x="561" y="589"/>
      <point x="561" y="612" type="curve"/>
      <point x="494" y="594" type="line"/>
      <point x="305" y="532" type="line"/>
      <point x="293" y="507"/>
      <point x="261" y="370"/>
      <point x="261" y="365" type="curve"/>
      <point x="264" y="356"/>
      <point x="277" y="336"/>
      <point x="300" y="303" type="curve" smooth="yes"/>
      <point x="333" y="258" type="line"/>
      <point x="341" y="267" type="line"/>
      <point x="348" y="277" type="line"/>
      <point x="448" y="180" type="line"/>
      <point x="161" y="180" type="line"/>
      <point x="138" y="183"/>
      <point x="119" y="190"/>
      <point x="104" y="203" type="curve"/>
      <point x="89" y="218"/>
      <point x="81" y="236"/>
      <point x="79" y="257" type="curve"/>
      <point x="77" y="269" type="line"/>
      <point x="79" y="304" type="line"/>
      <point x="81" y="329" type="line"/>
      <point x="90" y="388" type="line"/>
      <point x="76" y="387" type="line"/>
      <point x="60" y="363"/>
      <point x="43" y="321"/>
      <point x="33" y="278" type="curve" smooth="yes"/>
      <point x="23" y="234"/>
      <point x="20" y="198"/>
      <point x="20" y="159" type="curve" smooth="yes"/>
      <point x="20" y="126"/>
      <point x="23" y="98"/>
      <point x="28" y="77" type="curve"/>
      <point x="45" y="28"/>
      <point x="82" y="0"/>
      <point x="138" y="0" type="curve" smooth="yes"/>
      <point x="466" y="0" type="line"/>
      <point x="471" y="3"/>
      <point x="480" y="17"/>
      <point x="494" y="40" type="curve"/>
      <point x="513" y="74" type="line"/>
      <point x="521" y="37" type="line"/>
      <point x="529" y="12"/>
      <point x="538" y="0"/>
      <point x="547" y="0" type="curve" smooth="yes"/>
      <point x="634" y="0" type="line"/>
      <point x="634" y="180" type="line"/>
    </contour>
    <contour>
      <point x="404" y="582" type="move" name="gafAbove"/>
    </contour>
    <contour>
      <point x="162" y="519" type="move" name="markAbove"/>
    </contour>
    <contour>
      <point x="176.21341463414637" y="-94.49695121951208" type="move" name="markBelow"/>
    </contour>
    <contour>
      <point x="297" y="595" type="move" name="dotAbove"/>
    </contour>
    <contour>
      <point x="235" y="-94" type="move" name="dotBelow"/>
    </contour>
  </outline>
</glyph>
<glyph name="arKeheh.isol" format="1">
  <advance width="570"/>
  <note>
    arKeheh.isol
  </note>
  <outline>
    <contour>
      <point x="375" y="555" type="line"/>
      <point x="305" y="532" type="line"/>
      <point x="299" y="519"/>
      <point x="290" y="489"/>
      <point x="278" y="441" type="curve" smooth="yes"/>
      <point x="261" y="365" type="line"/>
      <point x="264" y="356"/>
      <point x="277" y="336"/>
      <point x="300" y="303" type="curve" smooth="yes"/>
      <point x="333" y="258" type="line"/>
      <point x="335" y="260" type="line"/>
      <point x="341" y="267" type="line"/>
      <point x="347" y="277" type="line"/>
      <point x="384" y="242" type="line"/>
      <point x="448" y="180" type="line"/>
      <point x="161" y="180" type="line"/>
      <point x="138" y="183"/>
      <point x="119" y="190"/>
      <point x="104" y="203" type="curve"/>
      <point x="89" y="219"/>
      <point x="81" y="237"/>
      <point x="79" y="257" type="curve" smooth="yes"/>
      <point x="78" y="269" type="line"/>
      <point x="78" y="281" type="line"/>
      <point x="79" y="304" type="line"/>
      <point x="81" y="329" type="line"/>
      <point x="90" y="388" type="line"/>
      <point x="76" y="387" type="line"/>
      <point x="67" y="374"/>
      <point x="60" y="359"/>
      <point x="52" y="339" type="curve" smooth="yes"/>
      <point x="44" y="318"/>
      <point x="38" y="297"/>
      <point x="33" y="276" type="curve" smooth="yes"/>
      <point x="23" y="233"/>
      <point x="20" y="196"/>
      <point x="20" y="159" type="curve" smooth="yes"/>
      <point x="20" y="126"/>
      <point x="23" y="98"/>
      <point x="28" y="77" type="curve"/>
      <point x="47" y="26"/>
      <point x="83" y="0"/>
      <point x="138" y="0" type="curve" smooth="yes"/>
      <point x="519" y="0" type="line"/>
      <point x="548" y="185" type="line"/>
      <point x="538" y="211"/>
      <point x="522" y="239"/>
      <point x="500" y="268" type="curve"/>
      <point x="467" y="307" type="line"/>
      <point x="424" y="354" type="line"/>
      <point x="382" y="399" type="line"/>
      <point x="361" y="422" type="line"/>
      <point x="417" y="445" type="line"/>
      <point x="495" y="475" type="line"/>
      <point x="535" y="490" type="line"/>
      <point x="539" y="497"/>
      <point x="561" y="589"/>
      <point x="561" y="612" type="curve"/>
      <point x="494" y="592" type="line"/>
    </contour>
    <contour>
      <point x="172" y="483" type="move" name="markAbove"/>
    </contour>
    <contour>
      <point x="403" y="595" type="move" name="gafAbove"/>
    </contour>
    <contour>
      <point x="158.66768292682923" y="-91.33841463414637" type="move" name="markBelow"/>
    </contour>
    <contour>
      <point x="292" y="581" type="move" name="dotAbove"/>
    </contour>
    <contour>
      <point x="230" y="-88" type="move" name="dotBelow"/>
    </contour>
  </outline>
</glyph>
<glyph name="arLam.fina" format="1">
  <advance width="444"/>
  <note>
    arLam.fina
  </note>
  <outline>
    <contour>
      <point x="398" y="180" type="line"/>
      <point x="397" y="185"/>
      <point x="395" y="194"/>
      <point x="392" y="208" type="curve" smooth="yes"/>
      <point x="389" y="221"/>
      <point x="386" y="240"/>
      <point x="384" y="265" type="curve"/>
      <point x="376" y="469" type="line"/>
      <point x="370" y="522" type="line" smooth="yes"/>
      <point x="365" y="558"/>
      <point x="360" y="581"/>
      <point x="354" y="590" type="curve"/>
      <point x="347" y="584"/>
      <point x="335" y="564"/>
      <point x="319" y="530" type="curve" smooth="yes"/>
      <point x="306" y="501" type="line"/>
      <point x="289" y="467" type="line"/>
      <point x="326" y="41" type="line"/>
      <point x="307" y="27"/>
      <point x="289" y="16"/>
      <point x="272" y="7" type="curve"/>
      <point x="248" y="-4"/>
      <point x="230" y="-7"/>
      <point x="190" y="-7" type="curve" smooth="yes"/>
      <point x="155" y="-7"/>
      <point x="129" y="0"/>
      <point x="112" y="15" type="curve"/>
      <point x="92" y="35"/>
      <point x="82" y="70"/>
      <point x="82" y="120" type="curve" smooth="yes"/>
      <point x="82" y="137"/>
      <point x="86" y="155"/>
      <point x="94" y="174" type="curve" smooth="yes"/>
      <point x="117" y="226" type="line"/>
      <point x="117" y="233"/>
      <point x="112" y="248"/>
      <point x="108" y="251" type="curve"/>
      <point x="86" y="226"/>
      <point x="66" y="186"/>
      <point x="47" y="132" type="curve"/>
      <point x="36" y="104" type="line"/>
      <point x="33" y="89" type="line" smooth="yes"/>
      <point x="31" y="78"/>
      <point x="29" y="68"/>
      <point x="26" y="57" type="curve"/>
      <point x="22" y="25"/>
      <point x="20" y="1"/>
      <point x="20" y="-16" type="curve"/>
      <point x="21" y="-39" type="line"/>
      <point x="23" y="-58" type="line"/>
      <point x="26" y="-71"/>
      <point x="30" y="-82"/>
      <point x="35" y="-91" type="curve" smooth="yes"/>
      <point x="51" y="-120"/>
      <point x="72" y="-141"/>
      <point x="98" y="-154" type="curve" smooth="yes"/>
      <point x="115" y="-163" type="line"/>
      <point x="134" y="-168" type="line"/>
      <point x="155" y="-171"/>
      <point x="169" y="-173"/>
      <point x="177" y="-173" type="curve" smooth="yes"/>
      <point x="225" y="-173"/>
      <point x="265" y="-160"/>
      <point x="300" y="-128" type="curve"/>
      <point x="340" y="-78" type="line"/>
      <point x="361" y="-36"/>
      <point x="372" y="-10"/>
      <point x="375" y="0" type="curve"/>
      <point x="448" y="0" type="line"/>
      <point x="448" y="180" type="line"/>
    </contour>
    <contour>
      <point x="342" y="638" type="move" name="smallVAbove"/>
    </contour>
    <contour>
      <point x="130.04115853658527" y="528.2743902439026" type="move" name="markAbove"/>
    </contour>
    <contour>
      <point x="157" y="-230" type="move" name="markBelow"/>
    </contour>
    <contour>
      <point x="342" y="664" type="move" name="dotAbove"/>
    </contour>
    <contour>
      <point x="163" y="-251" type="move" name="dotBelow"/>
    </contour>
  </outline>
</glyph>
<glyph name="arLam.init" format="1">
  <advance width="250"/>
  <note>
    arLam.init
  </note>
  <outline>
    <contour>
      <point x="154" y="533" type="line"/>
      <point x="149" y="539"/>
      <point x="146" y="544"/>
      <point x="145" y="549" type="curve"/>
      <point x="142" y="560" type="line"/>
      <point x="142" y="572" type="line"/>
      <point x="143" y="583" type="line"/>
      <point x="135" y="589" type="line"/>
      <point x="94" y="530"/>
      <point x="71" y="486"/>
      <point x="63" y="450" type="curve"/>
      <point x="69" y="443"/>
      <point x="75" y="434"/>
      <point x="80" y="423" type="curve"/>
      <point x="83" y="418"/>
      <point x="86" y="414"/>
      <point x="87" y="409" type="curve"/>
      <point x="91" y="398" type="line"/>
      <point x="108" y="371"/>
      <point x="122" y="272"/>
      <point x="122" y="184" type="curve"/>
      <point x="121" y="182" type="line"/>
      <point x="119" y="181" type="line"/>
      <point x="117" y="180" type="line"/>
      <point x="-4" y="180" type="line"/>
      <point x="-4" y="0" type="line"/>
      <point x="139" y="0" type="line" smooth="yes"/>
      <point x="151" y="0"/>
      <point x="159" y="7"/>
      <point x="163" y="16" type="curve" smooth="yes"/>
      <point x="168" y="27"/>
      <point x="173" y="44"/>
      <point x="177" y="67" type="curve" smooth="yes"/>
      <point x="187" y="139" type="line"/>
      <point x="189" y="156" type="line"/>
      <point x="189" y="181" type="line"/>
      <point x="186" y="238" type="line"/>
      <point x="182" y="272" type="line"/>
      <point x="180" y="297" type="line"/>
      <point x="179" y="338" type="line"/>
      <point x="245" y="441" type="line"/>
      <point x="209" y="479" type="line"/>
    </contour>
    <contour>
      <point x="120.01524390243912" y="612.2942073170732" type="move" name="smallVAbove"/>
    </contour>
    <contour>
      <point x="125.49237804878044" y="680.2637195121952" type="move" name="markAbove"/>
    </contour>
    <contour>
      <point x="88.50304878048769" y="-118.60060975609758" type="move" name="markBelow"/>
    </contour>
    <contour>
      <point x="86" y="-134" type="move" name="dotBelow"/>
    </contour>
    <contour>
      <point x="123" y="643" type="move" name="dotAbove"/>
    </contour>
  </outline>
</glyph>
<glyph name="arLam.isol" format="1">
  <advance width="423"/>
  <note>
    arLam.isol
  </note>
  <outline>
    <contour>
      <point x="413" y="490"/>
      <point x="393" y="500"/>
      <point x="356" y="515" type="curve" smooth="yes"/>
      <point x="319" y="530"/>
      <point x="299" y="541"/>
      <point x="294" y="548" type="curve" smooth="yes"/>
      <point x="292" y="551"/>
      <point x="291" y="555"/>
      <point x="290" y="559" type="curve"/>
      <point x="288" y="574" type="line"/>
      <point x="289" y="583" type="line"/>
      <point x="280" y="587" type="line"/>
      <point x="269" y="576"/>
      <point x="260" y="559"/>
      <point x="251" y="538" type="curve"/>
      <point x="241" y="510" type="line"/>
      <point x="237" y="496" type="line"/>
      <point x="235" y="484" type="line"/>
      <point x="233" y="480"/>
      <point x="232" y="472"/>
      <point x="232" y="461" type="curve" smooth="yes"/>
      <point x="231" y="432" type="line"/>
      <point x="268" y="399" type="line"/>
      <point x="271" y="374" type="line"/>
      <point x="275" y="350" type="line"/>
      <point x="276" y="323" type="line"/>
      <point x="285" y="252" type="line"/>
      <point x="290" y="217" type="line"/>
      <point x="290" y="201" type="line"/>
      <point x="292" y="165" type="line"/>
      <point x="297" y="127"/>
      <point x="299" y="86"/>
      <point x="299" y="43" type="curve" smooth="yes"/>
      <point x="299" y="36" type="line"/>
      <point x="299" y="31" type="line"/>
      <point x="292" y="6"/>
      <point x="230" y="-24"/>
      <point x="170" y="-24" type="curve"/>
      <point x="151" y="-23" type="line"/>
      <point x="135" y="-21" type="line"/>
      <point x="108" y="-6"/>
      <point x="90" y="11"/>
      <point x="83" y="30" type="curve"/>
      <point x="76" y="59"/>
      <point x="73" y="82"/>
      <point x="73" y="100" type="curve" smooth="yes"/>
      <point x="73" y="113"/>
      <point x="76" y="129"/>
      <point x="83" y="149" type="curve"/>
      <point x="98" y="187" type="line" smooth="yes"/>
      <point x="102" y="198"/>
      <point x="105" y="206"/>
      <point x="108" y="211" type="curve"/>
      <point x="95" y="218" type="line"/>
      <point x="69" y="181"/>
      <point x="51" y="149"/>
      <point x="42" y="122" type="curve" smooth="yes"/>
      <point x="33" y="97" type="line"/>
      <point x="27" y="74" type="line"/>
      <point x="17" y="30" type="line"/>
      <point x="12" y="-4" type="line"/>
      <point x="11" y="-31" type="line"/>
      <point x="11" y="-86"/>
      <point x="21" y="-128"/>
      <point x="41" y="-157" type="curve"/>
      <point x="64" y="-187"/>
      <point x="96" y="-202"/>
      <point x="138" y="-202" type="curve" smooth="yes"/>
      <point x="247" y="-202"/>
      <point x="311" y="-131"/>
      <point x="346" y="-36" type="curve"/>
      <point x="358" y="1" type="line"/>
      <point x="362" y="13" type="line"/>
      <point x="365" y="25" type="line"/>
      <point x="371" y="54" type="line" smooth="yes"/>
      <point x="372" y="59"/>
      <point x="372" y="66"/>
      <point x="372" y="75" type="curve" smooth="yes"/>
      <point x="372" y="79" type="line"/>
      <point x="369" y="104" type="line"/>
      <point x="368" y="118" type="line"/>
      <point x="368" y="130" type="line"/>
      <point x="367" y="182" type="line"/>
      <point x="358" y="292" type="line"/>
      <point x="353" y="354" type="line"/>
      <point x="374" y="359" type="line"/>
      <point x="396" y="420" type="line"/>
      <point x="417" y="485" type="line"/>
    </contour>
    <contour>
      <point x="282.0" y="621.25" type="move" name="smallVAbove"/>
    </contour>
    <contour>
      <point x="86.875" y="527.0625" type="move" name="markAbove"/>
    </contour>
    <contour>
      <point x="103.66158536585363" y="-265.42073170731703" type="move" name="markBelow"/>
    </contour>
    <contour>
      <point x="284" y="652" type="move" name="dotAbove"/>
    </contour>
    <contour>
      <point x="119" y="-283" type="move" name="dotBelow"/>
    </contour>
  </outline>
</glyph>
<glyph name="arLam.medi" format="1">
  <advance width="203"/>
  <note>
    arLam.medi
  </note>
  <outline>
    <contour>
      <point x="141" y="180" type="line"/>
      <point x="112" y="499" type="line"/>
      <point x="105" y="543" type="line"/>
      <point x="101" y="559"/>
      <point x="97" y="569"/>
      <point x="92" y="573" type="curve"/>
      <point x="87" y="571"/>
      <point x="76" y="549"/>
      <point x="57" y="507" type="curve" smooth="yes"/>
      <point x="30" y="444" type="line"/>
      <point x="33" y="430" type="line"/>
      <point x="34" y="427"/>
      <point x="35" y="423"/>
      <point x="35" y="418" type="curve"/>
      <point x="37" y="403" type="line"/>
      <point x="44" y="354" type="line"/>
      <point x="51" y="312" type="line"/>
      <point x="54" y="303"/>
      <point x="56" y="290"/>
      <point x="56" y="273" type="curve"/>
      <point x="59" y="244"/>
      <point x="61" y="216"/>
      <point x="61" y="187" type="curve"/>
      <point x="60" y="181" type="line"/>
      <point x="57" y="180" type="line"/>
      <point x="-2" y="180" type="line"/>
      <point x="-2" y="0" type="line"/>
      <point x="32" y="0" type="line"/>
      <point x="44" y="2" type="line"/>
      <point x="47" y="3"/>
      <point x="50" y="6"/>
      <point x="52" y="10" type="curve" smooth="yes"/>
      <point x="54" y="14"/>
      <point x="57" y="21"/>
      <point x="60" y="32" type="curve" smooth="yes"/>
      <point x="69" y="61" type="line"/>
      <point x="78" y="28" type="line"/>
      <point x="84" y="9"/>
      <point x="90" y="0"/>
      <point x="96" y="0" type="curve" smooth="yes"/>
      <point x="203" y="0" type="line"/>
      <point x="203" y="180" type="line"/>
    </contour>
    <contour>
      <point x="83" y="639" type="move" name="smallVAbove"/>
    </contour>
    <contour>
      <point x="79.96646341463406" y="686.6371951219517" type="move" name="markAbove"/>
    </contour>
    <contour>
      <point x="122.39329268292681" y="-121.55945121951231" type="move" name="markBelow"/>
    </contour>
    <contour>
      <point x="71" y="-141" type="move" name="dotBelow"/>
    </contour>
    <contour>
      <point x="82" y="668" type="move" name="dotAbove"/>
    </contour>
  </outline>
</glyph>
<glyph name="arMeem.fina" format="1">
  <advance width="420"/>
  <note>
    arMeem.fina
  </note>
  <outline>
    <contour>
      <point x="387" y="179" type="line"/>
      <point x="362" y="200"/>
      <point x="351" y="230"/>
      <point x="343" y="286" type="curve" smooth="yes"/>
      <point x="334" y="357" type="line"/>
      <point x="334" y="363" type="line"/>
      <point x="334" y="373" type="line"/>
      <point x="335" y="381" type="line"/>
      <point x="335" y="388"/>
      <point x="334" y="392"/>
      <point x="331" y="395" type="curve" smooth="yes"/>
      <point x="330" y="396"/>
      <point x="328" y="396"/>
      <point x="323" y="396" type="curve"/>
      <point x="303" y="394" type="line"/>
      <point x="265" y="387" type="line"/>
      <point x="244" y="381"/>
      <point x="227" y="376"/>
      <point x="213" y="372" type="curve" smooth="yes"/>
      <point x="199" y="368"/>
      <point x="188" y="364"/>
      <point x="181" y="361" type="curve"/>
      <point x="113" y="329"/>
      <point x="86" y="310"/>
      <point x="54" y="225" type="curve"/>
      <point x="46" y="208"/>
      <point x="39" y="187"/>
      <point x="33" y="163" type="curve" smooth="yes"/>
      <point x="28" y="144" type="line"/>
      <point x="24" y="128" type="line"/>
      <point x="21" y="118" type="line"/>
      <point x="21" y="117"/>
      <point x="21" y="114"/>
      <point x="21" y="110" type="curve"/>
      <point x="19" y="95" type="line"/>
      <point x="24" y="42" type="line"/>
      <point x="35" y="-33" type="line"/>
      <point x="69" y="-229" type="line"/>
      <point x="80" y="-217"/>
      <point x="89" y="-202"/>
      <point x="97" y="-184" type="curve"/>
      <point x="104" y="-166" type="line"/>
      <point x="108" y="-149" type="line"/>
      <point x="112" y="-137" type="line"/>
      <point x="113" y="-128" type="line"/>
      <point x="117" y="-110" type="line"/>
      <point x="118" y="-101" type="line"/>
      <point x="118" y="-94" type="line"/>
      <point x="115" y="-63" type="line"/>
      <point x="111" y="-26" type="line"/>
      <point x="100" y="64" type="line"/>
      <point x="94" y="130" type="line"/>
      <point x="95" y="144" type="line"/>
      <point x="100" y="171"/>
      <point x="136" y="195"/>
      <point x="157" y="199" type="curve"/>
      <point x="143" y="156" type="line"/>
      <point x="138" y="142" type="line"/>
      <point x="133" y="123" type="line"/>
      <point x="131" y="120"/>
      <point x="130" y="117"/>
      <point x="130" y="114" type="curve" smooth="yes"/>
      <point x="130" y="104" type="line"/>
      <point x="135" y="89"/>
      <point x="144" y="75"/>
      <point x="159" y="61" type="curve"/>
      <point x="188" y="40"/>
      <point x="209" y="24"/>
      <point x="223" y="15" type="curve" smooth="yes"/>
      <point x="254" y="-4" type="line"/>
      <point x="294" y="-25" type="line"/>
      <point x="344" y="-57" type="line"/>
      <point x="355" y="-46"/>
      <point x="362" y="-37"/>
      <point x="365" y="-32" type="curve"/>
      <point x="374" y="-13"/>
      <point x="380" y="-2"/>
      <point x="382" y="0" type="curve"/>
      <point x="425" y="0" type="line"/>
      <point x="425" y="179" type="line"/>
    </contour>
    <contour>
      <point x="248" y="193" type="line"/>
      <point x="231" y="205"/>
      <point x="221" y="213"/>
      <point x="217" y="218" type="curve"/>
      <point x="217" y="224"/>
      <point x="223" y="230"/>
      <point x="236" y="237" type="curve"/>
      <point x="268" y="248" type="line"/>
      <point x="272" y="246" type="line"/>
      <point x="284" y="199" type="line"/>
      <point x="290" y="169" type="line"/>
      <point x="273" y="178" type="line"/>
    </contour>
    <contour>
      <point x="278" y="529" type="move" name="markAbove"/>
    </contour>
    <contour>
      <point x="110.70426829268285" y="-286.85823170731715" type="move" name="markBelow"/>
    </contour>
    <contour>
      <point x="282" y="503" type="move" name="dotAbove"/>
    </contour>
    <contour>
      <point x="282" y="-143" type="move" name="dotBelow"/>
    </contour>
  </outline>
</glyph>
<glyph name="arMeem.isol" format="1">
  <advance width="333"/>
  <note>
    arMeem.isol
  </note>
  <outline>
    <contour>
      <point x="325" y="209"/>
      <point x="315" y="228"/>
      <point x="295" y="259" type="curve"/>
      <point x="284" y="278"/>
      <point x="274" y="294"/>
      <point x="263" y="308" type="curve" smooth="yes"/>
      <point x="258" y="314"/>
      <point x="253" y="321"/>
      <point x="248" y="328" type="curve" smooth="yes"/>
      <point x="243" y="335"/>
      <point x="237" y="341"/>
      <point x="232" y="347" type="curve" smooth="yes"/>
      <point x="219" y="363"/>
      <point x="207" y="375"/>
      <point x="198" y="382" type="curve"/>
      <point x="188" y="389"/>
      <point x="180" y="392"/>
      <point x="174" y="392" type="curve" smooth="yes"/>
      <point x="138" y="392"/>
      <point x="111" y="349"/>
      <point x="99" y="326" type="curve"/>
      <point x="91" y="313"/>
      <point x="85" y="302"/>
      <point x="80" y="287" type="curve"/>
      <point x="71" y="273"/>
      <point x="61" y="246"/>
      <point x="52" y="205" type="curve"/>
      <point x="54" y="199" type="line"/>
      <point x="57" y="195" type="line"/>
      <point x="89" y="228" type="line" smooth="yes"/>
      <point x="103" y="243"/>
      <point x="114" y="251"/>
      <point x="121" y="252" type="curve"/>
      <point x="135" y="255" type="line"/>
      <point x="140" y="255"/>
      <point x="147" y="253"/>
      <point x="154" y="248" type="curve"/>
      <point x="164" y="239" type="line"/>
      <point x="174" y="226" type="line"/>
      <point x="77" y="186"/>
      <point x="46" y="147"/>
      <point x="27" y="78" type="curve"/>
      <point x="26" y="75"/>
      <point x="25" y="73"/>
      <point x="25" y="70" type="curve" smooth="yes"/>
      <point x="25" y="58" type="line"/>
      <point x="30" y="14" type="line"/>
      <point x="42" y="-52" type="line"/>
      <point x="52" y="-124" type="line"/>
      <point x="57" y="-178" type="line"/>
      <point x="62" y="-191" type="line"/>
      <point x="69" y="-203" type="line"/>
      <point x="81" y="-185" type="line"/>
      <point x="87" y="-173" type="line"/>
      <point x="89" y="-167" type="line"/>
      <point x="94" y="-157" type="line"/>
      <point x="98" y="-149" type="line"/>
      <point x="101" y="-140" type="line"/>
      <point x="108" y="-111"/>
      <point x="111" y="-89"/>
      <point x="111" y="-72" type="curve"/>
      <point x="109" y="-32" type="line"/>
      <point x="97" y="45" type="line"/>
      <point x="132" y="64"/>
      <point x="155" y="69"/>
      <point x="183" y="69" type="curve" smooth="yes"/>
      <point x="200" y="69"/>
      <point x="217" y="66"/>
      <point x="238" y="59" type="curve" smooth="yes"/>
      <point x="260" y="52"/>
      <point x="277" y="44"/>
      <point x="289" y="35" type="curve"/>
      <point x="296" y="46"/>
      <point x="304" y="72"/>
      <point x="312" y="111" type="curve"/>
      <point x="322" y="149"/>
      <point x="327" y="177"/>
      <point x="327" y="195" type="curve"/>
      <point x="326" y="202" type="line" smooth="yes"/>
    </contour>
    <contour>
      <point x="171" y="445" type="move" name="markAbove"/>
    </contour>
    <contour>
      <point x="63.131097560975604" y="-253.42073170731703" type="move" name="markBelow"/>
    </contour>
    <contour>
      <point x="170" y="467" type="move" name="dotAbove"/>
    </contour>
    <contour>
      <point x="201" y="-25" type="move" name="dotBelow"/>
    </contour>
  </outline>
</glyph>
<glyph name="arMeem.medi" format="1">
  <advance width="333"/>
  <note>
    arMeem.medi
  </note>
  <outline>
    <contour>
      <point x="302" y="180" type="line"/>
      <point x="285" y="195"/>
      <point x="272" y="214"/>
      <point x="261" y="237" type="curve" smooth="yes"/>
      <point x="252" y="257" type="line"/>
      <point x="249" y="267" type="line"/>
      <point x="247" y="277" type="line"/>
      <point x="244" y="300"/>
      <point x="242" y="314"/>
      <point x="242" y="321" type="curve"/>
      <point x="243" y="336" type="line"/>
      <point x="242" y="345"/>
      <point x="228" y="355"/>
      <point x="217" y="355" type="curve" smooth="yes"/>
      <point x="211" y="355"/>
      <point x="205" y="354"/>
      <point x="198" y="353" type="curve"/>
      <point x="185" y="349" type="line" smooth="yes"/>
      <point x="173" y="345"/>
      <point x="161" y="340"/>
      <point x="150" y="333" type="curve" smooth="yes"/>
      <point x="99" y="301"/>
      <point x="73" y="250"/>
      <point x="64" y="219" type="curve" smooth="yes"/>
      <point x="54" y="180" type="line"/>
      <point x="-3" y="180" type="line"/>
      <point x="-3" y="0" type="line"/>
      <point x="15" y="0" type="line"/>
      <point x="25" y="2" type="line"/>
      <point x="30" y="5"/>
      <point x="34" y="9"/>
      <point x="38" y="15" type="curve"/>
      <point x="41" y="20"/>
      <point x="47" y="38"/>
      <point x="55" y="67" type="curve"/>
      <point x="58" y="76"/>
      <point x="62" y="82"/>
      <point x="67" y="83" type="curve"/>
      <point x="169" y="0" type="line"/>
      <point x="208" y="-30" type="line" smooth="yes"/>
      <point x="219" y="-38"/>
      <point x="229" y="-44"/>
      <point x="236" y="-47" type="curve"/>
      <point x="245" y="-37" type="line"/>
      <point x="247" y="-35"/>
      <point x="249" y="-31"/>
      <point x="250" y="-26" type="curve"/>
      <point x="253" y="-19"/>
      <point x="257" y="-11"/>
      <point x="260" y="0" type="curve"/>
      <point x="336" y="0" type="line"/>
      <point x="336" y="180" type="line"/>
    </contour>
    <contour>
      <point x="133" y="216" type="line"/>
      <point x="140" y="229"/>
      <point x="153" y="238"/>
      <point x="165" y="238" type="curve" smooth="yes"/>
      <point x="168" y="238"/>
      <point x="171" y="237"/>
      <point x="174" y="235" type="curve"/>
      <point x="179" y="231"/>
      <point x="183" y="223"/>
      <point x="186" y="211" type="curve"/>
      <point x="189" y="202" type="line"/>
      <point x="190" y="201"/>
      <point x="190" y="198"/>
      <point x="190" y="194" type="curve"/>
      <point x="191" y="185" type="line"/>
      <point x="191" y="178" type="line"/>
      <point x="167" y="193" type="line"/>
    </contour>
    <contour>
      <point x="146.54268292682923" y="525.0060975609756" type="move" name="markAbove"/>
    </contour>
    <contour>
      <point x="130.82012195121956" y="-137.0274390243901" type="move" name="markBelow"/>
    </contour>
    <contour>
      <point x="146" y="485" type="move" name="dotAbove"/>
    </contour>
    <contour>
      <point x="131" y="-109" type="move" name="dotBelow"/>
    </contour>
  </outline>
</glyph>
<glyph name="arNoon.fina" format="1">
  <advance width="466"/>
  <note>
    arNoon.fina
  </note>
  <outline>
    <contour>
      <point x="399" y="186"/>
      <point x="394" y="194"/>
      <point x="389" y="203" type="curve" smooth="yes"/>
      <point x="379" y="221"/>
      <point x="369" y="241"/>
      <point x="361" y="261" type="curve"/>
      <point x="356" y="271"/>
      <point x="352" y="281"/>
      <point x="348" y="290" type="curve"/>
      <point x="339" y="308"/>
      <point x="332" y="321"/>
      <point x="325" y="325" type="curve"/>
      <point x="318" y="320"/>
      <point x="310" y="308"/>
      <point x="301" y="293" type="curve" smooth="yes"/>
      <point x="292" y="278"/>
      <point x="283" y="261"/>
      <point x="276" y="246" type="curve" smooth="yes"/>
      <point x="272" y="238"/>
      <point x="268" y="231"/>
      <point x="265" y="225" type="curve"/>
      <point x="262" y="218"/>
      <point x="259" y="214"/>
      <point x="258" y="211" type="curve"/>
      <point x="262" y="203"/>
      <point x="271" y="181"/>
      <point x="282" y="155" type="curve" smooth="yes"/>
      <point x="293" y="129"/>
      <point x="304" y="98"/>
      <point x="313" y="71" type="curve" smooth="yes"/>
      <point x="321" y="44"/>
      <point x="328" y="22"/>
      <point x="328" y="11" type="curve" smooth="yes"/>
      <point x="328" y="10"/>
      <point x="328" y="8"/>
      <point x="327" y="7" type="curve"/>
      <point x="308" y="-8"/>
      <point x="292" y="-16"/>
      <point x="276" y="-22" type="curve" smooth="yes"/>
      <point x="259" y="-28"/>
      <point x="241" y="-30"/>
      <point x="217" y="-30" type="curve" smooth="yes"/>
      <point x="188" y="-30"/>
      <point x="155" y="-27"/>
      <point x="131" y="-15" type="curve" smooth="yes"/>
      <point x="107" y="-3"/>
      <point x="90" y="18"/>
      <point x="90" y="54" type="curve" smooth="yes"/>
      <point x="90" y="67"/>
      <point x="92" y="79"/>
      <point x="95" y="92" type="curve"/>
      <point x="102" y="116"/>
      <point x="112" y="140"/>
      <point x="125" y="163" type="curve" smooth="yes"/>
      <point x="131" y="174"/>
      <point x="137" y="185"/>
      <point x="142" y="196" type="curve"/>
      <point x="135" y="198" type="line"/>
      <point x="130" y="197" type="line"/>
      <point x="125" y="190"/>
      <point x="119" y="184"/>
      <point x="113" y="177" type="curve" smooth="yes"/>
      <point x="107" y="170"/>
      <point x="101" y="163"/>
      <point x="95" y="156" type="curve" smooth="yes"/>
      <point x="82" y="141"/>
      <point x="71" y="126"/>
      <point x="64" y="110" type="curve" smooth="yes"/>
      <point x="52" y="81"/>
      <point x="41" y="53"/>
      <point x="33" y="25" type="curve" smooth="yes"/>
      <point x="25" y="-4"/>
      <point x="20" y="-34"/>
      <point x="20" y="-66" type="curve" smooth="yes"/>
      <point x="20" y="-111"/>
      <point x="36" y="-143"/>
      <point x="62" y="-166" type="curve" smooth="yes"/>
      <point x="88" y="-189"/>
      <point x="125" y="-199"/>
      <point x="166" y="-199" type="curve" smooth="yes"/>
      <point x="179" y="-199"/>
      <point x="193" y="-197"/>
      <point x="210" y="-193" type="curve" smooth="yes"/>
      <point x="243" y="-185"/>
      <point x="278" y="-172"/>
      <point x="306" y="-153" type="curve" smooth="yes"/>
      <point x="334" y="-134"/>
      <point x="343" y="-117"/>
      <point x="352" y="-96" type="curve" smooth="yes"/>
      <point x="361" y="-76"/>
      <point x="370" y="-53"/>
      <point x="376" y="-30" type="curve" smooth="yes"/>
      <point x="379" y="-19"/>
      <point x="381" y="-9"/>
      <point x="384" y="0" type="curve"/>
      <point x="470" y="0" type="line"/>
      <point x="470" y="180" type="line"/>
      <point x="404" y="180" type="line"/>
    </contour>
    <contour>
      <point x="295" y="-173" type="move" name="ringBelow"/>
    </contour>
    <contour>
      <point x="178.73170731707296" y="386.42682926829275" type="move" name="dotAbove"/>
    </contour>
    <contour>
      <point x="113.75609756097538" y="312.78658536585385" type="move" name="markAbove"/>
    </contour>
    <contour>
      <point x="109.82926829268285" y="-248.77439024390253" type="move" name="markBelow"/>
    </contour>
    <contour>
      <point x="168" y="-251" type="move" name="dotBelow"/>
    </contour>
  </outline>
</glyph>
<glyph name="arNoon.isol" format="1">
  <advance width="420"/>
  <note>
    arNoon.isol
  </note>
  <outline>
    <contour>
      <point x="379" y="-30"/>
      <point x="383" y="-7"/>
      <point x="387" y="15" type="curve"/>
      <point x="390" y="37"/>
      <point x="390" y="59"/>
      <point x="390" y="78" type="curve" smooth="yes"/>
      <point x="390" y="109"/>
      <point x="386" y="141"/>
      <point x="379" y="173" type="curve" smooth="yes"/>
      <point x="372" y="204"/>
      <point x="362" y="235"/>
      <point x="353" y="263" type="curve"/>
      <point x="350" y="270"/>
      <point x="347" y="277"/>
      <point x="342" y="284" type="curve" smooth="yes"/>
      <point x="337" y="291"/>
      <point x="334" y="298"/>
      <point x="331" y="305" type="curve"/>
      <point x="325" y="300"/>
      <point x="319" y="293"/>
      <point x="313" y="283" type="curve" smooth="yes"/>
      <point x="300" y="262"/>
      <point x="287" y="237"/>
      <point x="277" y="215" type="curve" smooth="yes"/>
      <point x="272" y="204"/>
      <point x="267" y="195"/>
      <point x="264" y="190" type="curve"/>
      <point x="269" y="179"/>
      <point x="278" y="159"/>
      <point x="287" y="136" type="curve" smooth="yes"/>
      <point x="296" y="112"/>
      <point x="307" y="86"/>
      <point x="315" y="63" type="curve" smooth="yes"/>
      <point x="323" y="39"/>
      <point x="328" y="20"/>
      <point x="328" y="11" type="curve"/>
      <point x="327" y="7" type="line"/>
      <point x="295" y="-22"/>
      <point x="260" y="-30"/>
      <point x="217" y="-30" type="curve" smooth="yes"/>
      <point x="186" y="-30"/>
      <point x="155" y="-27"/>
      <point x="131" y="-15" type="curve" smooth="yes"/>
      <point x="107" y="-3"/>
      <point x="90" y="18"/>
      <point x="90" y="54" type="curve" smooth="yes"/>
      <point x="90" y="71"/>
      <point x="98" y="98"/>
      <point x="107" y="126" type="curve" smooth="yes"/>
      <point x="115" y="153"/>
      <point x="127" y="178"/>
      <point x="136" y="193" type="curve"/>
      <point x="129" y="195" type="line"/>
      <point x="124" y="194" type="line"/>
      <point x="57" y="121"/>
      <point x="21" y="41"/>
      <point x="21" y="-60" type="curve" smooth="yes"/>
      <point x="21" y="-100"/>
      <point x="36" y="-134"/>
      <point x="61" y="-157" type="curve" smooth="yes"/>
      <point x="86" y="-180"/>
      <point x="122" y="-192"/>
      <point x="162" y="-192" type="curve" smooth="yes"/>
      <point x="195" y="-192"/>
      <point x="235" y="-186"/>
      <point x="270" y="-171" type="curve" smooth="yes"/>
      <point x="305" y="-156"/>
      <point x="336" y="-133"/>
      <point x="349" y="-100" type="curve"/>
      <point x="350" y="-96"/>
      <point x="352" y="-92"/>
      <point x="355" y="-87" type="curve"/>
      <point x="357" y="-83"/>
      <point x="359" y="-78"/>
      <point x="362" y="-73" type="curve"/>
      <point x="366" y="-63"/>
      <point x="370" y="-55"/>
      <point x="371" y="-47" type="curve"/>
    </contour>
    <contour>
      <point x="195.46951219512198" y="344.71341463414615" type="move" name="markAbove"/>
    </contour>
    <contour>
      <point x="186" y="347" type="move" name="dotAbove"/>
    </contour>
    <contour>
      <point x="113.26829268292681" y="-262.2621951219512" type="move" name="markBelow"/>
    </contour>
    <contour>
      <point x="266" y="-188" type="move" name="ringBelow"/>
    </contour>
    <contour>
      <point x="155" y="-252" type="move" name="dotBelow"/>
    </contour>
  </outline>
</glyph>
<glyph name="arQaf.isol" format="1">
  <advance width="445"/>
  <note>
    arQaf.isol
  </note>
  <outline>
    <contour>
      <point x="150" y="-166"/>
      <point x="161" y="-165"/>
      <point x="172" y="-163" type="curve" smooth="yes"/>
      <point x="195" y="-159"/>
      <point x="218" y="-152"/>
      <point x="240" y="-145" type="curve"/>
      <point x="251" y="-142"/>
      <point x="261" y="-139"/>
      <point x="272" y="-136" type="curve"/>
      <point x="280" y="-133"/>
      <point x="300" y="-125"/>
      <point x="319" y="-113" type="curve"/>
      <point x="338" y="-102"/>
      <point x="355" y="-90"/>
      <point x="360" y="-83" type="curve" smooth="yes"/>
      <point x="379" y="-55"/>
      <point x="393" y="-14"/>
      <point x="403" y="27" type="curve" smooth="yes"/>
      <point x="413" y="68"/>
      <point x="418" y="111"/>
      <point x="418" y="144" type="curve" smooth="yes"/>
      <point x="418" y="181"/>
      <point x="414" y="221"/>
      <point x="405" y="259" type="curve" smooth="yes"/>
      <point x="396" y="297"/>
      <point x="381" y="333"/>
      <point x="358" y="364" type="curve" smooth="yes"/>
      <point x="349" y="377"/>
      <point x="334" y="390"/>
      <point x="317" y="390" type="curve" smooth="yes"/>
      <point x="302" y="390"/>
      <point x="290" y="379"/>
      <point x="281" y="368" type="curve" smooth="yes"/>
      <point x="258" y="340"/>
      <point x="237" y="303"/>
      <point x="222" y="264" type="curve" smooth="yes"/>
      <point x="206" y="224"/>
      <point x="197" y="183"/>
      <point x="197" y="147" type="curve" smooth="yes"/>
      <point x="197" y="126"/>
      <point x="207" y="106"/>
      <point x="223" y="91" type="curve" smooth="yes"/>
      <point x="238" y="76"/>
      <point x="259" y="67"/>
      <point x="280" y="67" type="curve" smooth="yes"/>
      <point x="289" y="67"/>
      <point x="297" y="69"/>
      <point x="304" y="73" type="curve" smooth="yes"/>
      <point x="318" y="81"/>
      <point x="329" y="93"/>
      <point x="338" y="107" type="curve"/>
      <point x="343" y="114"/>
      <point x="347" y="120"/>
      <point x="352" y="127" type="curve"/>
      <point x="357" y="111" type="line"/>
      <point x="358" y="110"/>
      <point x="359" y="108"/>
      <point x="360" y="103" type="curve" smooth="yes"/>
      <point x="361" y="98"/>
      <point x="362" y="92"/>
      <point x="363" y="87" type="curve" smooth="yes"/>
      <point x="365" y="75"/>
      <point x="366" y="63"/>
      <point x="366" y="60" type="curve" smooth="yes"/>
      <point x="366" y="56" type="line"/>
      <point x="365" y="54" type="line"/>
      <point x="342" y="26"/>
      <point x="317" y="9"/>
      <point x="289" y="-2" type="curve" smooth="yes"/>
      <point x="261" y="-13"/>
      <point x="230" y="-16"/>
      <point x="195" y="-16" type="curve" smooth="yes"/>
      <point x="167" y="-16"/>
      <point x="139" y="-7"/>
      <point x="119" y="9" type="curve"/>
      <point x="98" y="24"/>
      <point x="83" y="47"/>
      <point x="83" y="78" type="curve" smooth="yes"/>
      <point x="83" y="90"/>
      <point x="85" y="104"/>
      <point x="88" y="119" type="curve" smooth="yes"/>
      <point x="95" y="149"/>
      <point x="103" y="179"/>
      <point x="112" y="208" type="curve"/>
      <point x="117" y="222"/>
      <point x="121" y="235"/>
      <point x="124" y="247" type="curve"/>
      <point x="115" y="246" type="line"/>
      <point x="106" y="241" type="line"/>
      <point x="85" y="201"/>
      <point x="64" y="159"/>
      <point x="48" y="116" type="curve" smooth="yes"/>
      <point x="32" y="73"/>
      <point x="21" y="29"/>
      <point x="21" y="-18" type="curve" smooth="yes"/>
      <point x="21" y="-33"/>
      <point x="23" y="-51"/>
      <point x="28" y="-69" type="curve" smooth="yes"/>
      <point x="33" y="-87"/>
      <point x="40" y="-104"/>
      <point x="51" y="-116" type="curve"/>
      <point x="60" y="-128"/>
      <point x="75" y="-139"/>
      <point x="91" y="-149" type="curve" smooth="yes"/>
      <point x="106" y="-159"/>
      <point x="123" y="-166"/>
      <point x="139" y="-166" type="curve" smooth="yes"/>
    </contour>
    <contour>
      <point x="310" y="198"/>
      <point x="297" y="200"/>
      <point x="286" y="204" type="curve" smooth="yes"/>
      <point x="274" y="208"/>
      <point x="264" y="214"/>
      <point x="264" y="223" type="curve" smooth="yes"/>
      <point x="264" y="235"/>
      <point x="273" y="249"/>
      <point x="285" y="249" type="curve" smooth="yes"/>
      <point x="296" y="249"/>
      <point x="305" y="241"/>
      <point x="313" y="230" type="curve"/>
      <point x="320" y="219"/>
      <point x="324" y="207"/>
      <point x="324" y="198" type="curve"/>
      <point x="318" y="198" type="line" smooth="yes"/>
    </contour>
    <contour>
      <point x="149.96341463414637" y="462.5091463414635" type="move" name="markAbove"/>
    </contour>
    <contour>
      <point x="277.2408536585367" y="519.7103658536585" type="move" name="dotAbove"/>
    </contour>
    <contour>
      <point x="106.71646341463429" y="-263.94512195121945" type="move" name="markBelow"/>
    </contour>
    <contour>
      <point x="144.51067073170725" y="-254.8932926829268" type="move" name="dotBelow"/>
    </contour>
  </outline>
</glyph>
<glyph name="arReh.fina" format="1">
  <advance width="421"/>
  <note>
    arReh.fina
  </note>
  <outline>
    <contour>
      <point x="380" y="180" type="line"/>
      <point x="359" y="182" type="line"/>
      <point x="348" y="185" type="line"/>
      <point x="342" y="188" type="line"/>
      <point x="329" y="197"/>
      <point x="315" y="213"/>
      <point x="300" y="238" type="curve" smooth="yes"/>
      <point x="277" y="277" type="line"/>
      <point x="250" y="328" type="line"/>
      <point x="239" y="315"/>
      <point x="227" y="295"/>
      <point x="216" y="270" type="curve"/>
      <point x="195" y="232" type="line"/>
      <point x="186" y="211" type="line"/>
      <point x="201" y="187" type="line"/>
      <point x="214" y="164" type="line"/>
      <point x="235" y="124" type="line"/>
      <point x="238" y="117"/>
      <point x="241" y="110"/>
      <point x="243" y="105" type="curve"/>
      <point x="245" y="102"/>
      <point x="247" y="97"/>
      <point x="248" y="90" type="curve"/>
      <point x="251" y="77" type="line"/>
      <point x="252" y="70" type="line"/>
      <point x="252" y="65" type="line" smooth="yes"/>
      <point x="252" y="57"/>
      <point x="250" y="49"/>
      <point x="245" y="42" type="curve"/>
      <point x="236" y="28" type="line"/>
      <point x="224" y="11" type="line"/>
      <point x="208" y="-9"/>
      <point x="187" y="-30"/>
      <point x="160" y="-51" type="curve" smooth="yes"/>
      <point x="147" y="-61" type="line"/>
      <point x="136" y="-68" type="line"/>
      <point x="129" y="-73"/>
      <point x="123" y="-76"/>
      <point x="117" y="-78" type="curve"/>
      <point x="106" y="-83"/>
      <point x="90" y="-86"/>
      <point x="70" y="-86" type="curve"/>
      <point x="46" y="-84" type="line"/>
      <point x="25" y="-81" type="line"/>
      <point x="11" y="-78"/>
      <point x="-2" y="-73"/>
      <point x="-14" y="-66" type="curve"/>
      <point x="-17" y="-66"/>
      <point x="-19" y="-67"/>
      <point x="-20" y="-69" type="curve"/>
      <point x="-23" y="-73" type="line"/>
      <point x="0" y="-121"/>
      <point x="129" y="-193"/>
      <point x="165" y="-193" type="curve" smooth="yes"/>
      <point x="177" y="-193"/>
      <point x="189" y="-189"/>
      <point x="202" y="-182" type="curve" smooth="yes"/>
      <point x="223" y="-170"/>
      <point x="241" y="-148"/>
      <point x="256" y="-124" type="curve" smooth="yes"/>
      <point x="271" y="-100" type="line"/>
      <point x="278" y="-86" type="line"/>
      <point x="290" y="-63" type="line"/>
      <point x="298" y="-41" type="line"/>
      <point x="308" y="-16" type="line" smooth="yes"/>
      <point x="311" y="-9"/>
      <point x="314" y="-1"/>
      <point x="315" y="9" type="curve"/>
      <point x="317" y="8"/>
      <point x="320" y="6"/>
      <point x="323" y="5" type="curve"/>
      <point x="330" y="3" type="line" smooth="yes"/>
      <point x="337" y="1"/>
      <point x="342" y="0"/>
      <point x="346" y="0" type="curve" smooth="yes"/>
      <point x="429" y="0" type="line"/>
      <point x="429" y="180" type="line"/>
    </contour>
    <contour>
      <point x="250.63567073170725" y="434.92682926829275" type="move" name="dotAbove"/>
    </contour>
    <contour>
      <point x="247.63567073170725" y="522.0457317073171" type="move" name="markAbove"/>
    </contour>
    <contour>
      <point x="165.59603658536594" y="-239.57621951219505" type="move" name="smallVBelow"/>
    </contour>
    <contour>
      <point x="104.4375" y="-248.96036585365857" type="move" name="markBelow"/>
    </contour>
    <contour>
      <point x="173" y="-258" type="move" name="dotBelow"/>
    </contour>
  </outline>
</glyph>
<glyph name="arReh.isol" format="1">
  <advance width="338"/>
  <note>
    arReh.isol
  </note>
  <outline>
    <contour>
      <point x="308" y="187"/>
      <point x="301" y="207"/>
      <point x="295" y="221" type="curve"/>
      <point x="276" y="258"/>
      <point x="249" y="297"/>
      <point x="232" y="314" type="curve"/>
      <point x="222" y="325"/>
      <point x="215" y="332"/>
      <point x="210" y="335" type="curve"/>
      <point x="206" y="332"/>
      <point x="199" y="314"/>
      <point x="188" y="282" type="curve"/>
      <point x="180" y="264" type="line"/>
      <point x="174" y="244" type="line"/>
      <point x="169" y="225" type="line"/>
      <point x="165" y="211" type="line"/>
      <point x="194" y="176" type="line"/>
      <point x="218" y="143" type="line"/>
      <point x="234" y="118"/>
      <point x="242" y="102"/>
      <point x="243" y="95" type="curve"/>
      <point x="244" y="94"/>
      <point x="244" y="91"/>
      <point x="244" y="86" type="curve"/>
      <point x="243" y="73" type="line"/>
      <point x="239" y="61" type="line"/>
      <point x="211" y="5"/>
      <point x="125" y="-69"/>
      <point x="69" y="-69" type="curve"/>
      <point x="41" y="-67" type="line"/>
      <point x="16" y="-63" type="line"/>
      <point x="-8" y="-56" type="line"/>
      <point x="-31" y="-45" type="line"/>
      <point x="-38" y="-50" type="line"/>
      <point x="-39" y="-54" type="line"/>
      <point x="-3" y="-94"/>
      <point x="32" y="-123"/>
      <point x="65" y="-140" type="curve"/>
      <point x="98" y="-160"/>
      <point x="128" y="-170"/>
      <point x="155" y="-170" type="curve" smooth="yes"/>
      <point x="177" y="-170"/>
      <point x="201" y="-155"/>
      <point x="226" y="-125" type="curve" smooth="yes"/>
      <point x="251" y="-94"/>
      <point x="270" y="-67"/>
      <point x="286" y="-30" type="curve"/>
      <point x="302" y="-7"/>
      <point x="312" y="21"/>
      <point x="315" y="52" type="curve" smooth="yes"/>
      <point x="318" y="83" type="line"/>
      <point x="319" y="92" type="line"/>
      <point x="319" y="103" type="line"/>
      <point x="319" y="118" type="line"/>
      <point x="318" y="135" type="line"/>
      <point x="316" y="160" type="line"/>
    </contour>
    <contour>
      <point x="179.64939024390242" y="467.66463414634154" type="move" name="dotAbove"/>
    </contour>
    <contour>
      <point x="188.54725609756088" y="537.0807926829268" type="move" name="markAbove"/>
    </contour>
    <contour>
      <point x="145.9405487804877" y="-253.13262195121945" type="move" name="dotBelow"/>
    </contour>
    <contour>
      <point x="88.7439024390244" y="-307.547256097561" type="move" name="markBelow"/>
    </contour>
    <contour>
      <point x="149.24085365853648" y="-213.51067073170736" type="move" name="smallVBelow"/>
    </contour>
  </outline>
</glyph>
<glyph name="arSad.fina" format="1">
  <advance width="737"/>
  <note>
    arSad.fina
  </note>
  <outline>
    <contour>
      <point x="699" y="180" type="line"/>
      <point x="702" y="191" type="line"/>
      <point x="703" y="201" type="line"/>
      <point x="704" y="207" type="line"/>
      <point x="704" y="213" type="line"/>
      <point x="704" y="221" type="line" smooth="yes"/>
      <point x="704" y="282"/>
      <point x="670" y="328"/>
      <point x="617" y="340" type="curve"/>
      <point x="611" y="340" type="line"/>
      <point x="604" y="339"/>
      <point x="597" y="338"/>
      <point x="590" y="335" type="curve" smooth="yes"/>
      <point x="562" y="323" type="line"/>
      <point x="530" y="304" type="line"/>
      <point x="492" y="277" type="line"/>
      <point x="468" y="257" type="line"/>
      <point x="440" y="232" type="line"/>
      <point x="383" y="181" type="line"/>
      <point x="339" y="277" type="line" smooth="yes"/>
      <point x="330" y="295"/>
      <point x="323" y="305"/>
      <point x="317" y="307" type="curve"/>
      <point x="314" y="304"/>
      <point x="303" y="283"/>
      <point x="286" y="244" type="curve" smooth="yes"/>
      <point x="261" y="190" type="line"/>
      <point x="286" y="145"/>
      <point x="321" y="48"/>
      <point x="321" y="13" type="curve"/>
      <point x="319" y="1" type="line"/>
      <point x="308" y="-13"/>
      <point x="287" y="-24"/>
      <point x="257" y="-33" type="curve" smooth="yes"/>
      <point x="243" y="-37" type="line"/>
      <point x="234" y="-39" type="line"/>
      <point x="225" y="-42" type="line"/>
      <point x="214" y="-42" type="line"/>
      <point x="207" y="-43" type="line"/>
      <point x="196" y="-43" type="line"/>
      <point x="177" y="-44" type="line"/>
      <point x="172" y="-44" type="line"/>
      <point x="147" y="-42" type="line"/>
      <point x="122" y="-34"/>
      <point x="106" y="-23"/>
      <point x="98" y="-10" type="curve"/>
      <point x="90" y="5"/>
      <point x="87" y="18"/>
      <point x="87" y="38" type="curve" smooth="yes"/>
      <point x="87" y="47" type="line"/>
      <point x="89" y="68" type="line"/>
      <point x="99" y="109" type="line"/>
      <point x="105" y="137" type="line"/>
      <point x="118" y="165" type="line"/>
      <point x="136" y="202" type="line"/>
      <point x="131" y="205" type="line"/>
      <point x="126" y="204" type="line"/>
      <point x="77" y="169"/>
      <point x="7" y="32"/>
      <point x="7" y="-69" type="curve" smooth="yes"/>
      <point x="7" y="-138"/>
      <point x="50" y="-185"/>
      <point x="123" y="-198" type="curve" smooth="yes"/>
      <point x="136" y="-200" type="line"/>
      <point x="138" y="-201"/>
      <point x="141" y="-201"/>
      <point x="146" y="-201" type="curve" smooth="yes"/>
      <point x="154" y="-201" type="line" smooth="yes"/>
      <point x="184" y="-201"/>
      <point x="216" y="-194"/>
      <point x="250" y="-180" type="curve" smooth="yes"/>
      <point x="317" y="-152"/>
      <point x="338" y="-127"/>
      <point x="355" y="-78" type="curve" smooth="yes"/>
      <point x="361" y="-61" type="line"/>
      <point x="364" y="-56"/>
      <point x="365" y="-50"/>
      <point x="366" y="-43" type="curve"/>
      <point x="371" y="-21" type="line"/>
      <point x="374" y="0" type="line"/>
      <point x="739" y="0" type="line"/>
      <point x="739" y="180" type="line"/>
    </contour>
    <contour>
      <point x="497" y="209" type="line" smooth="yes"/>
      <point x="518" y="225"/>
      <point x="531" y="232"/>
      <point x="546" y="232" type="curve" smooth="yes"/>
      <point x="562" y="232"/>
      <point x="585" y="220"/>
      <point x="601" y="196" type="curve"/>
      <point x="605" y="184" type="line"/>
      <point x="604" y="180" type="line"/>
      <point x="460" y="180" type="line"/>
    </contour>
    <contour>
      <point x="506.8353658536587" y="472.2057926829268" type="move" name="dotAbove"/>
    </contour>
    <contour>
      <point x="190.6493902439022" y="401.6295731707319" type="move" name="markAbove"/>
    </contour>
    <contour>
      <point x="116.79268292682923" y="-269.3932926829268" type="move" name="markBelow"/>
    </contour>
    <contour>
      <point x="500" y="-55" type="move" name="dotBelow"/>
    </contour>
  </outline>
</glyph>
<glyph name="arSad.init" format="1">
  <advance width="543"/>
  <note>
    arSad.init
  </note>
  <outline>
    <contour>
      <point x="528" y="192"/>
      <point x="530" y="204"/>
      <point x="530" y="215" type="curve" smooth="yes"/>
      <point x="530" y="248"/>
      <point x="521" y="277"/>
      <point x="504" y="302" type="curve"/>
      <point x="482" y="329"/>
      <point x="458" y="346"/>
      <point x="433" y="352" type="curve"/>
      <point x="429" y="352" type="line" smooth="yes"/>
      <point x="414" y="352"/>
      <point x="392" y="343"/>
      <point x="363" y="330" type="curve"/>
      <point x="342" y="319"/>
      <point x="326" y="309"/>
      <point x="314" y="302" type="curve" smooth="yes"/>
      <point x="291" y="288" type="line"/>
      <point x="270" y="272" type="line"/>
      <point x="200" y="218" type="line"/>
      <point x="174" y="199" type="line"/>
      <point x="147" y="180" type="line"/>
      <point x="125" y="180" type="line"/>
      <point x="118" y="189" type="line"/>
      <point x="116" y="200" type="line"/>
      <point x="115" y="210" type="line"/>
      <point x="115" y="219" type="line"/>
      <point x="116" y="239" type="line"/>
      <point x="119" y="259" type="line"/>
      <point x="121" y="269" type="line"/>
      <point x="123" y="282" type="line"/>
      <point x="123" y="291" type="line"/>
      <point x="121" y="318" type="line"/>
      <point x="114" y="337" type="line"/>
      <point x="107" y="333"/>
      <point x="97" y="324"/>
      <point x="86" y="311" type="curve"/>
      <point x="54" y="263" type="line"/>
      <point x="53" y="212" type="line"/>
      <point x="51" y="193" type="line"/>
      <point x="47" y="180" type="line"/>
      <point x="-3" y="180" type="line"/>
      <point x="-3" y="0" type="line"/>
      <point x="19" y="0" type="line"/>
      <point x="23" y="1" type="line"/>
      <point x="26" y="3" type="line"/>
      <point x="28" y="15" type="line"/>
      <point x="33" y="35" type="line"/>
      <point x="43" y="56" type="line"/>
      <point x="67" y="12" type="line"/>
      <point x="74" y="4"/>
      <point x="79" y="0"/>
      <point x="82" y="0" type="curve" smooth="yes"/>
      <point x="476" y="0" type="line"/>
      <point x="491" y="47" type="line"/>
      <point x="505" y="100" type="line"/>
      <point x="514" y="128" type="line"/>
      <point x="525" y="179" type="line" smooth="yes"/>
    </contour>
    <contour>
      <point x="256" y="192" type="line"/>
      <point x="270" y="203" type="line"/>
      <point x="281" y="211" type="line"/>
      <point x="291" y="217" type="line" smooth="yes"/>
      <point x="312" y="230"/>
      <point x="332" y="237"/>
      <point x="352" y="240" type="curve"/>
      <point x="363" y="241" type="line"/>
      <point x="374" y="241"/>
      <point x="387" y="237"/>
      <point x="403" y="229" type="curve"/>
      <point x="412" y="221" type="line"/>
      <point x="419" y="215" type="line"/>
      <point x="434" y="196" type="line"/>
      <point x="438" y="184" type="line"/>
      <point x="437" y="180" type="line"/>
      <point x="240" y="180" type="line"/>
    </contour>
    <contour>
      <point x="293.5121951219512" y="483.70731707317054" type="move" name="dotAbove"/>
    </contour>
    <contour>
      <point x="325" y="571" type="move" name="markAbove"/>
    </contour>
    <contour>
      <point x="217.39939024390242" y="-122.65548780487802" type="move" name="markBelow"/>
    </contour>
    <contour>
      <point x="218" y="-92" type="move" name="dotBelow"/>
    </contour>
  </outline>
</glyph>
<glyph name="arSad.isol" format="1">
  <advance width="709"/>
  <note>
    arSad.isol
  </note>
  <outline>
    <contour>
      <point x="696" y="198"/>
      <point x="698" y="214"/>
      <point x="698" y="227" type="curve" smooth="yes"/>
      <point x="698" y="234" type="line"/>
      <point x="697" y="247" type="line"/>
      <point x="693" y="266" type="line"/>
      <point x="689" y="279"/>
      <point x="684" y="290"/>
      <point x="679" y="299" type="curve"/>
      <point x="664" y="320"/>
      <point x="644" y="334"/>
      <point x="617" y="340" type="curve"/>
      <point x="611" y="340" type="line"/>
      <point x="604" y="339"/>
      <point x="597" y="338"/>
      <point x="590" y="335" type="curve" smooth="yes"/>
      <point x="562" y="323" type="line"/>
      <point x="530" y="304" type="line"/>
      <point x="492" y="277" type="line"/>
      <point x="468" y="257" type="line"/>
      <point x="440" y="232" type="line"/>
      <point x="383" y="181" type="line"/>
      <point x="339" y="277" type="line" smooth="yes"/>
      <point x="330" y="295"/>
      <point x="323" y="305"/>
      <point x="317" y="307" type="curve"/>
      <point x="314" y="304"/>
      <point x="303" y="283"/>
      <point x="286" y="244" type="curve" smooth="yes"/>
      <point x="261" y="190" type="line"/>
      <point x="286" y="145"/>
      <point x="321" y="48"/>
      <point x="321" y="13" type="curve"/>
      <point x="319" y="1" type="line"/>
      <point x="308" y="-13"/>
      <point x="287" y="-24"/>
      <point x="257" y="-33" type="curve" smooth="yes"/>
      <point x="243" y="-37" type="line"/>
      <point x="234" y="-39" type="line"/>
      <point x="225" y="-42" type="line"/>
      <point x="214" y="-42" type="line"/>
      <point x="207" y="-43" type="line"/>
      <point x="196" y="-43" type="line"/>
      <point x="177" y="-44" type="line"/>
      <point x="172" y="-44" type="line"/>
      <point x="147" y="-42" type="line"/>
      <point x="122" y="-34"/>
      <point x="106" y="-23"/>
      <point x="98" y="-10" type="curve"/>
      <point x="90" y="5"/>
      <point x="87" y="18"/>
      <point x="87" y="38" type="curve" smooth="yes"/>
      <point x="87" y="47" type="line"/>
      <point x="89" y="68" type="line"/>
      <point x="99" y="109" type="line"/>
      <point x="105" y="137" type="line"/>
      <point x="118" y="165" type="line"/>
      <point x="136" y="202" type="line"/>
      <point x="131" y="205" type="line"/>
      <point x="126" y="204" type="line"/>
      <point x="77" y="169"/>
      <point x="7" y="32"/>
      <point x="7" y="-69" type="curve" smooth="yes"/>
      <point x="7" y="-138"/>
      <point x="50" y="-185"/>
      <point x="123" y="-198" type="curve" smooth="yes"/>
      <point x="136" y="-200" type="line"/>
      <point x="138" y="-201"/>
      <point x="141" y="-201"/>
      <point x="146" y="-201" type="curve" smooth="yes"/>
      <point x="154" y="-201" type="line" smooth="yes"/>
      <point x="184" y="-201"/>
      <point x="216" y="-194"/>
      <point x="250" y="-180" type="curve" smooth="yes"/>
      <point x="317" y="-152"/>
      <point x="338" y="-127"/>
      <point x="355" y="-78" type="curve" smooth="yes"/>
      <point x="361" y="-61" type="line"/>
      <point x="364" y="-56"/>
      <point x="365" y="-50"/>
      <point x="366" y="-43" type="curve"/>
      <point x="371" y="-21" type="line"/>
      <point x="374" y="0" type="line"/>
      <point x="643" y="0" type="line"/>
      <point x="658" y="47" type="line"/>
      <point x="672" y="100" type="line"/>
      <point x="681" y="128" type="line"/>
      <point x="692" y="179" type="line" smooth="yes"/>
    </contour>
    <contour>
      <point x="497" y="209" type="line" smooth="yes"/>
      <point x="518" y="225"/>
      <point x="531" y="232"/>
      <point x="546" y="232" type="curve" smooth="yes"/>
      <point x="562" y="232"/>
      <point x="585" y="220"/>
      <point x="601" y="196" type="curve"/>
      <point x="605" y="184" type="line"/>
      <point x="604" y="180" type="line"/>
      <point x="460" y="180" type="line"/>
    </contour>
    <contour>
      <point x="520.0564024390244" y="452.5990853658536" type="move" name="dotAbove"/>
    </contour>
    <contour>
      <point x="174.35365853658527" y="389.89176829268285" type="move" name="markAbove"/>
    </contour>
    <contour>
      <point x="89.8475609756099" y="-277.10365853658527" type="move" name="markBelow"/>
    </contour>
    <contour>
      <point x="488" y="-96" type="move" name="dotBelow"/>
    </contour>
  </outline>
</glyph>
<glyph name="arSeen.init" format="1">
  <advance width="400"/>
  <note>
    arSeen.init
  </note>
  <outline>
    <contour>
      <point x="384" y="161"/>
      <point x="384" y="169"/>
      <point x="384" y="181" type="curve" smooth="yes"/>
      <point x="384" y="186" type="line"/>
      <point x="384" y="192" type="line"/>
      <point x="384" y="200" type="line"/>
      <point x="384" y="208" type="line"/>
      <point x="384" y="219" type="line"/>
      <point x="383" y="303" type="line"/>
      <point x="383" y="316"/>
      <point x="383" y="326"/>
      <point x="382" y="333" type="curve" smooth="yes"/>
      <point x="381" y="340"/>
      <point x="379" y="344"/>
      <point x="378" y="345" type="curve"/>
      <point x="369" y="342"/>
      <point x="357" y="326"/>
      <point x="340" y="297" type="curve" smooth="yes"/>
      <point x="309" y="242" type="line"/>
      <point x="309" y="226" type="line"/>
      <point x="310" y="204" type="line"/>
      <point x="308" y="180" type="line"/>
      <point x="253" y="180" type="line"/>
      <point x="253" y="199"/>
      <point x="255" y="220"/>
      <point x="259" y="245" type="curve" smooth="yes"/>
      <point x="272" y="322" type="line"/>
      <point x="271" y="327" type="line"/>
      <point x="261" y="325"/>
      <point x="249" y="312"/>
      <point x="234" y="289" type="curve"/>
      <point x="223" y="269" type="line"/>
      <point x="201" y="228" type="line"/>
      <point x="197" y="180" type="line"/>
      <point x="114" y="180" type="line"/>
      <point x="114" y="187" type="line"/>
      <point x="114" y="201" type="line"/>
      <point x="116" y="213" type="line"/>
      <point x="129" y="267" type="line"/>
      <point x="132" y="274" type="line"/>
      <point x="133" y="277"/>
      <point x="134" y="279"/>
      <point x="134" y="282" type="curve"/>
      <point x="137" y="297" type="line"/>
      <point x="138" y="304"/>
      <point x="139" y="314"/>
      <point x="139" y="325" type="curve" smooth="yes"/>
      <point x="139" y="333"/>
      <point x="136" y="338"/>
      <point x="131" y="340" type="curve"/>
      <point x="117" y="328"/>
      <point x="104" y="313"/>
      <point x="93" y="294" type="curve"/>
      <point x="71" y="262" type="line"/>
      <point x="63" y="250" type="line"/>
      <point x="60" y="243" type="line"/>
      <point x="55" y="212" type="line"/>
      <point x="49" y="180" type="line"/>
      <point x="-4" y="180" type="line"/>
      <point x="-4" y="0" type="line"/>
      <point x="41" y="0" type="line"/>
      <point x="63" y="22" type="line"/>
      <point x="65" y="7" type="line"/>
      <point x="70" y="1" type="line"/>
      <point x="72" y="0" type="line"/>
      <point x="177" y="0" type="line" smooth="yes"/>
      <point x="182" y="0"/>
      <point x="185" y="2"/>
      <point x="188" y="6" type="curve" smooth="yes"/>
      <point x="199" y="21" type="line"/>
      <point x="215" y="3" type="line"/>
      <point x="218" y="1"/>
      <point x="221" y="0"/>
      <point x="224" y="0" type="curve" smooth="yes"/>
      <point x="332" y="0" type="line"/>
      <point x="344" y="1"/>
      <point x="353" y="15"/>
      <point x="356" y="30" type="curve"/>
      <point x="373" y="94" type="line"/>
      <point x="377" y="110" type="line"/>
      <point x="380" y="130" type="line"/>
      <point x="381" y="135"/>
      <point x="382" y="140"/>
      <point x="382" y="144" type="curve"/>
      <point x="383" y="156" type="line"/>
    </contour>
    <contour>
      <point x="210.70884146341473" y="476.5472560975611" type="move" name="dotAbove"/>
    </contour>
    <contour>
      <point x="269.9847560975611" y="554.5274390243906" type="move" name="markAbove"/>
    </contour>
    <contour>
      <point x="166.18597560975604" y="-126.91768292682923" type="move" name="markBelow"/>
    </contour>
    <contour>
      <point x="164.9253048780488" y="-96.49085365853671" type="move" name="dotBelow"/>
    </contour>
  </outline>
</glyph>
<glyph name="arSeen.medi" format="1">
  <advance width="480"/>
  <note>
    arSeen.medi
  </note>
  <outline>
    <contour>
      <point x="424" y="180" type="line" smooth="yes"/>
      <point x="412" y="180"/>
      <point x="409" y="200"/>
      <point x="409" y="219" type="curve" smooth="yes"/>
      <point x="409" y="240" type="line"/>
      <point x="405" y="278" type="line"/>
      <point x="398" y="320" type="line"/>
      <point x="394" y="319"/>
      <point x="391" y="317"/>
      <point x="389" y="314" type="curve"/>
      <point x="384" y="308" type="line"/>
      <point x="364" y="273" type="line" smooth="yes"/>
      <point x="357" y="261"/>
      <point x="350" y="251"/>
      <point x="342" y="244" type="curve"/>
      <point x="340" y="180" type="line"/>
      <point x="271" y="180" type="line"/>
      <point x="278" y="194"/>
      <point x="284" y="214"/>
      <point x="288" y="241" type="curve" smooth="yes"/>
      <point x="292" y="270" type="line"/>
      <point x="293" y="293" type="line"/>
      <point x="292" y="312" type="line"/>
      <point x="292" y="312"/>
      <point x="292" y="318"/>
      <point x="292" y="329" type="curve"/>
      <point x="278" y="324" type="line"/>
      <point x="272" y="317" type="line"/>
      <point x="243" y="264" type="line"/>
      <point x="221" y="227" type="line"/>
      <point x="219" y="203" type="line"/>
      <point x="212" y="186" type="line"/>
      <point x="210" y="180" type="line"/>
      <point x="112" y="180" type="line"/>
      <point x="131" y="246" type="line"/>
      <point x="136" y="261" type="line"/>
      <point x="140" y="281" type="line" smooth="yes"/>
      <point x="142" y="290"/>
      <point x="143" y="297"/>
      <point x="143" y="303" type="curve"/>
      <point x="144" y="309" type="line"/>
      <point x="144" y="315" type="line"/>
      <point x="144" y="324" type="line"/>
      <point x="144" y="329" type="line"/>
      <point x="144" y="333" type="line"/>
      <point x="139" y="334"/>
      <point x="133" y="329"/>
      <point x="124" y="318" type="curve"/>
      <point x="106" y="293" type="line"/>
      <point x="94" y="271" type="line"/>
      <point x="68" y="219" type="line"/>
      <point x="65" y="199" type="line"/>
      <point x="62" y="186"/>
      <point x="60" y="180"/>
      <point x="57" y="180" type="curve" smooth="yes"/>
      <point x="-4" y="180" type="line"/>
      <point x="-4" y="0" type="line"/>
      <point x="43" y="0" type="line"/>
      <point x="58" y="8" type="line"/>
      <point x="68" y="21" type="line"/>
      <point x="82" y="2" type="line"/>
      <point x="84" y="1"/>
      <point x="87" y="0"/>
      <point x="90" y="0" type="curve" smooth="yes"/>
      <point x="206" y="0" type="line" smooth="yes"/>
      <point x="210" y="0"/>
      <point x="214" y="2"/>
      <point x="219" y="7" type="curve"/>
      <point x="231" y="24" type="line"/>
      <point x="242" y="8"/>
      <point x="249" y="0"/>
      <point x="254" y="0" type="curve" smooth="yes"/>
      <point x="360" y="0" type="line" smooth="yes"/>
      <point x="363" y="0"/>
      <point x="367" y="3"/>
      <point x="370" y="10" type="curve"/>
      <point x="379" y="28" type="line"/>
      <point x="387" y="8" type="line"/>
      <point x="390" y="3"/>
      <point x="393" y="0"/>
      <point x="396" y="0" type="curve" smooth="yes"/>
      <point x="483" y="0" type="line"/>
      <point x="483" y="180" type="line"/>
    </contour>
    <contour>
      <point x="260.764862804878" y="461.29058689024396" type="move" name="dotAbove"/>
    </contour>
    <contour>
      <point x="257.35137195121933" y="495.0607850609756" type="move" name="markAbove"/>
    </contour>
    <contour>
      <point x="212.47560975609758" y="-114.10365853658527" type="move" name="markBelow"/>
    </contour>
  </outline>
</glyph>
<glyph name="arTah.medi" format="1">
  <advance width="505"/>
  <note>
    arTah.medi
  </note>
  <outline>
    <contour>
      <point x="465" y="194" type="line"/>
      <point x="469" y="203" type="line"/>
      <point x="472" y="214"/>
      <point x="473" y="223"/>
      <point x="473" y="229" type="curve" smooth="yes"/>
      <point x="473" y="270"/>
      <point x="388" y="375"/>
      <point x="352" y="375" type="curve"/>
      <point x="346" y="374" type="line"/>
      <point x="296" y="354" type="line" smooth="yes"/>
      <point x="279" y="347"/>
      <point x="264" y="340"/>
      <point x="252" y="333" type="curve" smooth="yes"/>
      <point x="228" y="319"/>
      <point x="202" y="302"/>
      <point x="174" y="282" type="curve"/>
      <point x="104" y="227" type="line"/>
      <point x="110" y="260" type="line"/>
      <point x="113" y="271" type="line"/>
      <point x="114" y="287" type="line"/>
      <point x="116" y="296" type="line"/>
      <point x="116" y="310" type="line"/>
      <point x="117" y="332" type="line"/>
      <point x="117" y="337" type="line"/>
      <point x="116" y="366" type="line"/>
      <point x="116" y="396" type="line"/>
      <point x="131" y="397" type="line"/>
      <point x="135" y="406" type="line"/>
      <point x="141" y="417" type="line"/>
      <point x="156" y="454" type="line"/>
      <point x="174" y="503" type="line"/>
      <point x="143" y="517" type="line"/>
      <point x="124" y="529" type="line"/>
      <point x="93" y="554"/>
      <point x="78" y="580"/>
      <point x="78" y="607" type="curve"/>
      <point x="67" y="609" type="line"/>
      <point x="48" y="587" type="line"/>
      <point x="40" y="575" type="line"/>
      <point x="34" y="564" type="line"/>
      <point x="23" y="547" type="line"/>
      <point x="17" y="532" type="line"/>
      <point x="11" y="518" type="line"/>
      <point x="7" y="505" type="line"/>
      <point x="17" y="489" type="line"/>
      <point x="26" y="477" type="line"/>
      <point x="30" y="473" type="line"/>
      <point x="33" y="462"/>
      <point x="36" y="446"/>
      <point x="39" y="424" type="curve"/>
      <point x="42" y="410"/>
      <point x="43" y="402"/>
      <point x="44" y="400" type="curve"/>
      <point x="44" y="397"/>
      <point x="44" y="393"/>
      <point x="44" y="386" type="curve"/>
      <point x="48" y="346" type="line"/>
      <point x="51" y="327"/>
      <point x="53" y="313"/>
      <point x="54" y="304" type="curve" smooth="yes"/>
      <point x="56" y="287"/>
      <point x="56" y="281"/>
      <point x="56" y="272" type="curve" smooth="yes"/>
      <point x="56" y="261" type="line"/>
      <point x="58" y="232" type="line"/>
      <point x="59" y="190" type="line"/>
      <point x="45" y="180" type="line"/>
      <point x="-4" y="180" type="line"/>
      <point x="-4" y="0" type="line"/>
      <point x="509" y="0" type="line"/>
      <point x="510" y="180" type="line"/>
      <point x="457" y="180" type="line"/>
    </contour>
    <contour>
      <point x="329" y="179"/>
      <point x="321" y="178"/>
      <point x="306" y="178" type="curve" smooth="yes"/>
      <point x="276" y="178" type="line"/>
      <point x="244" y="178" type="line"/>
      <point x="206" y="179" type="line"/>
      <point x="147" y="180" type="line"/>
      <point x="177" y="207" type="line"/>
      <point x="188" y="216" type="line"/>
      <point x="196" y="222" type="line" smooth="yes"/>
      <point x="219" y="239"/>
      <point x="242" y="248"/>
      <point x="264" y="248" type="curve"/>
      <point x="284" y="240" type="line" smooth="yes"/>
      <point x="291" y="237"/>
      <point x="297" y="232"/>
      <point x="303" y="227" type="curve"/>
      <point x="314" y="216"/>
      <point x="324" y="203"/>
      <point x="332" y="182" type="curve"/>
    </contour>
    <contour>
      <point x="312.0716463414635" y="493.14786585365846" type="move" name="dotAbove"/>
    </contour>
    <contour>
      <point x="238.6996951219512" y="623.3003048780488" type="move" name="markAbove"/>
    </contour>
    <contour>
      <point x="244.79268292682923" y="-112.02134146341473" type="move" name="markBelow"/>
    </contour>
    <contour>
      <point x="238" y="-81" type="move" name="dotBelow"/>
    </contour>
  </outline>
</glyph>
<glyph name="arYeh.fina" format="1">
  <advance width="507"/>
  <note>
    arYeh.fina
  </note>
  <outline>
    <contour>
      <point x="275" y="180" type="line"/>
      <point x="268" y="173"/>
      <point x="259" y="155"/>
      <point x="247" y="126" type="curve"/>
      <point x="232" y="83"/>
      <point x="223" y="54"/>
      <point x="219" y="38" type="curve"/>
      <point x="271" y="30" type="line"/>
      <point x="300" y="25" type="line"/>
      <point x="318" y="23" type="line"/>
      <point x="347" y="15"/>
      <point x="367" y="-5"/>
      <point x="371" y="-29" type="curve"/>
      <point x="365" y="-35"/>
      <point x="347" y="-40"/>
      <point x="316" y="-43" type="curve"/>
      <point x="305" y="-46" type="line"/>
      <point x="291" y="-47" type="line"/>
      <point x="271" y="-49" type="line"/>
      <point x="225" y="-50" type="line"/>
      <point x="199" y="-48" type="line"/>
      <point x="176" y="-42" type="line"/>
      <point x="156" y="-32" type="line"/>
      <point x="138" y="-19" type="line"/>
      <point x="118" y="1"/>
      <point x="108" y="27"/>
      <point x="108" y="59" type="curve" smooth="yes"/>
      <point x="108" y="120"/>
      <point x="119" y="168"/>
      <point x="167" y="243" type="curve"/>
      <point x="163" y="253" type="line"/>
      <point x="144" y="241"/>
      <point x="124" y="221"/>
      <point x="104" y="194" type="curve" smooth="yes"/>
      <point x="45" y="113"/>
      <point x="17" y="48"/>
      <point x="17" y="-28" type="curve" smooth="yes"/>
      <point x="17" y="-128"/>
      <point x="72" y="-189"/>
      <point x="197" y="-189" type="curve"/>
      <point x="217" y="-187" type="line"/>
      <point x="242" y="-183" type="line"/>
      <point x="300" y="-168" type="line"/>
      <point x="343" y="-153"/>
      <point x="368" y="-142"/>
      <point x="376" y="-135" type="curve"/>
      <point x="413" y="-92"/>
      <point x="429" y="-50"/>
      <point x="438" y="-27" type="curve" smooth="yes"/>
      <point x="448" y="0" type="line"/>
      <point x="510" y="0" type="line"/>
      <point x="510" y="180" type="line"/>
    </contour>
    <contour>
      <point x="120.39329268292704" y="305.9542682926831" type="move" name="hamzaAbove"/>
    </contour>
    <contour>
      <point x="190.80792682926813" y="377.3871951219512" type="move" name="markAbove"/>
    </contour>
    <contour>
      <point x="227.32926829268285" y="322.28353658536594" type="move" name="smallVAbove"/>
    </contour>
    <contour>
      <point x="98.28963414634154" y="-274.04573170731703" type="move" name="markBelow"/>
    </contour>
    <contour>
      <point x="211.25609756097583" y="-278.9390243902441" type="move" name="dotBelow"/>
    </contour>
    <contour>
      <point x="173" y="348" type="move" name="dotAbove"/>
    </contour>
  </outline>
</glyph>
<glyph name="arYeh.isol" format="1">
  <advance width="451"/>
  <note>
    arYeh.isol
  </note>
  <outline>
    <contour>
      <point x="445" y="444"/>
      <point x="437" y="460"/>
      <point x="420" y="472" type="curve" smooth="yes"/>
      <point x="413" y="477"/>
      <point x="405" y="479"/>
      <point x="395" y="479" type="curve" smooth="yes"/>
      <point x="376" y="479"/>
      <point x="355" y="470"/>
      <point x="332" y="452" type="curve" smooth="yes"/>
      <point x="291" y="420"/>
      <point x="253" y="368"/>
      <point x="225" y="297" type="curve"/>
      <point x="219" y="284"/>
      <point x="214" y="270"/>
      <point x="209" y="255" type="curve"/>
      <point x="203" y="229" type="line"/>
      <point x="198" y="206" type="line" smooth="yes"/>
      <point x="193" y="185"/>
      <point x="190" y="163"/>
      <point x="190" y="142" type="curve"/>
      <point x="192" y="127" type="line"/>
      <point x="208" y="102"/>
      <point x="212" y="100"/>
      <point x="236" y="92" type="curve"/>
      <point x="352" y="82" type="line"/>
      <point x="357" y="77"/>
      <point x="359" y="73"/>
      <point x="359" y="70" type="curve"/>
      <point x="357" y="66" type="line"/>
      <point x="332" y="53"/>
      <point x="305" y="42"/>
      <point x="274" y="34" type="curve" smooth="yes"/>
      <point x="259" y="30" type="line"/>
      <point x="246" y="27" type="line"/>
      <point x="233" y="24" type="line"/>
      <point x="217" y="23" type="line"/>
      <point x="204" y="21"/>
      <point x="185" y="20"/>
      <point x="160" y="20" type="curve" smooth="yes"/>
      <point x="100" y="20"/>
      <point x="54" y="56"/>
      <point x="49" y="105" type="curve"/>
      <point x="49" y="116" type="line" smooth="yes"/>
      <point x="49" y="129"/>
      <point x="52" y="146"/>
      <point x="58" y="167" type="curve" smooth="yes"/>
      <point x="70" y="210"/>
      <point x="76" y="234"/>
      <point x="76" y="239" type="curve" smooth="yes"/>
      <point x="76" y="255"/>
      <point x="72" y="271"/>
      <point x="63" y="286" type="curve"/>
      <point x="56" y="271"/>
      <point x="49" y="254"/>
      <point x="43" y="237" type="curve"/>
      <point x="41" y="229"/>
      <point x="40" y="223"/>
      <point x="39" y="220" type="curve" smooth="yes"/>
      <point x="38" y="217"/>
      <point x="36" y="213"/>
      <point x="35" y="208" type="curve" smooth="yes"/>
      <point x="31" y="191"/>
      <point x="29" y="183"/>
      <point x="28" y="175" type="curve"/>
      <point x="19" y="131"/>
      <point x="15" y="92"/>
      <point x="15" y="59" type="curve" smooth="yes"/>
      <point x="15" y="-44"/>
      <point x="27" y="-100"/>
      <point x="98" y="-127" type="curve"/>
      <point x="114" y="-134"/>
      <point x="133" y="-137"/>
      <point x="155" y="-137" type="curve" smooth="yes"/>
      <point x="196" y="-137"/>
      <point x="240" y="-125"/>
      <point x="285" y="-100" type="curve" smooth="yes"/>
      <point x="375" y="-52"/>
      <point x="396" y="-17"/>
      <point x="419" y="64" type="curve" smooth="yes"/>
      <point x="428" y="93" type="line"/>
      <point x="432" y="114" type="line"/>
      <point x="435" y="128" type="line"/>
      <point x="436" y="139" type="line"/>
      <point x="437" y="143" type="line"/>
      <point x="437" y="146" type="line"/>
      <point x="437" y="152" type="line"/>
      <point x="437" y="163" type="line" smooth="yes"/>
      <point x="437" y="183"/>
      <point x="424" y="197"/>
      <point x="397" y="204" type="curve"/>
      <point x="389" y="209"/>
      <point x="352" y="213"/>
      <point x="324" y="213" type="curve"/>
      <point x="280" y="222" type="line"/>
      <point x="271" y="226"/>
      <point x="265" y="231"/>
      <point x="261" y="236" type="curve"/>
      <point x="259" y="241"/>
      <point x="258" y="245"/>
      <point x="258" y="249" type="curve" smooth="yes"/>
      <point x="258" y="289"/>
      <point x="323" y="362"/>
      <point x="375" y="362" type="curve" smooth="yes"/>
      <point x="398" y="362"/>
      <point x="408" y="347"/>
      <point x="417" y="311" type="curve"/>
      <point x="423" y="313" type="line"/>
      <point x="425" y="316" type="line"/>
      <point x="435" y="362" type="line" smooth="yes"/>
      <point x="442" y="398"/>
      <point x="445" y="419"/>
      <point x="445" y="424" type="curve" smooth="yes"/>
    </contour>
    <contour>
      <point x="133.5121951219512" y="486.4878048780488" type="move" name="markAbove"/>
    </contour>
    <contour>
      <point x="133.39024390243912" y="414.09756097560967" type="move" name="smallVAbove"/>
    </contour>
    <contour>
      <point x="91.64634146341473" y="370.0975609756099" type="move" name="hamzaAbove"/>
    </contour>
    <contour>
      <point x="208.17073170731715" y="-234.17073170731726" type="move" name="dotBelow"/>
    </contour>
    <contour>
      <point x="96.49695121951208" y="-224.3689024390244" type="move" name="markBelow"/>
    </contour>
    <contour>
      <point x="114" y="444" type="move" name="dotAbove"/>
    </contour>
  </outline>
</glyph>
<glyph name="di1Dot.above" format="1">
  <note>
    ar1Dot.above
  </note>
  <outline>
    <contour>
      <point x="25" y="65"/>
      <point x="6" y="82"/>
      <point x="-4" y="95" type="curve"/>
      <point x="-40" y="53" type="line" smooth="yes"/>
      <point x="-61" y="28"/>
      <point x="-74" y="10"/>
      <point x="-79" y="-2" type="curve"/>
      <point x="-68" y="-13"/>
      <point x="-49" y="-27"/>
      <point x="-22" y="-46" type="curve"/>
      <point x="17" y="-70" type="line"/>
      <point x="58" y="-21" type="line"/>
      <point x="91" y="20" type="line"/>
      <point x="52" y="46" type="line" smooth="yes"/>
    </contour>
    <contour>
      <point x="-6.028963414634177" y="171.53201219512198" type="move" name="markAboveDot"/>
    </contour>
    <contour>
      <point x="0" y="0" type="move" name="_dotAbove"/>
    </contour>
  </outline>
</glyph>
<glyph name="di1Dot.below" format="1">
  <note>
    ar1Dot.below
  </note>
  <outline>
    <contour>
      <point x="22" y="39"/>
      <point x="3" y="56"/>
      <point x="-7" y="69" type="curve"/>
      <point x="-43" y="27" type="line" smooth="yes"/>
      <point x="-64" y="2"/>
      <point x="-77" y="-17"/>
      <point x="-82" y="-28" type="curve"/>
      <point x="-71" y="-39"/>
      <point x="-52" y="-54"/>
      <point x="-25" y="-72" type="curve" smooth="yes"/>
      <point x="13" y="-97" type="line"/>
      <point x="54" y="-48" type="line"/>
      <point x="87" y="-7" type="line"/>
      <point x="49" y="19" type="line"/>
    </contour>
    <contour>
      <point x="1" y="1" type="move" name="_dotBelow"/>
    </contour>
    <contour>
      <point x="-19.844512195122093" y="-153.7682926829268" type="move" name="markBelowDot"/>
    </contour>
  </outline>
</glyph>
<glyph name="di2Dot.above" format="1">
  <note>
    ar2Dot.above
  </note>
  <outline>
    <contour>
      <point x="96" y="48"/>
      <point x="77" y="65"/>
      <point x="66" y="78" type="curve"/>
      <point x="44" y="51" type="line"/>
      <point x="9" y="9" type="line"/>
      <point x="-21" y="31" type="line"/>
      <point x="-55" y="60"/>
      <point x="-72" y="75"/>
      <point x="-73" y="78" type="curve"/>
      <point x="-109" y="36" type="line" smooth="yes"/>
      <point x="-130" y="11"/>
      <point x="-143" y="-8"/>
      <point x="-148" y="-19" type="curve"/>
      <point x="-138" y="-30"/>
      <point x="-119" y="-45"/>
      <point x="-91" y="-63" type="curve" smooth="yes"/>
      <point x="-53" y="-88" type="line"/>
      <point x="-32" y="-63" type="line"/>
      <point x="-1" y="-26" type="line"/>
      <point x="10" y="-37"/>
      <point x="29" y="-50"/>
      <point x="54" y="-67" type="curve" smooth="yes"/>
      <point x="87" y="-88" type="line"/>
      <point x="128" y="-39" type="line"/>
      <point x="161" y="2" type="line"/>
      <point x="123" y="28" type="line"/>
    </contour>
    <contour>
      <point x="-0.13719512195109473" y="146.11585365853648" type="move" name="markAboveDot"/>
    </contour>
    <contour>
      <point x="0" y="1" type="move" name="_dotAbove"/>
    </contour>
  </outline>
</glyph>
<glyph name="di2VDot.above" format="1">
  <note>
    ar2VDot.above
  </note>
  <outline>
    <contour>
      <point x="52.30792682926824" y="-18.179878048780438"/>
      <point x="69.30792682926824" y="-0.1798780487804379"/>
      <point x="83.30792682926824" y="9.820121951219562" type="curve"/>
      <point x="57.30792682926824" y="32.82012195121956" type="line"/>
      <point x="17.30792682926824" y="69.82012195121956" type="line"/>
      <point x="40.30792682926824" y="98.82012195121956" type="line"/>
      <point x="70.30792682926824" y="131.82012195121956"/>
      <point x="86.30792682926824" y="147.82012195121956"/>
      <point x="89.30792682926824" y="148.82012195121956" type="curve"/>
      <point x="49.30792682926824" y="186.82012195121956" type="line"/>
      <point x="24.30792682926824" y="207.82012195121956"/>
      <point x="6.30792682926824" y="221.82012195121956"/>
      <point x="-4.69207317073176" y="227.82012195121956" type="curve"/>
      <point x="-15.69207317073176" y="218.82012195121956"/>
      <point x="-31.69207317073176" y="199.82012195121956"/>
      <point x="-50.69207317073176" y="172.82012195121956" type="curve" smooth="yes"/>
      <point x="-77.69207317073176" y="135.82012195121956" type="line"/>
      <point x="-53.69207317073176" y="113.82012195121956" type="line"/>
      <point x="-17.69207317073176" y="80.82012195121956" type="line"/>
      <point x="-28.69207317073176" y="69.82012195121956"/>
      <point x="-43.69207317073176" y="52.82012195121956"/>
      <point x="-60.69207317073176" y="27.820121951219562" type="curve" smooth="yes"/>
      <point x="-83.69207317073176" y="-4.179878048780438" type="line"/>
      <point x="-35.69207317073176" y="-47.17987804878044" type="line"/>
      <point x="3.30792682926824" y="-82.17987804878044" type="line"/>
      <point x="31.30792682926824" y="-45.17987804878044" type="line" smooth="yes"/>
    </contour>
    <contour>
      <point x="-25.564024390243958" y="326.2256097560976" type="move" name="markAboveDot"/>
    </contour>
    <contour>
      <point x="0" y="2" type="move" name="_dotAbove"/>
    </contour>
  </outline>
</glyph>
<glyph name="di2VDot.below" format="1">
  <note>
    ar2VDot.below
  </note>
  <outline>
    <contour>
      <point x="36.3780487804878" y="-186.7682926829268"/>
      <point x="41.3780487804878" y="-180.7682926829268"/>
      <point x="49.3780487804878" y="-170.7682926829268" type="curve" smooth="yes"/>
      <point x="60.3780487804878" y="-157.7682926829268"/>
      <point x="71.3780487804878" y="-143.7682926829268"/>
      <point x="84.3780487804878" y="-135.7682926829268" type="curve"/>
      <point x="60.3780487804878" y="-111.76829268292681" type="line"/>
      <point x="43.3780487804878" y="-97.76829268292681" type="line"/>
      <point x="17.378048780487802" y="-76.76829268292681" type="line"/>
      <point x="40.3780487804878" y="-46.76829268292681" type="line"/>
      <point x="68.3780487804878" y="-13.768292682926813"/>
      <point x="84.3780487804878" y="3.2317073170731874"/>
      <point x="87.3780487804878" y="4.231707317073187" type="curve"/>
      <point x="46.3780487804878" y="41.23170731707319" type="line" smooth="yes"/>
      <point x="23.378048780487802" y="62.23170731707319"/>
      <point x="5.378048780487802" y="76.23170731707319"/>
      <point x="-7.621951219512198" y="82.23170731707319" type="curve"/>
      <point x="-19.621951219512198" y="69.23170731707319" type="line"/>
      <point x="-34.6219512195122" y="51.23170731707319" type="line"/>
      <point x="-52.6219512195122" y="26.231707317073187" type="line"/>
      <point x="-77.6219512195122" y="-12.768292682926813" type="line"/>
      <point x="-54.6219512195122" y="-33.76829268292681" type="line"/>
      <point x="-17.621951219512198" y="-64.76829268292681" type="line"/>
      <point x="-28.621951219512198" y="-75.76829268292681"/>
      <point x="-42.6219512195122" y="-93.76829268292681"/>
      <point x="-59.6219512195122" y="-118.76829268292681" type="curve" smooth="yes"/>
      <point x="-81.6219512195122" y="-151.7682926829268" type="line"/>
      <point x="-33.6219512195122" y="-193.7682926829268" type="line"/>
      <point x="7.378048780487802" y="-227.7682926829268" type="line"/>
      <point x="34.3780487804878" y="-189.7682926829268" type="line" smooth="yes"/>
    </contour>
    <contour>
      <point x="3.246951219512198" y="-348.0121951219512" type="move" name="markBelowDot"/>
    </contour>
    <contour>
      <point x="0" y="-1" type="move" name="_dotBelow"/>
    </contour>
  </outline>
</glyph>
